<?xml version="1.0" encoding="UTF-8"?>
<svg version="1.1" xmlns="http://www.w3.org/2000/svg" width="1000" height="300">
<path d="M0,0 L1000,0 L1000,300 L0,300 Z " fill="#85DAFE" transform="translate(0,0)"/>
<path d="M0,0 L1000,0 L1000,83 L995,102 L993,106 L994,110 L994,115 L992,118 L993,123 L992,137 L990,139 L989,145 L991,145 L991,147 L998,148 L999,150 L999,160 L973,160 L973,150 L978,149 L981,148 L981,135 L979,131 L979,122 L978,114 L977,107 L972,88 L970,94 L968,100 L964,135 L962,140 L963,148 L964,150 L970,151 L970,159 L948,159 L948,151 L954,151 L955,148 L957,148 L956,141 L953,131 L952,130 L951,121 L950,110 L947,99 L945,102 L942,120 L941,121 L939,141 L939,149 L945,150 L945,160 L916,160 L915,159 L915,147 L917,144 L919,146 L925,147 L933,147 L932,143 L932,141 L931,136 L934,137 L928,129 L929,127 L930,124 L928,120 L931,121 L928,117 L928,115 L933,115 L925,106 L928,106 L926,102 L926,99 L929,100 L924,95 L924,93 L927,93 L923,89 L922,85 L922,82 L927,83 L921,74 L921,72 L925,73 L925,72 L920,64 L920,62 L923,62 L918,55 L919,50 L921,50 L916,41 L913,33 L912,25 L911,36 L905,48 L903,52 L905,51 L906,55 L901,63 L904,61 L902,66 L897,74 L902,73 L900,78 L893,87 L894,91 L892,91 L891,87 L889,87 L888,92 L884,92 L884,89 L882,89 L880,95 L878,95 L878,93 L876,93 L875,97 L870,95 L866,100 L864,100 L861,97 L859,103 L853,103 L852,105 L848,104 L846,103 L844,108 L838,107 L836,111 L834,111 L834,108 L832,108 L831,112 L828,112 L825,115 L820,114 L819,117 L817,117 L817,115 L815,115 L814,119 L810,119 L806,121 L806,119 L804,119 L803,123 L796,125 L794,124 L794,127 L790,126 L790,128 L784,129 L782,128 L781,131 L776,132 L774,131 L774,133 L771,133 L771,135 L763,136 L756,138 L750,139 L735,137 L728,135 L726,135 L725,133 L720,132 L712,129 L707,128 L705,125 L701,125 L697,124 L696,120 L692,122 L690,119 L685,120 L682,116 L679,116 L679,114 L675,116 L672,113 L672,111 L670,111 L670,113 L668,113 L665,110 L661,109 L658,109 L654,107 L651,104 L647,105 L645,101 L643,101 L643,103 L639,102 L635,98 L631,99 L627,95 L626,97 L623,96 L622,94 L618,94 L617,90 L614,93 L610,91 L609,88 L607,88 L606,91 L602,88 L602,86 L599,85 L602,83 L596,74 L596,72 L600,72 L594,63 L594,61 L597,61 L593,55 L594,53 L596,51 L591,43 L587,30 L586,24 L584,39 L579,48 L575,53 L581,49 L580,56 L575,63 L578,62 L577,66 L572,74 L574,72 L578,73 L571,83 L567,82 L564,76 L559,77 L557,73 L552,75 L548,69 L544,72 L540,67 L536,67 L534,64 L527,65 L523,59 L521,59 L520,61 L518,61 L515,58 L514,60 L512,60 L509,54 L505,56 L501,55 L499,55 L495,56 L494,53 L491,53 L489,58 L486,60 L483,58 L482,61 L478,59 L476,58 L474,64 L470,65 L467,63 L462,68 L459,66 L458,70 L454,71 L453,69 L448,74 L446,72 L442,76 L437,75 L432,82 L428,80 L428,78 L426,77 L430,77 L431,74 L427,73 L420,63 L420,61 L423,61 L419,55 L420,51 L423,51 L417,42 L414,35 L413,24 L411,37 L404,51 L406,51 L407,55 L402,62 L405,61 L403,66 L398,74 L401,72 L404,73 L398,83 L401,82 L403,83 L401,87 L396,94 L400,93 L398,98 L397,100 L398,103 L396,106 L401,104 L398,109 L394,113 L398,113 L396,118 L394,121 L398,120 L396,124 L393,126 L397,127 L399,127 L397,131 L393,137 L396,137 L393,142 L396,142 L396,144 L398,145 L402,144 L402,147 L405,144 L408,145 L410,144 L411,146 L411,159 L378,159 L378,154 L380,152 L383,152 L383,141 L381,126 L379,119 L377,107 L372,141 L372,153 L376,153 L376,160 L359,160 L359,154 L364,152 L362,136 L360,131 L358,120 L355,134 L353,153 L357,153 L357,160 L334,163 L330,163 L330,165 L342,165 L349,166 L354,175 L356,203 L350,204 L147,204 L142,202 L143,197 L145,190 L147,174 L149,174 L150,167 L151,166 L169,164 L156,162 L154,161 L144,160 L144,153 L148,151 L147,139 L143,119 L141,126 L139,143 L139,153 L142,153 L142,160 L124,160 L124,153 L127,153 L128,146 L128,136 L126,124 L123,112 L122,113 L120,125 L117,143 L116,153 L122,153 L122,159 L91,159 L91,145 L94,145 L97,145 L98,147 L100,146 L106,147 L106,143 L109,143 L107,141 L108,137 L102,128 L106,129 L106,125 L102,122 L102,120 L106,120 L102,115 L102,113 L106,112 L102,109 L102,106 L105,106 L103,101 L106,101 L101,96 L99,92 L102,92 L99,87 L99,83 L103,83 L97,75 L97,72 L102,73 L95,63 L95,61 L97,60 L93,54 L94,52 L96,52 L94,47 L90,37 L88,27 L88,21 L86,21 L86,33 L84,41 L78,50 L77,52 L81,50 L82,54 L76,63 L80,61 L78,66 L72,75 L77,74 L75,79 L72,83 L68,82 L65,76 L59,76 L55,74 L52,74 L48,69 L45,72 L41,67 L37,67 L33,64 L28,65 L24,59 L22,58 L21,61 L19,61 L16,58 L15,60 L12,59 L10,53 L6,56 L2,55 L0,53 Z " fill="#D8FDFE" transform="translate(0,0)"/>
<path d="M0,0 L68,0 L68,16 L64,16 L64,21 L84,21 L84,16 L80,16 L80,1 L156,1 L156,17 L152,17 L152,21 L171,21 L171,16 L167,16 L167,1 L245,1 L245,17 L240,17 L240,22 L260,22 L260,17 L255,17 L255,1 L335,1 L335,17 L331,17 L331,21 L349,21 L349,17 L345,17 L345,0 L421,0 L421,16 L416,16 L416,21 L436,21 L436,16 L432,16 L432,0 L567,0 L567,16 L563,16 L563,21 L583,21 L583,16 L579,16 L579,1 L655,1 L655,17 L651,17 L651,21 L670,21 L670,17 L666,17 L666,1 L744,1 L744,17 L739,17 L739,22 L759,22 L759,17 L755,17 L755,1 L834,1 L834,17 L830,17 L830,21 L849,21 L849,17 L844,17 L844,0 L920,0 L920,16 L916,16 L916,21 L936,21 L936,16 L931,16 L931,0 L1000,0 L1000,79 L0,79 Z " fill="#3D36D0" transform="translate(0,221)"/>
<path d="M0,0 L2,0 L5,16 L10,28 L11,31 L9,33 L10,36 L12,41 L9,40 L16,51 L17,53 L11,51 L16,60 L18,63 L13,62 L16,69 L18,73 L13,71 L18,78 L21,81 L17,80 L21,87 L16,85 L17,88 L21,92 L16,92 L21,100 L16,99 L21,104 L22,106 L20,106 L20,108 L17,108 L23,116 L21,117 L24,123 L20,122 L20,126 L14,126 L11,126 L11,124 L8,124 L7,126 L6,125 L5,138 L36,138 L36,132 L30,132 L30,122 L33,104 L36,88 L38,91 L42,106 L43,115 L43,125 L41,132 L38,132 L38,139 L56,139 L56,132 L53,132 L52,130 L52,122 L55,100 L57,96 L61,112 L63,124 L63,130 L61,132 L58,132 L58,139 L68,139 L78,141 L84,142 L83,144 L65,146 L63,153 L61,153 L61,163 L59,175 L57,177 L57,181 L61,182 L270,182 L268,168 L267,154 L263,147 L263,145 L244,144 L244,142 L262,139 L271,139 L271,132 L267,132 L267,120 L270,102 L272,98 L274,102 L276,114 L277,115 L279,131 L276,133 L273,133 L273,139 L290,139 L290,132 L286,132 L285,130 L285,120 L288,98 L290,86 L292,84 L295,103 L296,105 L298,120 L298,129 L297,131 L293,133 L292,138 L325,138 L324,125 L323,124 L321,126 L318,124 L315,127 L316,123 L311,125 L308,125 L308,122 L304,123 L307,120 L308,116 L306,117 L308,113 L313,106 L308,107 L306,105 L311,100 L307,101 L309,97 L312,92 L306,93 L311,88 L313,84 L308,86 L311,82 L311,80 L309,79 L314,72 L309,74 L315,65 L317,62 L311,63 L313,59 L317,52 L311,54 L318,42 L315,41 L320,34 L319,31 L317,30 L324,16 L326,3 L328,2 L329,14 L336,28 L338,31 L335,31 L334,34 L338,40 L337,42 L334,40 L341,51 L345,53 L345,58 L344,56 L342,57 L344,60 L347,59 L351,53 L356,54 L360,50 L363,52 L367,47 L368,50 L372,48 L373,45 L377,46 L382,41 L384,43 L387,43 L390,37 L396,39 L397,37 L401,38 L405,32 L408,32 L409,34 L412,34 L414,32 L416,34 L420,33 L424,33 L426,39 L428,39 L429,36 L432,38 L432,40 L434,40 L435,37 L439,39 L441,43 L448,42 L451,46 L455,45 L459,50 L462,47 L466,53 L471,52 L473,55 L478,54 L482,61 L486,60 L491,52 L488,51 L487,54 L485,53 L491,44 L490,43 L488,42 L493,35 L494,29 L491,32 L489,32 L491,28 L496,20 L498,14 L499,3 L501,1 L503,12 L507,24 L511,31 L509,31 L508,34 L512,40 L511,42 L508,40 L515,52 L510,51 L517,63 L512,62 L515,69 L517,73 L513,72 L520,80 L518,81 L516,80 L520,87 L515,85 L516,88 L520,92 L516,92 L520,100 L515,99 L515,101 L519,103 L521,106 L515,107 L522,115 L521,117 L521,120 L522,122 L518,121 L520,127 L512,125 L511,127 L510,124 L507,124 L506,126 L504,123 L504,138 L535,138 L535,132 L529,132 L529,122 L532,104 L533,103 L535,88 L537,91 L540,102 L542,115 L543,123 L544,126 L543,131 L537,132 L537,139 L555,139 L555,131 L551,130 L552,110 L555,94 L557,95 L562,123 L562,130 L560,132 L557,132 L557,139 L567,139 L573,141 L573,143 L560,144 L505,145 L505,173 L515,174 L524,175 L526,175 L526,177 L534,178 L535,179 L546,180 L546,182 L549,182 L549,184 L546,185 L-86,185 L-86,32 L-83,34 L-79,33 L-76,32 L-73,38 L-71,39 L-70,36 L-67,38 L-67,40 L-64,37 L-61,38 L-58,43 L-52,42 L-48,46 L-44,45 L-40,50 L-37,47 L-33,53 L-29,52 L-27,54 L-21,54 L-18,59 L-18,61 L-13,60 L-10,54 L-15,55 L-13,51 L-6,40 L-11,43 L-9,39 L-5,33 L-6,30 L-10,32 L-8,28 L-2,18 Z " fill="#4EADFE" transform="translate(86,21)"/>
<path d="M0,0 L68,0 L68,16 L64,16 L64,21 L84,21 L84,16 L80,16 L80,1 L156,1 L156,17 L152,17 L152,21 L171,21 L171,16 L167,16 L167,1 L245,1 L245,17 L240,17 L240,22 L260,22 L260,17 L255,17 L255,1 L335,1 L335,17 L331,17 L331,21 L349,21 L349,17 L345,17 L345,0 L421,0 L421,16 L416,16 L416,21 L436,21 L436,16 L432,16 L432,0 L567,0 L567,16 L563,16 L563,21 L583,21 L583,16 L579,16 L579,1 L655,1 L655,17 L651,17 L651,21 L670,21 L670,17 L666,17 L666,1 L744,1 L744,17 L739,17 L739,22 L759,22 L759,17 L755,17 L755,1 L834,1 L834,17 L830,17 L830,21 L849,21 L849,17 L844,17 L844,0 L920,0 L920,16 L916,16 L916,21 L936,21 L936,16 L931,16 L931,0 L1000,0 L1000,31 L999,29 L62,30 L62,31 L0,31 Z " fill="#1E6BD3" transform="translate(0,221)"/>
<path d="M0,0 L4,1 L2,5 L-3,12 L1,11 L-1,16 L-2,18 L-1,21 L-3,24 L2,22 L-1,27 L-5,31 L-1,31 L-3,36 L-5,39 L-1,38 L-3,42 L-6,44 L-2,45 L0,45 L-2,49 L-6,55 L-3,55 L-6,60 L-3,60 L-3,62 L-1,63 L3,62 L3,65 L6,62 L9,63 L11,62 L12,64 L12,77 L-21,77 L-21,72 L-19,70 L-16,70 L-16,59 L-18,44 L-20,37 L-22,25 L-27,59 L-27,71 L-23,71 L-23,78 L-40,78 L-40,72 L-35,70 L-37,54 L-39,49 L-41,38 L-44,52 L-46,71 L-42,71 L-42,78 L-65,81 L-69,81 L-69,83 L-57,83 L-50,84 L-45,93 L-43,121 L-49,122 L-252,122 L-257,120 L-256,115 L-254,108 L-252,92 L-250,92 L-249,85 L-248,84 L-230,82 L-243,80 L-245,79 L-255,78 L-255,71 L-251,69 L-252,57 L-256,37 L-258,44 L-260,61 L-260,71 L-257,71 L-257,78 L-275,78 L-275,71 L-272,71 L-271,64 L-271,54 L-273,42 L-276,30 L-277,31 L-279,43 L-282,61 L-283,71 L-277,71 L-277,77 L-308,77 L-308,63 L-305,63 L-302,63 L-301,65 L-299,64 L-293,65 L-293,61 L-290,61 L-292,59 L-291,55 L-297,46 L-293,47 L-293,43 L-297,40 L-297,38 L-293,38 L-297,33 L-297,31 L-293,30 L-297,27 L-297,24 L-294,24 L-296,19 L-293,19 L-298,14 L-300,10 L-297,10 L-300,5 L-300,1 L-297,2 L-298,3 L-292,8 L-291,6 L-289,6 L-285,10 L-282,8 L-280,12 L-276,11 L-272,15 L-271,12 L-267,15 L-267,17 L-262,15 L-258,20 L-255,21 L-255,19 L-253,19 L-251,22 L-248,23 L-248,21 L-245,22 L-242,26 L-238,25 L-234,27 L-230,29 L-226,29 L-222,33 L-219,32 L-217,34 L-215,33 L-213,37 L-208,36 L-205,39 L-202,38 L-201,43 L-197,42 L-191,44 L-189,46 L-186,45 L-186,47 L-182,48 L-175,50 L-173,50 L-172,52 L-164,53 L-164,55 L-161,54 L-148,56 L-146,57 L-146,55 L-136,54 L-134,53 L-131,54 L-131,52 L-127,53 L-127,51 L-124,51 L-124,49 L-117,48 L-116,46 L-112,47 L-112,45 L-107,44 L-103,42 L-100,44 L-99,41 L-95,41 L-94,38 L-90,39 L-90,36 L-85,37 L-83,33 L-81,33 L-81,35 L-79,35 L-78,31 L-73,33 L-71,29 L-68,30 L-66,26 L-64,26 L-64,29 L-60,25 L-55,25 L-52,21 L-46,23 L-45,20 L-40,21 L-37,15 L-35,15 L-34,17 L-31,16 L-29,12 L-25,14 L-23,15 L-22,11 L-20,11 L-20,13 L-18,13 L-16,7 L-14,7 L-13,10 L-11,11 L-9,5 L-7,5 L-6,9 L-2,5 L-1,3 L-3,3 L-2,1 Z " fill="#68C5FE" transform="translate(399,82)"/>
<path d="M0,0 L3,0 L4,2 L7,2 L9,0 L11,2 L15,1 L19,1 L21,7 L23,7 L24,4 L27,6 L27,8 L29,8 L30,5 L34,7 L36,11 L43,10 L46,14 L50,13 L54,18 L57,15 L61,21 L66,20 L68,23 L73,22 L77,29 L80,31 L85,30 L83,35 L81,40 L83,40 L81,45 L79,48 L81,47 L79,52 L79,53 L81,53 L79,57 L77,60 L81,61 L79,65 L76,69 L76,72 L76,75 L80,74 L78,78 L75,83 L78,82 L76,88 L75,90 L78,92 L78,94 L83,92 L83,94 L85,95 L86,92 L92,91 L93,93 L93,121 L92,136 L91,141 L82,141 L77,140 L74,141 L69,139 L53,139 L51,138 L50,140 L48,139 L38,140 L35,139 L30,139 L29,140 L7,140 L3,139 L-2,140 L-3,139 L-19,138 L-22,139 L-54,139 L-56,139 L-63,140 L-73,140 L-75,116 L-75,91 L-73,91 L-71,93 L-58,93 L-57,89 L-60,84 L-59,82 L-56,84 L-61,77 L-59,72 L-61,68 L-61,65 L-61,63 L-57,62 L-64,55 L-66,51 L-62,52 L-65,48 L-64,46 L-60,48 L-65,43 L-65,41 L-62,41 L-69,34 L-69,29 L-63,31 L-62,31 L-70,20 L-66,19 L-62,21 L-60,21 L-60,26 L-61,24 L-63,25 L-61,28 L-58,27 L-54,21 L-49,22 L-45,18 L-42,20 L-38,15 L-37,18 L-33,16 L-32,13 L-28,14 L-23,9 L-21,11 L-18,11 L-15,5 L-9,7 L-8,5 L-4,6 Z " fill="#1E83E5" transform="translate(491,53)"/>
<path d="M0,0 L1000,0 L1000,15 L931,15 L931,31 L936,31 L936,36 L916,36 L916,31 L920,31 L920,15 L844,15 L844,32 L849,32 L849,36 L830,36 L830,32 L834,32 L834,16 L755,16 L755,32 L759,32 L759,37 L739,37 L739,32 L744,32 L744,16 L666,16 L666,32 L670,32 L670,36 L651,36 L651,32 L655,32 L655,16 L579,16 L579,31 L583,31 L583,36 L563,36 L563,31 L567,31 L567,15 L432,15 L432,31 L436,31 L436,36 L416,36 L416,31 L421,31 L421,15 L345,15 L345,32 L349,32 L349,36 L331,36 L331,32 L335,32 L335,16 L255,16 L255,32 L260,32 L260,37 L240,37 L240,32 L245,32 L245,16 L167,16 L167,31 L171,31 L171,36 L152,36 L152,32 L156,32 L156,16 L80,16 L80,31 L84,31 L84,36 L64,36 L64,31 L68,31 L68,15 L0,15 Z " fill="#C4B0FD" transform="translate(0,206)"/>
<path d="M0,0 L1,0 L3,11 L7,23 L11,30 L9,30 L8,33 L12,39 L11,41 L8,39 L15,51 L10,50 L17,62 L12,61 L15,68 L17,72 L13,71 L20,79 L18,80 L16,79 L20,86 L15,84 L16,87 L20,91 L16,91 L20,99 L15,98 L15,100 L19,102 L21,105 L15,106 L22,114 L21,116 L21,119 L22,121 L18,120 L20,126 L12,124 L11,126 L10,123 L7,123 L6,125 L4,122 L4,137 L35,137 L35,131 L29,131 L29,121 L32,103 L33,102 L35,87 L37,90 L40,101 L42,114 L43,122 L44,125 L43,130 L37,131 L37,138 L55,138 L55,130 L51,129 L52,109 L55,93 L57,94 L62,122 L62,129 L60,131 L57,131 L57,138 L67,138 L73,140 L73,142 L60,143 L5,144 L5,172 L15,173 L24,174 L26,174 L26,176 L34,177 L35,178 L46,179 L46,181 L49,181 L49,183 L46,184 L-221,184 L-223,182 L-216,181 L-209,178 L-203,178 L-202,176 L-185,175 L-185,173 L-177,172 L-176,124 L-177,123 L-179,125 L-182,123 L-185,126 L-184,122 L-189,124 L-192,124 L-192,121 L-196,122 L-193,119 L-192,115 L-194,116 L-192,112 L-187,105 L-192,106 L-194,104 L-189,99 L-193,100 L-191,96 L-188,91 L-194,92 L-189,87 L-187,83 L-192,85 L-189,81 L-189,79 L-191,78 L-186,71 L-191,73 L-185,64 L-183,61 L-189,62 L-187,58 L-183,51 L-189,53 L-182,41 L-185,40 L-180,33 L-181,30 L-183,29 L-176,15 L-174,2 L-172,1 L-171,13 L-164,27 L-162,30 L-165,30 L-166,33 L-162,39 L-163,41 L-166,39 L-159,50 L-157,53 L-161,51 L-164,51 L-157,61 L-155,62 L-156,64 L-161,62 L-163,62 L-162,66 L-156,73 L-160,72 L-154,80 L-158,79 L-156,83 L-155,85 L-159,84 L-152,92 L-151,94 L-156,94 L-154,97 L-155,101 L-153,104 L-154,106 L-156,106 L-150,115 L-153,115 L-152,119 L-151,121 L-153,121 L-153,124 L-167,125 L-168,122 L-170,122 L-169,147 L-168,159 L-168,171 L-151,169 L-149,168 L-149,170 L-130,169 L-115,169 L-112,168 L-98,169 L-94,169 L-89,169 L-87,170 L-66,171 L-65,169 L-58,169 L-53,170 L-46,169 L-42,169 L-26,169 L-19,171 L-17,170 L-4,172 L-3,152 L-3,124 L-5,124 L-9,124 L-10,126 L-13,125 L-14,125 L-19,124 L-20,122 L-22,121 L-19,118 L-19,115 L-21,114 L-16,106 L-20,107 L-21,104 L-19,101 L-21,100 L-14,92 L-19,92 L-14,84 L-18,85 L-15,79 L-18,79 L-13,73 L-15,73 L-17,72 L-14,71 L-12,64 L-11,62 L-17,63 L-11,54 L-9,51 L-12,50 L-13,53 L-15,52 L-9,43 L-10,42 L-12,41 L-7,34 L-6,28 L-9,31 L-11,31 L-9,27 L-4,19 L-2,13 L-1,2 Z " fill="#1668CE" transform="translate(586,22)"/>
<path d="M0,0 L135,0 L135,16 L131,16 L131,21 L151,21 L151,16 L147,16 L147,1 L223,1 L223,17 L219,17 L219,21 L238,21 L238,17 L234,17 L234,1 L312,1 L312,17 L307,17 L307,22 L327,22 L327,17 L323,17 L323,1 L402,1 L402,17 L398,17 L398,21 L417,21 L417,17 L412,17 L412,0 L488,0 L488,16 L483,16 L483,21 L422,21 L420,24 L396,24 L388,21 L342,21 L333,23 L332,24 L304,24 L297,21 L256,21 L246,22 L241,25 L184,25 L181,24 L174,24 L172,25 L160,25 L150,27 L141,27 L141,25 L131,26 L111,26 L106,25 L91,25 L92,23 L73,25 L69,26 L66,27 L56,25 L50,25 L49,26 L39,26 L39,24 L32,25 L16,25 L7,26 L-11,26 L-21,24 L-32,24 L-36,22 L-47,22 L-54,23 L-50,24 L-50,26 L-77,26 L-86,27 L-88,26 L-104,25 L-102,23 L-77,23 L-76,20 L-74,19 L-57,18 L-21,18 L-19,21 L-15,22 L-15,21 L4,21 L4,16 L0,16 Z " fill="#1961C8" transform="translate(432,221)"/>
<path d="M0,0 L3,2 L7,1 L10,0 L13,6 L15,7 L16,4 L19,6 L19,8 L22,5 L25,6 L28,11 L34,10 L38,14 L42,13 L46,18 L49,15 L53,21 L57,20 L59,22 L65,22 L68,27 L68,29 L71,30 L72,31 L76,31 L76,33 L73,35 L73,39 L73,40 L76,39 L74,43 L69,48 L73,47 L71,51 L71,53 L74,52 L72,56 L68,61 L72,62 L70,66 L71,67 L71,73 L73,73 L71,77 L66,84 L69,83 L67,89 L68,93 L70,92 L70,94 L75,92 L75,94 L79,92 L82,92 L84,91 L85,93 L85,106 L84,133 L83,141 L74,141 L66,140 L62,140 L60,139 L45,139 L40,138 L33,139 L31,138 L15,140 L2,140 L0,139 Z " fill="#1D81E5" transform="translate(0,53)"/>
<path d="M0,0 L1,0 L3,13 L7,22 L11,29 L8,29 L7,32 L12,39 L11,41 L8,39 L15,50 L16,52 L12,50 L9,49 L16,60 L12,61 L10,61 L12,64 L14,68 L17,72 L12,70 L19,78 L17,79 L14,78 L18,83 L15,83 L17,87 L22,93 L16,92 L19,96 L19,98 L17,99 L19,102 L19,105 L17,106 L23,114 L20,115 L22,120 L20,120 L21,124 L12,125 L5,123 L4,124 L4,136 L33,137 L33,127 L29,128 L29,126 L27,126 L26,118 L28,98 L30,92 L33,76 L35,72 L40,92 L40,100 L41,107 L43,110 L45,119 L45,125 L40,129 L36,128 L36,136 L58,136 L58,128 L52,128 L49,121 L50,113 L51,112 L53,97 L55,77 L59,61 L61,65 L67,87 L67,96 L68,101 L68,108 L70,114 L70,122 L69,125 L65,128 L62,128 L61,137 L87,137 L86,127 L79,124 L79,122 L77,122 L77,116 L79,114 L80,100 L81,96 L79,95 L81,92 L81,84 L81,81 L86,65 L87,60 L88,60 L88,183 L-43,183 L-46,181 L-36,177 L-30,175 L-12,174 L-12,172 L-5,171 L-4,167 L-3,123 L-6,124 L-9,122 L-12,125 L-12,122 L-16,123 L-19,123 L-19,120 L-23,121 L-19,117 L-18,114 L-21,115 L-19,111 L-15,105 L-21,104 L-16,99 L-20,99 L-18,95 L-14,89 L-19,90 L-13,82 L-19,85 L-17,81 L-16,78 L-18,77 L-14,71 L-18,73 L-16,69 L-12,62 L-13,60 L-16,61 L-14,57 L-10,50 L-16,52 L-9,40 L-12,41 L-10,37 L-7,32 L-8,29 L-11,29 L-5,20 L-2,13 L-1,2 Z " fill="#0E479C" transform="translate(912,23)"/>
<path d="M0,0 L3,0 L4,2 L7,2 L9,0 L11,2 L15,1 L19,1 L21,7 L23,7 L24,4 L27,6 L27,8 L29,8 L30,5 L34,7 L36,11 L43,10 L46,14 L50,13 L54,18 L57,15 L61,21 L66,20 L68,23 L73,22 L77,29 L80,31 L85,30 L83,35 L81,40 L83,40 L81,45 L79,48 L81,47 L79,52 L79,53 L81,53 L79,57 L77,60 L81,61 L79,65 L76,69 L76,72 L76,75 L80,74 L78,78 L75,83 L78,82 L76,88 L75,90 L78,92 L78,94 L83,92 L83,94 L85,95 L86,92 L92,91 L93,93 L93,106 L92,107 L62,107 L62,98 L68,97 L68,93 L70,93 L67,71 L65,56 L61,45 L59,53 L57,67 L54,76 L53,95 L60,97 L60,109 L38,109 L37,108 L37,96 L43,95 L44,88 L44,71 L42,67 L42,52 L37,37 L36,36 L32,49 L30,57 L30,64 L27,65 L26,70 L26,72 L25,77 L20,78 L16,71 L14,67 L16,67 L14,62 L13,49 L10,41 L9,36 L4,51 L4,53 L4,62 L2,65 L3,69 L2,84 L0,91 L2,91 L3,95 L8,95 L8,107 L-17,107 L-17,97 L-11,96 L-9,82 L-11,76 L-10,68 L-11,66 L-12,56 L-17,39 L-19,35 L-23,49 L-25,56 L-27,81 L-30,88 L-31,90 L-34,90 L-35,79 L-37,69 L-39,67 L-40,58 L-44,42 L-47,56 L-49,68 L-50,82 L-51,86 L-50,94 L-48,94 L-48,96 L-45,96 L-45,110 L-74,110 L-75,106 L-75,91 L-73,91 L-71,93 L-58,93 L-57,89 L-60,84 L-59,82 L-56,84 L-61,77 L-59,72 L-61,68 L-61,65 L-61,63 L-57,62 L-64,55 L-66,51 L-62,52 L-65,48 L-64,46 L-60,48 L-65,43 L-65,41 L-62,41 L-69,34 L-69,29 L-63,31 L-62,31 L-70,20 L-66,19 L-62,21 L-60,21 L-60,26 L-61,24 L-63,25 L-61,28 L-58,27 L-54,21 L-49,22 L-45,18 L-42,20 L-38,15 L-37,18 L-33,16 L-32,13 L-28,14 L-23,9 L-21,11 L-18,11 L-15,5 L-9,7 L-8,5 L-4,6 Z " fill="#85DBFE" transform="translate(491,53)"/>
<path d="M0,0 L160,0 L174,1 L172,3 L160,4 L160,6 L168,6 L174,8 L174,11 L179,12 L182,21 L182,29 L178,37 L173,38 L173,40 L156,43 L134,44 L24,44 L9,43 L8,42 L-2,42 L-5,40 L-10,39 L-12,35 L-14,35 L-17,29 L-15,26 L-18,25 L-18,18 L-15,11 L-6,7 L1,7 L1,5 L-11,3 L-12,1 Z " fill="#78CAFE" transform="translate(668,159)"/>
<path d="M0,0 L128,0 L154,1 L153,3 L139,5 L145,7 L151,9 L152,12 L153,16 L151,21 L155,23 L156,25 L153,25 L152,27 L149,28 L147,34 L143,36 L133,38 L125,40 L118,41 L100,42 L31,42 L24,41 L10,41 L3,39 L-10,35 L-12,34 L-12,32 L-17,31 L-15,30 L-17,25 L-20,21 L-19,16 L-17,16 L-17,14 L-15,14 L-13,7 L-7,6 L-5,5 L-20,3 L-20,1 Z " fill="#76C8FE" transform="translate(185,159)"/>
<path d="M0,0 L2,2 L5,17 L7,32 L7,40 L5,40 L5,42 L3,42 L1,51 L33,51 L33,81 L32,86 L24,86 L24,88 L6,90 L-6,94 L-7,97 L-244,97 L-241,96 L-241,94 L-244,94 L-244,92 L-255,92 L-264,89 L-264,87 L-271,88 L-285,85 L-285,57 L-272,56 L-217,55 L-217,53 L-206,54 L-207,57 L-214,58 L-223,62 L-225,68 L-226,75 L-222,76 L-224,80 L-222,82 L-222,85 L-220,85 L-216,89 L-211,89 L-209,91 L-200,91 L-199,92 L-184,93 L-74,93 L-52,92 L-35,90 L-35,88 L-31,87 L-27,79 L-27,71 L-29,64 L-31,62 L-34,61 L-35,58 L-48,56 L-48,54 L-29,51 L-20,51 L-20,44 L-23,44 L-24,40 L-23,23 L-19,8 L-18,8 L-14,33 L-14,41 L-15,43 L-18,43 L-18,51 L0,51 L0,43 L-6,42 L-4,16 Z " fill="#53B0FE" transform="translate(876,109)"/>
<path d="M0,0 L501,0 L501,9 L432,9 L432,25 L437,25 L437,30 L417,30 L417,25 L421,25 L421,9 L345,9 L345,26 L350,26 L350,30 L331,30 L331,26 L335,26 L335,10 L256,10 L256,26 L260,26 L260,31 L240,31 L240,26 L245,26 L245,10 L167,10 L167,26 L171,26 L171,30 L152,30 L152,26 L156,26 L156,10 L80,10 L80,25 L84,25 L84,30 L64,30 L64,25 L68,25 L68,9 L-24,9 L-24,6 L-4,5 L-1,4 Z " fill="#BCAAFB" transform="translate(499,212)"/>
<path d="M0,0 L4,1 L2,5 L-3,12 L1,11 L-1,16 L-2,18 L-1,21 L-3,24 L2,22 L-1,27 L-5,31 L-1,31 L-3,36 L-5,39 L-1,38 L-3,42 L-6,44 L-2,45 L0,45 L-2,49 L-6,55 L-3,55 L-6,60 L-3,60 L-3,62 L-1,63 L3,62 L3,65 L6,62 L9,63 L11,62 L12,64 L12,77 L-21,77 L-21,72 L-19,70 L-16,70 L-16,59 L-18,44 L-20,37 L-22,25 L-27,59 L-27,71 L-23,71 L-23,78 L-40,78 L-40,72 L-35,70 L-37,54 L-39,49 L-41,38 L-44,47 L-46,46 L-49,48 L-59,49 L-59,51 L-68,53 L-68,55 L-77,57 L-82,59 L-90,60 L-90,62 L-101,62 L-101,64 L-107,65 L-109,67 L-115,68 L-116,70 L-129,74 L-133,73 L-137,76 L-142,76 L-143,76 L-169,76 L-173,70 L-186,62 L-201,59 L-205,58 L-207,58 L-209,54 L-220,48 L-220,46 L-222,46 L-222,48 L-231,46 L-231,44 L-236,45 L-242,43 L-246,42 L-247,36 L-250,35 L-244,36 L-231,39 L-226,41 L-222,40 L-220,37 L-227,36 L-231,35 L-238,34 L-243,31 L-246,30 L-246,24 L-255,25 L-255,22 L-258,21 L-255,21 L-255,19 L-253,19 L-251,22 L-248,23 L-248,21 L-245,22 L-242,26 L-238,25 L-234,27 L-230,29 L-226,29 L-222,33 L-219,32 L-217,34 L-215,33 L-213,37 L-208,36 L-205,39 L-202,38 L-201,43 L-197,42 L-191,44 L-189,46 L-186,45 L-186,47 L-182,48 L-175,50 L-173,50 L-172,52 L-164,53 L-164,55 L-161,54 L-148,56 L-146,57 L-146,55 L-136,54 L-134,53 L-131,54 L-131,52 L-127,53 L-127,51 L-124,51 L-124,49 L-117,48 L-116,46 L-112,47 L-112,45 L-107,44 L-103,42 L-100,44 L-99,41 L-95,41 L-94,38 L-90,39 L-90,36 L-85,37 L-83,33 L-81,33 L-81,35 L-79,35 L-78,31 L-73,33 L-71,29 L-68,30 L-66,26 L-64,26 L-64,29 L-60,25 L-55,25 L-52,21 L-46,23 L-45,20 L-40,21 L-37,15 L-35,15 L-34,17 L-31,16 L-29,12 L-25,14 L-23,15 L-22,11 L-20,11 L-20,13 L-18,13 L-16,7 L-14,7 L-13,10 L-11,11 L-9,5 L-7,5 L-6,9 L-2,5 L-1,3 L-3,3 L-2,1 Z " fill="#84DAFE" transform="translate(399,82)"/>
<path d="M0,0 L3,1 L2,2 L8,7 L9,5 L11,5 L16,10 L17,7 L19,7 L20,11 L24,10 L26,15 L28,16 L27,19 L29,19 L29,21 L35,19 L38,20 L44,21 L44,23 L47,24 L48,26 L52,27 L56,31 L52,32 L47,31 L47,36 L51,34 L51,37 L54,38 L54,40 L65,43 L73,45 L79,45 L84,48 L90,51 L94,53 L99,53 L99,56 L107,58 L113,59 L117,60 L118,66 L129,72 L130,74 L159,74 L162,73 L162,71 L167,70 L174,70 L174,68 L184,64 L197,60 L200,57 L209,54 L217,51 L224,51 L224,49 L239,46 L242,44 L247,43 L248,41 L256,40 L257,46 L255,58 L255,70 L258,70 L258,77 L244,78 L230,77 L70,77 L55,78 L45,77 L45,70 L49,68 L48,55 L44,33 L41,48 L40,68 L43,69 L43,77 L25,77 L25,70 L31,69 L31,62 L30,61 L28,43 L25,34 L24,29 L22,41 L20,47 L17,70 L23,70 L23,76 L-8,76 L-9,60 L-6,63 L-2,62 L-1,64 L0,63 L6,63 L6,61 L6,59 L9,59 L7,55 L9,53 L2,45 L4,44 L8,43 L3,39 L3,37 L7,37 L4,33 L4,30 L7,29 L2,24 L3,22 L6,23 L4,18 L7,18 L1,12 L1,10 L4,10 L0,4 Z " fill="#75D1FE" transform="translate(598,83)"/>
<path d="M0,0 L3,3 L7,2 L9,1 L9,31 L4,50 L2,54 L3,58 L3,63 L1,66 L2,71 L1,85 L-1,87 L-2,93 L0,93 L0,95 L7,96 L8,98 L8,108 L-18,108 L-18,98 L-13,97 L-10,96 L-10,83 L-12,79 L-12,70 L-13,62 L-14,55 L-19,36 L-21,42 L-23,48 L-27,83 L-29,88 L-28,96 L-27,98 L-21,99 L-21,107 L-43,107 L-43,99 L-37,99 L-36,96 L-34,96 L-35,89 L-38,79 L-39,78 L-40,69 L-41,58 L-44,47 L-46,50 L-49,68 L-50,69 L-52,89 L-52,97 L-46,98 L-46,108 L-75,108 L-76,107 L-76,95 L-74,92 L-72,94 L-66,95 L-58,95 L-59,91 L-59,89 L-60,84 L-57,85 L-63,77 L-62,75 L-61,72 L-63,68 L-60,69 L-63,65 L-63,63 L-58,63 L-66,54 L-63,54 L-65,50 L-65,47 L-62,48 L-67,43 L-67,41 L-64,41 L-68,37 L-69,33 L-69,30 L-64,31 L-60,29 L-55,22 L-50,23 L-46,19 L-43,21 L-40,16 L-38,16 L-38,19 L-34,17 L-33,14 L-29,15 L-25,10 L-23,10 L-23,12 L-18,11 L-15,6 L-10,8 L-9,6 L-4,8 L-2,3 Z " fill="#85DBFE" transform="translate(991,52)"/>
<path d="M0,0 L2,0 L5,16 L10,28 L11,31 L9,33 L10,36 L12,41 L9,40 L16,51 L17,53 L11,51 L16,60 L18,63 L13,62 L16,69 L18,73 L13,71 L18,78 L21,81 L17,80 L21,87 L16,85 L17,88 L21,92 L16,92 L21,100 L16,99 L21,104 L22,106 L20,106 L20,108 L17,108 L23,116 L21,117 L24,123 L20,122 L20,126 L14,126 L11,126 L11,124 L8,124 L7,126 L5,123 L5,142 L6,174 L20,176 L26,176 L32,178 L47,180 L51,181 L52,185 L-86,185 L-86,171 L-71,171 L-54,169 L-49,170 L-45,169 L-41,170 L-26,170 L-23,171 L-20,170 L-20,172 L-16,171 L-3,173 L-2,125 L-4,125 L-7,125 L-11,126 L-13,126 L-17,125 L-19,126 L-18,122 L-20,121 L-19,117 L-21,116 L-13,105 L-15,105 L-15,99 L-17,98 L-14,94 L-19,94 L-15,88 L-12,84 L-17,86 L-14,80 L-19,82 L-13,75 L-10,71 L-14,74 L-16,73 L-12,68 L-14,67 L-10,65 L-10,63 L-16,64 L-10,54 L-15,55 L-13,51 L-6,40 L-11,43 L-9,39 L-5,33 L-6,30 L-10,32 L-8,28 L-2,18 Z " fill="#0F489C" transform="translate(86,21)"/>
<path d="M0,0 L3,2 L7,1 L10,0 L13,6 L15,7 L16,4 L19,6 L19,8 L22,5 L25,6 L28,11 L34,10 L38,14 L42,13 L46,18 L49,15 L53,21 L57,20 L59,22 L65,22 L68,27 L68,29 L71,30 L72,31 L76,31 L76,33 L73,35 L73,39 L73,40 L76,39 L74,43 L69,48 L73,47 L71,51 L71,53 L74,52 L72,56 L68,61 L72,62 L70,66 L71,67 L71,73 L73,73 L71,77 L66,84 L69,83 L67,89 L62,89 L60,87 L61,83 L58,68 L57,57 L53,42 L50,58 L48,62 L48,70 L45,90 L44,96 L52,97 L52,109 L29,109 L29,97 L34,96 L37,94 L37,92 L39,92 L37,85 L36,71 L35,67 L34,60 L34,56 L32,49 L29,34 L27,39 L24,49 L23,53 L23,61 L21,65 L20,86 L19,94 L27,95 L27,108 L1,108 L1,96 L8,94 L7,90 L8,70 L8,67 L7,61 L7,59 L6,55 L5,49 L1,36 L0,31 Z " fill="#7BD6FD" transform="translate(0,53)"/>
<path d="M0,0 L1,0 L1,108 L-1,105 L-7,105 L-8,107 L-21,107 L-21,105 L-26,105 L-27,103 L-29,108 L-48,108 L-53,107 L-57,108 L-57,106 L-63,108 L-68,109 L-81,109 L-82,108 L-83,99 L-83,77 L-54,77 L-54,67 L-58,68 L-58,66 L-60,66 L-61,58 L-59,38 L-57,32 L-54,16 L-52,12 L-47,32 L-47,40 L-46,47 L-44,50 L-42,59 L-42,65 L-47,69 L-51,68 L-51,76 L-29,76 L-29,68 L-35,68 L-38,61 L-37,53 L-36,52 L-34,37 L-32,17 L-28,1 L-26,5 L-20,27 L-20,36 L-19,41 L-19,48 L-17,54 L-17,62 L-18,65 L-22,68 L-25,68 L-26,77 L0,77 L-1,67 L-8,64 L-8,62 L-10,62 L-10,56 L-8,54 L-7,40 L-6,36 L-8,35 L-6,32 L-6,24 L-6,21 L-1,5 Z " fill="#1F83E6" transform="translate(999,83)"/>
<path d="M0,0 L26,0 L166,1 L166,24 L165,29 L156,29 L151,28 L148,29 L143,27 L127,27 L125,26 L124,28 L122,27 L112,28 L109,27 L104,27 L103,28 L81,28 L77,27 L72,28 L71,27 L55,26 L52,27 L20,27 L18,27 L11,28 L1,28 L0,16 Z " fill="#258EF1" transform="translate(417,165)"/>
<path d="M0,0 L998,0 L999,3 L928,4 L69,4 L-1,3 Z " fill="#5571DE" transform="translate(1,250)"/>
<path d="M0,0 L917,0 L917,5 L220,5 L218,3 L235,2 L295,2 L0,1 Z " fill="#DECCFE" transform="translate(83,207)"/>
<path d="M0,0 L105,0 L123,1 L119,5 L112,6 L111,15 L110,17 L112,17 L112,23 L111,21 L108,23 L106,28 L101,29 L101,31 L96,33 L88,33 L75,35 L43,35 L26,32 L21,30 L17,30 L17,25 L14,24 L13,17 L10,17 L10,11 L10,9 L1,8 L3,5 L-2,3 L-8,2 L-8,1 Z M110,23 Z " fill="#86D3FE" transform="translate(688,159)"/>
<path d="M0,0 L1,0 L3,11 L7,23 L11,30 L9,30 L8,33 L12,39 L11,41 L8,39 L15,51 L10,50 L17,62 L12,61 L15,68 L17,72 L13,71 L20,79 L18,80 L16,79 L20,86 L15,84 L16,87 L20,91 L16,91 L20,99 L15,98 L15,100 L19,102 L21,105 L15,106 L22,114 L21,116 L21,119 L22,121 L18,120 L20,126 L12,124 L11,126 L10,123 L7,123 L6,125 L4,122 L4,175 L-3,176 L-3,124 L-5,124 L-9,124 L-10,126 L-13,125 L-14,125 L-19,124 L-20,122 L-22,121 L-19,118 L-19,115 L-21,114 L-16,106 L-20,107 L-21,104 L-19,101 L-21,100 L-14,92 L-19,92 L-14,84 L-18,85 L-15,79 L-18,79 L-13,73 L-15,73 L-17,72 L-14,71 L-12,64 L-11,62 L-17,63 L-11,54 L-9,51 L-12,50 L-13,53 L-15,52 L-9,43 L-10,42 L-12,41 L-7,34 L-6,28 L-9,31 L-11,31 L-9,27 L-4,19 L-2,13 L-1,2 Z " fill="#0C459C" transform="translate(586,22)"/>
<path d="M0,0 L1,0 L2,12 L9,26 L11,29 L8,29 L7,32 L11,38 L10,40 L7,38 L14,49 L16,52 L12,50 L9,50 L16,60 L18,61 L17,63 L12,61 L10,61 L11,65 L17,72 L13,71 L19,79 L15,78 L17,82 L18,84 L14,83 L21,91 L22,93 L17,93 L19,96 L18,100 L20,103 L19,105 L17,105 L23,114 L20,114 L21,118 L22,120 L20,120 L20,123 L6,124 L5,121 L3,121 L4,146 L4,173 L-3,173 L-3,123 L-4,122 L-6,124 L-9,122 L-12,125 L-11,121 L-16,123 L-19,123 L-19,120 L-23,121 L-20,118 L-19,114 L-21,115 L-19,111 L-14,104 L-19,105 L-21,103 L-16,98 L-20,99 L-18,95 L-15,90 L-21,91 L-16,86 L-14,82 L-19,84 L-16,80 L-16,78 L-18,77 L-13,70 L-18,72 L-12,63 L-10,60 L-16,61 L-14,57 L-10,50 L-16,52 L-9,40 L-12,39 L-7,32 L-8,29 L-10,28 L-3,14 L-1,1 Z " fill="#0E4AA2" transform="translate(413,23)"/>
<path d="M0,0 L78,0 L78,16 L73,16 L73,21 L93,21 L93,16 L88,16 L88,0 L168,0 L168,16 L163,16 L163,21 L162,19 L99,19 L96,22 L93,23 L73,23 L67,20 L57,19 L8,19 L7,22 L-15,22 L-15,21 L4,21 L4,15 L0,15 Z " fill="#0F4FB7" transform="translate(167,222)"/>
<path d="M0,0 L78,0 L78,16 L73,16 L73,21 L93,21 L93,16 L89,16 L89,0 L168,0 L168,15 L163,15 L163,20 L161,17 L157,18 L98,19 L97,22 L71,22 L71,20 L66,19 L11,19 L7,22 L8,18 L6,18 L5,21 L5,15 L0,15 Z " fill="#0E4EB7" transform="translate(666,222)"/>
<path d="M0,0 L2,2 L5,17 L7,32 L7,40 L5,40 L5,42 L3,42 L1,51 L33,51 L33,81 L32,86 L24,86 L24,88 L6,90 L-6,94 L-7,97 L-244,97 L-241,96 L-241,94 L-244,93 L-236,94 L-234,95 L-24,95 L-13,93 L-9,93 L-9,91 L-6,89 L-6,74 L-7,64 L-13,65 L-18,86 L-21,85 L-24,64 L-23,57 L-48,56 L-48,54 L-29,51 L-20,51 L-20,44 L-23,44 L-24,40 L-23,23 L-19,8 L-18,8 L-14,33 L-14,41 L-15,43 L-18,43 L-18,51 L0,51 L0,43 L-6,42 L-4,16 Z " fill="#4BACFE" transform="translate(876,109)"/>
<path d="M0,0 L1000,0 L1000,1 L418,2 L418,3 L372,4 L318,4 L303,5 L303,6 L0,6 Z " fill="#C3C3FD" transform="translate(0,206)"/>
<path d="M0,0 L1,0 L6,18 L7,24 L7,37 L9,39 L9,58 L7,63 L1,64 L2,76 L24,77 L24,65 L19,64 L17,63 L16,58 L17,44 L21,30 L23,17 L25,9 L26,9 L28,19 L30,24 L33,48 L34,56 L34,61 L32,61 L32,65 L26,66 L26,75 L57,74 L57,89 L56,89 L56,81 L-84,81 L-110,80 L-111,84 L-111,74 L-110,78 L-81,78 L-81,64 L-84,64 L-84,62 L-86,62 L-88,52 L-87,50 L-86,36 L-84,24 L-81,10 L-79,9 L-76,24 L-75,26 L-73,45 L-72,55 L-74,64 L-79,64 L-79,79 L1,79 L-1,76 L-1,64 L-7,65 L-10,61 L-8,42 L-7,25 L-5,17 Z " fill="#1B7FE3" transform="translate(527,85)"/>
<path d="M0,0 L23,1 L29,2 L29,5 L27,7 L25,8 L24,11 L22,11 L21,16 L19,16 L18,24 L18,27 L12,28 L13,31 L24,33 L24,31 L40,33 L41,34 L47,34 L47,36 L63,37 L69,38 L116,38 L133,36 L138,35 L150,34 L151,32 L159,29 L164,30 L161,33 L164,34 L166,33 L172,33 L170,27 L168,26 L169,23 L172,23 L173,19 L175,19 L171,12 L165,9 L165,5 L159,4 L160,2 L171,2 L171,4 L179,4 L185,6 L185,9 L190,10 L193,19 L193,27 L189,35 L184,36 L184,38 L167,41 L145,42 L35,42 L20,41 L19,40 L9,40 L6,38 L1,37 L-1,33 L-3,33 L-6,27 L-4,24 L-7,23 L-7,16 L-4,9 L5,5 L12,5 L12,3 L0,1 Z " fill="#6BC1FE" transform="translate(657,161)"/>
<path d="M0,0 L3,0 L6,0 L7,3 L16,4 L17,6 L11,6 L11,9 L8,9 L9,12 L13,11 L16,9 L21,10 L29,9 L29,11 L36,9 L42,8 L51,5 L49,10 L47,15 L49,15 L47,20 L45,23 L47,22 L45,27 L45,28 L47,28 L45,32 L43,35 L47,36 L45,40 L42,44 L42,47 L42,50 L46,49 L44,53 L41,58 L44,57 L42,63 L41,65 L44,67 L44,69 L49,67 L49,69 L51,70 L52,67 L58,66 L59,68 L59,81 L58,82 L28,82 L28,73 L34,72 L34,68 L36,68 L33,46 L31,31 L27,20 L25,28 L23,42 L20,51 L19,70 L26,72 L26,84 L4,84 L3,83 L3,71 L9,70 L10,63 L10,46 L8,42 L8,27 L3,12 L1,11 Z M4,2 L4,11 L5,11 L6,4 Z " fill="#70CEFC" transform="translate(525,78)"/>
<path d="M0,0 L2,3 L6,18 L7,27 L7,37 L5,44 L2,44 L2,51 L20,51 L20,44 L17,44 L16,42 L16,34 L19,12 L21,8 L25,24 L27,36 L27,42 L25,44 L22,44 L22,51 L32,51 L42,53 L48,54 L47,56 L22,57 L22,71 L20,73 L19,71 L18,59 L9,59 L7,62 L5,81 L5,89 L11,91 L11,92 L-4,91 L-11,89 L-23,88 L-30,86 L-31,78 L-32,54 L-32,34 L-30,36 L-31,50 L0,50 L0,44 L-6,44 L-6,34 L-3,16 Z " fill="#40A3FB" transform="translate(122,109)"/>
<path d="M0,0 L3,3 L1,6 L6,9 L10,7 L14,8 L15,19 L11,30 L10,43 L7,44 L6,49 L6,51 L5,56 L0,57 L-4,50 L-6,46 L-4,46 L-6,41 L-7,28 L-10,20 L-11,15 L-16,30 L-16,32 L-16,41 L-18,44 L-17,48 L-18,63 L-20,70 L-18,70 L-17,74 L-12,74 L-12,86 L-37,86 L-37,76 L-31,75 L-29,61 L-31,55 L-30,47 L-31,45 L-32,35 L-37,18 L-39,10 L-39,6 L-37,6 L-37,13 L-31,10 L-19,10 L-17,6 L-10,5 L-7,1 Z " fill="#78D4FE" transform="translate(511,74)"/>
<path d="M0,0 L84,0 L84,20 L83,28 L74,28 L66,27 L62,27 L60,26 L45,26 L40,25 L33,26 L31,25 L15,27 L2,27 L0,26 Z " fill="#268EF1" transform="translate(0,166)"/>
<path d="M0,0 L210,0 L215,2 L228,2 L229,4 L224,5 L238,6 L238,7 L244,8 L244,9 L165,9 L165,25 L170,25 L170,30 L150,30 L150,25 L155,25 L155,9 L77,9 L77,24 L81,25 L76,25 L76,7 L154,7 L154,5 L151,6 L63,6 L65,8 L-16,8 L-15,6 L-2,4 L6,3 L7,2 L0,1 Z " fill="#C3AFFE" transform="translate(90,213)"/>
<path d="M0,0 L81,0 L95,1 L95,2 L77,3 L79,8 L78,12 L72,19 L65,19 L65,21 L63,21 L63,24 L50,26 L49,27 L33,28 L30,24 L22,24 L18,22 L18,25 L12,25 L6,23 L1,22 L-1,21 L-1,19 L-6,18 L-11,13 L-11,8 L-8,8 L-12,4 L-16,3 L-30,2 L-30,1 Z " fill="#8CD8FE" transform="translate(217,159)"/>
<path d="M0,0 L6,2 L16,2 L28,1 L35,2 L36,0 L39,1 L40,2 L44,2 L44,4 L41,6 L41,10 L41,11 L44,10 L42,14 L37,19 L41,18 L39,22 L39,24 L42,23 L40,27 L36,32 L40,33 L38,37 L39,38 L39,44 L41,44 L39,48 L34,55 L37,54 L35,60 L30,60 L28,58 L29,54 L26,39 L25,28 L21,13 L18,29 L16,33 L16,41 L13,61 L12,67 L20,68 L20,80 L-3,80 L-3,68 L2,67 L5,65 L5,63 L7,63 L5,56 L4,42 L3,38 L2,31 L2,27 L0,20 L-3,5 L-3,1 Z " fill="#74D2FD" transform="translate(32,82)"/>
<path d="M0,0 L4,1 L2,5 L-3,12 L1,11 L-1,16 L-2,18 L-1,21 L-3,24 L2,22 L-1,27 L-5,31 L-1,31 L-3,36 L-5,39 L-1,38 L-3,42 L-6,44 L-2,45 L0,45 L-2,49 L-6,55 L-3,55 L-6,60 L-3,60 L-3,62 L-1,63 L3,62 L3,65 L6,62 L9,63 L11,62 L12,64 L12,77 L-21,77 L-21,72 L-19,70 L-16,70 L-16,59 L-18,44 L-20,37 L-22,25 L-27,59 L-27,71 L-23,71 L-23,78 L-40,78 L-40,72 L-35,70 L-37,54 L-39,49 L-40,33 L-42,33 L-43,37 L-44,31 L-50,32 L-50,30 L-42,27 L-37,23 L-28,22 L-23,19 L-18,17 L-10,14 L-10,7 L-9,5 L-7,5 L-6,9 L-2,5 L-1,3 L-3,3 L-2,1 Z " fill="#78D2FD" transform="translate(399,82)"/>
<path d="M0,0 L68,0 L68,16 L63,16 L63,21 L61,21 L62,24 L72,25 L70,27 L65,27 L59,29 L62,31 L0,31 Z " fill="#206BD3" transform="translate(0,221)"/>
<path d="M0,0 L29,0 L31,4 L31,1 L84,0 L84,25 L82,22 L76,22 L75,24 L62,24 L62,22 L57,22 L56,20 L54,25 L35,25 L30,24 L26,25 L26,23 L20,25 L15,26 L2,26 L1,25 L0,16 Z " fill="#2B95F6" transform="translate(916,166)"/>
<path d="M0,0 L3,0 L4,2 L7,2 L9,0 L11,2 L15,1 L19,1 L21,7 L23,7 L24,4 L27,6 L27,8 L29,8 L30,5 L34,7 L36,11 L43,10 L46,14 L50,13 L54,18 L57,15 L61,21 L66,20 L68,23 L73,22 L77,29 L79,31 L76,34 L69,35 L66,36 L63,36 L63,34 L54,36 L50,35 L46,38 L42,37 L42,34 L45,34 L45,31 L50,30 L40,29 L40,25 L37,25 L36,27 L35,28 L35,36 L34,36 L33,29 L30,30 L30,28 L25,31 L20,27 L22,23 L20,22 L10,21 L9,19 L4,18 L-1,16 L0,19 L-3,19 L-3,17 L-6,19 L-10,19 L-11,21 L-12,19 L-19,20 L-30,23 L-35,24 L-37,24 L-47,27 L-51,31 L-62,31 L-70,20 L-66,19 L-62,21 L-60,21 L-60,26 L-61,24 L-63,25 L-61,28 L-58,27 L-54,21 L-49,22 L-45,18 L-42,20 L-38,15 L-37,18 L-33,16 L-32,13 L-28,14 L-23,9 L-21,11 L-18,11 L-15,5 L-9,7 L-8,5 L-4,6 Z M38,27 L40,30 L39,36 L38,36 Z " fill="#84DBFE" transform="translate(491,53)"/>
<path d="M0,0 L6,1 L4,6 L0,12 L3,11 L1,16 L2,17 L1,21 L0,23 L5,21 L2,26 L0,29 L3,29 L1,34 L-3,39 L2,38 L-3,43 L2,44 L2,47 L-3,54 L-1,54 L-2,58 L-5,60 L0,59 L0,61 L1,63 L6,61 L6,64 L9,61 L12,63 L14,61 L15,63 L15,76 L14,77 L-18,77 L-18,71 L-16,68 L-14,68 L-14,66 L-12,66 L-15,43 L-18,28 L-21,37 L-22,42 L-24,64 L-25,68 L-19,69 L-19,77 L-37,77 L-37,69 L-34,69 L-34,59 L-37,39 L-39,36 L-39,31 L-36,30 L-36,34 L-25,30 L-21,29 L-22,21 L-20,19 L-18,20 L-18,17 L-15,16 L-14,13 L-8,11 L-6,4 L-4,4 L-3,8 L-1,8 L-3,3 L-1,3 Z " fill="#8FDDFB" transform="translate(895,83)"/>
<path d="M0,0 L2,0 L1,5 L-2,14 L-4,13 L-7,15 L-17,16 L-17,18 L-26,20 L-26,22 L-35,24 L-40,26 L-48,27 L-48,29 L-59,29 L-59,31 L-65,32 L-67,34 L-73,35 L-74,37 L-87,41 L-91,40 L-95,43 L-100,43 L-101,43 L-127,43 L-131,37 L-144,29 L-159,26 L-163,25 L-165,25 L-167,21 L-178,15 L-178,13 L-180,13 L-180,15 L-189,13 L-189,11 L-194,12 L-200,10 L-204,9 L-205,3 L-208,2 L-202,3 L-189,6 L-184,8 L-180,7 L-177,5 L-176,7 L-166,10 L-166,12 L-154,15 L-148,18 L-148,20 L-143,19 L-138,20 L-133,22 L-127,26 L-125,30 L-117,32 L-117,34 L-91,34 L-87,32 L-78,31 L-76,29 L-71,27 L-68,27 L-66,27 L-65,24 L-59,22 L-51,19 L-45,17 L-33,13 L-27,13 L-27,11 L-19,10 L-17,11 L-17,9 L-7,6 L-4,6 L-4,3 L-1,3 Z " fill="#78D3FE" transform="translate(357,115)"/>
<path d="M0,0 L1,0 L2,9 L16,9 L26,7 L26,9 L30,7 L35,8 L54,9 L55,2 L57,6 L62,6 L62,8 L72,7 L75,8 L76,5 L82,6 L82,1 L83,1 L84,9 L84,24 L-47,24 L-50,22 L-40,18 L-34,16 L-16,15 L-16,13 L-9,12 L-7,8 L-7,12 L-1,12 Z " fill="#1463C8" transform="translate(916,182)"/>
<path d="M0,0 L1,0 L1,12 L8,12 L8,1 L9,1 L9,9 L23,11 L29,11 L35,13 L50,15 L54,16 L55,20 L-83,20 L-83,6 L-68,6 L-51,4 L-46,5 L-42,4 L-38,5 L-23,5 L-20,6 L-17,5 L-17,7 L-13,6 L0,8 Z " fill="#1463C9" transform="translate(83,186)"/>
<path d="M0,0 L32,0 L32,1 L16,2 L23,5 L24,8 L21,8 L23,15 L31,19 L31,21 L43,23 L50,25 L50,22 L53,21 L55,23 L62,23 L66,27 L81,26 L82,25 L95,24 L95,21 L97,21 L97,19 L104,18 L110,11 L109,3 L113,1 L113,0 L128,0 L154,1 L153,3 L144,4 L122,4 L123,7 L117,11 L113,17 L117,18 L114,19 L113,24 L110,29 L105,30 L100,33 L89,33 L85,35 L84,37 L62,38 L59,39 L48,36 L35,35 L32,33 L30,29 L21,30 L17,23 L13,21 L15,17 L13,17 L13,9 L15,9 L12,5 L7,8 L-1,14 L0,8 L5,6 L3,4 L-4,3 L-20,3 L-20,1 Z " fill="#82D0FE" transform="translate(185,159)"/>
<path d="M0,0 L76,0 L76,16 L71,16 L71,21 L10,21 L8,24 L-16,24 L-18,22 L5,22 L5,17 L0,17 Z " fill="#1055BD" transform="translate(844,221)"/>
<path d="M0,0 L19,3 L19,6 L22,5 L29,7 L29,10 L31,10 L32,7 L40,11 L51,15 L51,17 L60,18 L77,26 L80,27 L81,30 L86,31 L96,35 L101,36 L121,35 L127,31 L131,31 L145,29 L151,24 L155,23 L157,19 L163,18 L167,19 L168,17 L171,17 L184,14 L190,12 L195,11 L207,7 L211,7 L210,12 L209,10 L201,11 L200,14 L194,16 L181,19 L177,19 L177,21 L170,22 L162,25 L152,29 L150,31 L137,35 L130,38 L127,38 L127,40 L120,40 L119,42 L115,41 L115,45 L82,45 L82,43 L73,38 L69,36 L71,36 L70,30 L62,30 L52,26 L52,23 L47,24 L42,23 L42,21 L33,17 L31,16 L24,15 L16,14 L7,10 L3,5 L0,7 L-1,6 L-1,1 Z M168,15 Z " fill="#79D3FE" transform="translate(645,113)"/>
<path d="M0,0 L76,0 L76,16 L72,16 L72,21 L91,21 L91,22 L68,22 L66,21 L66,19 L9,20 L5,22 L-16,22 L-16,21 L4,21 L4,15 L0,15 Z " fill="#0C48B1" transform="translate(579,222)"/>
<path d="M0,0 L76,0 L76,16 L71,16 L72,21 L92,22 L92,23 L71,23 L66,20 L66,18 L30,19 L13,20 L10,23 L-14,23 L-14,22 L5,22 L5,16 L0,16 Z " fill="#1459C5" transform="translate(345,221)"/>
<path d="M0,0 L67,0 L72,1 L72,2 L56,4 L54,5 L52,4 L52,9 L47,15 L40,17 L36,18 L28,19 L19,19 L18,23 L6,22 L7,26 L6,28 L1,27 L2,23 L-3,23 L-5,24 L-10,22 L-12,18 L-17,17 L-16,14 L-17,9 L-14,5 L-19,3 L-32,2 L-32,1 Z " fill="#8FDAFE" transform="translate(726,159)"/>
<path d="M0,0 L69,0 L69,31 L68,29 L-352,29 L-352,28 L-331,28 L-331,26 L-319,27 L-265,27 L-259,26 L-259,28 L-251,27 L-207,27 L-200,26 L-192,26 L-178,27 L-162,25 L-147,24 L-127,24 L-122,25 L-112,25 L-109,27 L-109,25 L-81,26 L-77,25 L-46,25 L-40,24 L-22,24 L-16,25 L2,25 L19,24 L56,24 L65,25 L68,27 L68,1 L0,1 Z " fill="#1E6CD7" transform="translate(931,221)"/>
<path d="M0,0 L1,2 L5,1 L5,3 L13,3 L16,4 L16,6 L22,6 L23,9 L34,9 L34,11 L38,12 L43,13 L45,12 L45,14 L55,16 L58,17 L61,20 L66,21 L67,23 L71,25 L70,28 L72,30 L23,31 L8,32 L-2,31 L-2,24 L2,22 L1,9 Z " fill="#5FC1FE" transform="translate(645,129)"/>
<path d="M0,0 L11,1 L10,3 L-11,4 L-15,5 L-13,7 L-15,23 L-18,26 L-19,25 L-21,6 L-27,5 L-27,7 L-31,9 L-34,36 L-27,38 L-27,39 L-38,39 L-47,36 L-47,34 L-54,35 L-68,32 L-68,4 L-55,3 L0,2 Z " fill="#3EA4FD" transform="translate(659,162)"/>
<path d="M0,0 L76,0 L76,15 L71,15 L69,13 L69,15 L71,16 L70,20 L68,17 L10,18 L6,22 L-16,22 L-16,21 L4,21 L4,15 L0,15 Z " fill="#175ECD" transform="translate(80,222)"/>
<path d="M0,0 L470,0 L470,9 L401,9 L401,25 L406,25 L406,30 L386,30 L386,25 L390,25 L390,9 L370,9 L374,6 L379,5 L400,7 L403,6 L460,6 L460,7 L469,8 L467,6 L451,5 L452,1 L78,2 L75,4 L65,3 L46,3 L46,5 L41,6 L32,7 L8,5 L3,4 L4,2 Z " fill="#C8B4FE" transform="translate(530,212)"/>
<path d="M0,0 L68,0 L68,22 L67,20 L64,20 L64,18 L9,19 L9,21 L7,22 L-15,22 L-15,21 L5,21 L5,15 L0,15 Z " fill="#0E4AB2" transform="translate(931,222)"/>
<path d="M0,0 L135,0 L134,2 L134,10 L2,10 L2,2 Z " fill="#1D5AC6" transform="translate(432,221)"/>
<path d="M0,0 L3,1 L4,4 L10,2 L12,1 L12,7 L10,7 L9,9 L9,7 L6,7 L5,11 L2,20 L3,21 L3,28 L-1,38 L-3,37 L-4,40 L-2,40 L-2,51 L1,51 L2,49 L5,54 L10,56 L11,58 L14,51 L18,50 L15,48 L15,43 L22,40 L24,37 L29,36 L33,41 L27,42 L34,50 L33,52 L33,55 L34,57 L30,56 L32,62 L24,60 L23,62 L22,59 L19,59 L18,61 L16,58 L16,111 L9,112 L9,60 L7,60 L3,60 L2,62 L-1,61 L-2,61 L-7,60 L-8,58 L-10,57 L-7,54 L-7,51 L-9,50 L-4,42 L-8,43 L-9,40 L-7,37 L-9,36 L-2,28 L-7,28 L-2,20 L-6,21 L-3,15 L-6,15 L-1,9 L-3,9 L-5,8 L-2,7 Z " fill="#0D4AA3" transform="translate(574,86)"/>
<path d="M0,0 L1,0 L2,12 L9,26 L11,29 L8,29 L7,32 L11,38 L10,40 L7,38 L14,49 L16,52 L12,50 L9,50 L16,60 L18,61 L17,63 L12,61 L10,61 L11,68 L8,69 L9,73 L9,79 L11,89 L10,92 L7,89 L5,89 L3,83 L2,81 L3,72 L4,69 L0,59 L-3,62 L-7,70 L-9,71 L-10,65 L-12,65 L-10,60 L-16,61 L-14,57 L-10,50 L-16,52 L-9,40 L-12,39 L-7,32 L-8,29 L-10,28 L-3,14 L-1,1 Z " fill="#0E469A" transform="translate(413,23)"/>
<path d="M0,0 L1,0 L4,19 L5,21 L7,36 L7,45 L6,47 L2,49 L1,54 L33,54 L33,61 L11,61 L-47,60 L-47,58 L-29,55 L-20,55 L-20,48 L-24,48 L-24,36 L-21,18 L-19,14 L-17,18 L-15,30 L-14,31 L-12,47 L-15,49 L-18,49 L-18,55 L-1,55 L-1,48 L-5,48 L-6,46 L-6,36 L-3,14 L-1,2 Z " fill="#2589EC" transform="translate(377,105)"/>
<path d="M0,0 L3,1 L6,6 L9,6 L9,9 L11,9 L10,13 L9,11 L10,17 L11,21 L15,23 L19,27 L14,27 L19,35 L14,34 L16,37 L16,41 L13,41 L13,43 L11,43 L11,46 L9,47 L11,50 L11,53 L5,52 L4,51 L4,54 L1,55 L-3,59 L-3,56 L-9,54 L-10,48 L-13,48 L-13,40 L-11,40 L-11,38 L-14,37 L-12,30 L-11,27 L-9,27 L-9,25 L-11,25 L-12,18 L-10,14 L-8,10 L-7,8 L-4,9 L-2,13 L1,14 L3,17 L4,11 L0,12 L-1,10 L-1,2 Z M-6,13 L-5,15 L-4,13 Z " fill="#0C469D" transform="translate(88,86)"/>
<path d="M0,0 L2,3 L5,14 L7,27 L8,35 L9,38 L8,43 L2,44 L2,51 L20,51 L20,43 L16,42 L17,22 L20,6 L22,7 L27,35 L27,42 L25,44 L22,44 L22,51 L32,51 L38,53 L38,55 L25,56 L-30,57 L-30,77 L-31,77 L-32,54 L-32,38 L-31,38 L-31,50 L0,50 L0,44 L-6,44 L-6,34 L-3,16 L-2,15 Z " fill="#2483E7" transform="translate(621,109)"/>
<path d="M0,0 L1,4 L-1,23 L3,23 L3,30 L-16,32 L-16,31 L-61,29 L-59,28 L-58,23 L-56,21 L-40,15 L-33,12 L-32,12 L-27,13 L-23,9 L-19,7 L-13,7 L-12,4 L-11,6 L-6,4 L0,3 Z M-28,10 Z M-29,11 Z " fill="#5CBFFE" transform="translate(354,130)"/>
<path d="M0,0 L2,3 L6,18 L7,27 L7,37 L5,44 L2,44 L2,51 L20,51 L20,44 L17,44 L16,42 L16,34 L19,12 L21,8 L25,24 L27,36 L27,42 L25,44 L22,44 L22,51 L32,51 L42,53 L48,54 L47,56 L-31,56 L-32,54 L-32,34 L-30,36 L-31,50 L0,50 L0,44 L-6,44 L-6,34 L-3,16 Z " fill="#2487EA" transform="translate(122,109)"/>
<path d="M0,0 L4,0 L3,19 L3,23 L6,23 L6,30 L-8,31 L-22,30 L-61,29 L-61,28 L-55,27 L-53,23 L-45,18 L-41,18 L-41,16 L-32,13 L-21,10 L-12,6 L-4,4 Z " fill="#5FC1FE" transform="translate(850,130)"/>
<path d="M0,0 L5,5 L2,5 L4,9 L9,15 L3,14 L6,18 L6,20 L4,21 L6,24 L6,27 L4,28 L10,36 L7,37 L9,42 L7,42 L8,46 L-1,47 L-8,45 L-9,46 L-9,93 L-13,94 L-16,93 L-16,45 L-19,46 L-22,44 L-25,47 L-25,44 L-29,45 L-32,45 L-32,42 L-36,43 L-32,39 L-31,36 L-34,37 L-32,33 L-28,28 L-24,27 L-24,32 L-21,32 L-20,37 L-11,36 L-5,35 L-5,38 L-3,37 L-3,33 L-5,32 L-4,28 L-2,28 L-3,24 L-1,22 L0,15 L-2,12 L-2,1 Z " fill="#0D4BA5" transform="translate(925,101)"/>
<path d="M0,0 L2,0 L3,3 L5,4 L6,2 L7,7 L1,10 L-4,12 L-8,14 L-16,17 L-21,17 L-27,22 L-34,23 L-34,25 L-46,28 L-49,30 L-58,32 L-67,32 L-67,34 L-76,38 L-83,41 L-94,44 L-107,49 L-122,53 L-123,54 L-134,55 L-141,53 L-152,50 L-154,48 L-160,46 L-161,44 L-157,43 L-156,45 L-148,46 L-148,48 L-145,47 L-132,49 L-130,50 L-130,48 L-120,47 L-118,46 L-115,47 L-115,45 L-111,46 L-111,44 L-108,44 L-108,42 L-101,41 L-100,39 L-96,40 L-96,38 L-91,37 L-87,35 L-84,37 L-83,34 L-79,34 L-78,31 L-74,32 L-74,29 L-69,30 L-67,26 L-65,26 L-65,28 L-63,28 L-62,24 L-57,26 L-55,22 L-52,23 L-50,19 L-48,19 L-48,22 L-44,18 L-39,18 L-36,14 L-30,16 L-29,13 L-24,14 L-21,8 L-19,8 L-18,10 L-15,9 L-13,5 L-9,7 L-7,8 L-6,4 L-4,4 L-4,6 L-2,6 Z " fill="#92E1FE" transform="translate(383,89)"/>
<path d="M0,0 L2,2 L5,17 L7,32 L7,40 L5,40 L5,42 L3,42 L1,51 L33,51 L33,57 L10,57 L-23,56 L-41,55 L-40,53 L-29,51 L-20,51 L-20,44 L-23,44 L-24,40 L-23,23 L-19,8 L-18,8 L-14,33 L-14,41 L-15,43 L-18,43 L-18,51 L0,51 L0,43 L-6,42 L-4,16 Z " fill="#268CF0" transform="translate(876,109)"/>
<path d="M0,0 L1,0 L1,6 L4,6 L4,15 L6,15 L4,20 L2,27 L4,28 L4,30 L2,30 L2,38 L5,38 L6,44 L12,45 L13,48 L17,43 L18,40 L20,40 L20,42 L24,41 L24,43 L26,43 L23,36 L26,36 L26,33 L28,33 L28,31 L31,31 L32,27 L35,31 L33,31 L33,33 L30,33 L36,41 L34,42 L37,48 L33,47 L33,51 L27,51 L24,51 L24,49 L21,49 L20,51 L18,48 L18,102 L11,102 L11,50 L9,50 L6,50 L2,51 L0,51 L-4,50 L-6,51 L-5,47 L-7,46 L-6,42 L-8,41 L0,30 L-2,30 L-2,24 L-4,23 L-1,19 L-6,19 L-2,13 L1,9 L-4,11 L-1,5 L-6,7 Z " fill="#0E4DA6" transform="translate(73,96)"/>
<path d="M0,0 L3,0 L4,2 L7,2 L9,0 L11,2 L15,1 L19,1 L21,7 L23,7 L24,4 L27,6 L27,8 L29,8 L30,5 L34,7 L35,10 L33,13 L33,11 L26,12 L24,11 L12,11 L9,9 L8,19 L-1,16 L0,19 L-3,19 L-3,17 L-6,19 L-10,19 L-11,21 L-12,19 L-19,20 L-30,23 L-35,24 L-37,24 L-47,27 L-51,31 L-62,31 L-70,20 L-66,19 L-62,21 L-60,21 L-60,26 L-61,24 L-63,25 L-61,28 L-58,27 L-54,21 L-49,22 L-45,18 L-42,20 L-38,15 L-37,18 L-33,16 L-32,13 L-28,14 L-23,9 L-21,11 L-18,11 L-15,5 L-9,7 L-8,5 L-4,6 Z " fill="#94E2FD" transform="translate(491,53)"/>
<path d="M0,0 L94,0 L94,1 L77,4 L70,15 L65,16 L57,16 L53,18 L51,18 L46,19 L45,18 L35,18 L28,12 L26,7 L22,6 L20,7 L20,5 L17,5 L17,3 L0,1 Z M24,2 L25,5 L27,5 L26,2 Z " fill="#97DFFE" transform="translate(203,160)"/>
<path d="M0,0 L2,1 L-4,8 L0,8 L-2,13 L-6,18 L-1,17 L-6,22 L-1,23 L-1,26 L-6,33 L-4,33 L-5,37 L-8,39 L-3,38 L-3,40 L-2,42 L3,40 L3,43 L6,40 L9,42 L11,40 L12,42 L12,55 L11,56 L-21,56 L-21,50 L-19,47 L-17,47 L-17,45 L-15,45 L-18,22 L-19,16 L-18,13 L-9,12 L-8,9 L-6,9 L-6,3 L-2,1 Z " fill="#47ADFC" transform="translate(898,104)"/>
<path d="M0,0 L3,3 L7,2 L9,1 L9,28 L8,28 L7,20 L5,19 L5,17 L-2,20 L-7,19 L-9,23 L-14,25 L-20,25 L-28,28 L-38,29 L-51,31 L-59,33 L-60,29 L-55,22 L-50,23 L-46,19 L-43,21 L-40,16 L-38,16 L-38,19 L-34,17 L-33,14 L-29,15 L-25,10 L-23,10 L-23,12 L-18,11 L-15,6 L-10,8 L-9,6 L-4,8 L-2,3 Z " fill="#93E2FE" transform="translate(991,52)"/>
<path d="M0,0 L67,0 L67,16 L62,16 L62,21 L58,19 L5,19 L0,21 L0,8 L65,7 L65,2 L0,2 Z " fill="#0B49AF" transform="translate(1,221)"/>
<path d="M0,0 L2,1 L1,7 L-3,42 L-5,47 L-4,55 L-3,57 L3,58 L3,66 L-19,66 L-19,58 L-13,58 L-12,55 L-10,55 L-11,48 L-14,38 L-15,37 L-16,28 L-17,17 L-19,11 L-19,7 L-7,5 L-2,2 Z " fill="#6ECDFD" transform="translate(967,93)"/>
<path d="M0,0 L11,0 L11,1 L4,2 L-5,6 L-7,12 L-8,19 L-4,20 L-6,24 L-4,26 L-4,29 L-2,29 L2,33 L7,33 L9,35 L18,35 L19,36 L34,37 L144,37 L166,36 L183,34 L183,32 L187,31 L191,23 L191,15 L189,8 L187,6 L184,5 L183,1 L191,2 L193,14 L195,14 L196,38 L190,39 L6,39 L-13,38 L-14,35 L-12,35 L-12,22 L-11,8 L-8,1 Z " fill="#60B7FE" transform="translate(658,165)"/>
<path d="M0,0 L3,2 L7,1 L10,0 L13,6 L15,7 L16,4 L19,6 L19,8 L22,5 L25,6 L28,11 L34,10 L38,14 L42,13 L46,18 L49,15 L53,21 L57,20 L59,22 L65,22 L68,27 L68,33 L67,31 L56,31 L54,28 L57,27 L57,25 L51,25 L49,24 L46,25 L40,23 L29,23 L24,22 L17,22 L14,22 L3,22 L1,21 L1,28 L0,28 Z " fill="#89DDFE" transform="translate(0,53)"/>
<path d="M0,0 L5,0 L1,1 L1,3 L13,3 L20,4 L25,13 L27,41 L21,42 L-182,42 L-187,40 L-186,35 L-184,28 L-182,12 L-180,12 L-179,5 L-178,4 L-164,3 L-167,6 L-175,12 L-174,14 L-177,18 L-179,18 L-179,26 L-177,26 L-174,31 L-169,35 L-164,37 L-157,39 L-139,40 L8,40 L21,38 L22,34 L22,26 L20,19 L20,11 L16,9 L16,7 L11,5 L-6,3 L-5,1 Z " fill="#5DB7FE" transform="translate(329,162)"/>
<path d="M0,0 L2,0 L3,3 L5,5 L2,7 L-1,7 L-1,9 L-8,10 L-20,17 L-30,20 L-34,23 L-39,23 L-41,25 L-47,27 L-48,29 L-55,31 L-62,32 L-75,38 L-88,42 L-103,46 L-107,49 L-119,52 L-127,53 L-142,53 L-146,51 L-146,49 L-151,48 L-150,46 L-141,48 L-130,49 L-123,47 L-115,46 L-113,45 L-111,46 L-111,44 L-108,44 L-108,42 L-101,41 L-100,39 L-94,38 L-92,39 L-92,37 L-88,38 L-88,35 L-79,34 L-78,30 L-76,30 L-76,32 L-74,32 L-73,29 L-69,30 L-67,26 L-65,26 L-65,28 L-63,28 L-62,24 L-57,26 L-55,22 L-52,23 L-50,19 L-48,19 L-48,22 L-44,18 L-38,19 L-36,14 L-30,16 L-29,13 L-23,13 L-21,8 L-18,9 L-18,11 L-13,6 L-10,6 L-7,8 L-6,4 L-4,4 L-4,6 L-2,6 Z " fill="#94E2FE" transform="translate(882,89)"/>
<path d="M0,0 L91,0 L91,2 L13,2 L13,20 L18,20 L18,24 L-1,24 L-1,20 L3,20 L3,4 L-73,4 L-73,19 L-69,19 L-69,24 L-89,24 L-89,19 L-85,19 L-85,3 L-3,2 Z " fill="#A79AEE" transform="translate(153,218)"/>
<path d="M0,0 L21,0 L29,1 L30,4 L30,19 L29,24 L26,25 L22,24 L22,26 L18,26 L11,27 L1,27 L0,15 Z " fill="#45ABFE" transform="translate(417,166)"/>
<path d="M0,0 L2,4 L8,26 L8,35 L9,40 L7,60 L6,63 L1,64 L1,76 L0,76 L0,65 L-6,63 L-8,58 L-7,43 L-4,16 Z " fill="#1666CB" transform="translate(971,84)"/>
<path d="M0,0 L1,0 L1,14 L0,10 L-76,10 L-76,1 L-1,1 Z " fill="#1356C1" transform="translate(743,222)"/>
<path d="M0,0 L1,4 L0,9 L0,12 L0,22 L-2,35 L-3,37 L-1,37 L0,41 L5,41 L5,53 L-20,53 L-20,43 L-14,42 L-12,28 L-14,22 L-13,14 L-14,12 L-12,8 L-3,7 Z " fill="#389FFA" transform="translate(494,107)"/>
<path d="M0,0 L1,0 L1,6 L-1,10 L-2,31 L-3,39 L5,40 L5,53 L-21,53 L-21,41 L-14,39 L-15,35 L-14,15 L-14,12 L-14,10 L-9,12 L-7,11 L-6,13 L-3,14 L-4,7 L-1,2 Z " fill="#38A1FC" transform="translate(22,108)"/>
<path d="M0,0 L35,0 L57,1 L57,19 L56,29 L48,30 L48,32 L31,34 L24,36 L20,36 L20,34 L29,32 L43,31 L43,29 L48,27 L52,27 L51,19 L53,19 L52,13 L50,13 L48,8 L44,7 L31,7 L28,16 L27,27 L25,30 L21,29 L19,5 L16,2 L6,1 L6,4 L8,4 L8,15 L6,15 L6,21 L4,20 L2,13 L2,4 L3,1 Z " fill="#40A4FC" transform="translate(353,165)"/>
<path d="M0,0 L75,0 L75,9 L0,9 Z " fill="#175ECD" transform="translate(168,223)"/>
<path d="M0,0 L4,4 L4,2 L15,2 L13,6 L10,10 L10,13 L10,16 L14,15 L12,19 L9,24 L12,23 L10,29 L9,31 L12,33 L12,35 L17,33 L17,35 L19,36 L20,33 L26,32 L27,34 L27,47 L26,48 L-4,48 L-4,39 L2,38 L2,34 L4,34 L1,12 L0,7 Z " fill="#3BA3FA" transform="translate(557,112)"/>
<path d="M0,0 L1,0 L5,16 L6,22 L8,36 L8,38 L9,40 L8,59 L5,65 L1,65 L1,76 L0,76 L0,64 L-3,65 L-6,62 L-6,60 L-8,60 L-6,42 L-5,35 L-7,34 L-5,31 L-4,22 L-6,21 L-3,15 L-1,8 Z " fill="#1A6CCF" transform="translate(499,84)"/>
<path d="M0,0 L1,4 L-1,14 L-2,15 L-4,35 L-4,43 L2,44 L2,54 L-27,54 L-28,53 L-28,41 L-26,38 L-24,40 L-18,41 L-10,41 L-11,37 L-11,35 L-12,30 L-9,31 L-15,23 L-14,21 L-13,18 L-15,14 L-12,15 L-15,11 L-15,9 L-7,9 L-2,6 Z " fill="#40A7FB" transform="translate(943,106)"/>
<path d="M0,0 L2,1 L2,6 L0,9 L1,14 L0,28 L-2,30 L-3,36 L-1,36 L-1,38 L6,39 L7,41 L7,51 L-19,51 L-19,41 L-14,40 L-11,39 L-11,26 L-13,22 L-13,13 L-14,5 L-14,1 L-12,1 L-11,5 L-12,9 L-10,9 L-10,11 L-4,7 L0,3 Z " fill="#39A2FC" transform="translate(992,109)"/>
<path d="M0,0 L2,2 L0,3 L0,5 L2,6 L3,10 L8,11 L11,11 L12,18 L9,41 L15,41 L15,47 L-16,47 L-16,33 L-13,33 L-10,33 L-9,35 L-7,34 L-1,35 L-1,31 L2,31 L0,29 L1,25 L-5,16 L-1,17 L-1,13 L-5,10 L-5,8 L-1,8 L-5,3 L-5,1 Z " fill="#45ADFC" transform="translate(107,112)"/>
<path d="M0,0 L1,0 L0,10 L-3,19 L-4,38 L3,40 L3,52 L-19,52 L-20,51 L-20,39 L-14,38 L-13,31 L-13,14 L-15,10 L-15,2 L-11,4 L-8,6 L-4,5 L-2,6 Z " fill="#3BA5FD" transform="translate(548,110)"/>
<path d="M0,0 L4,1 L21,2 L77,4 L77,28 L76,33 L68,33 L68,35 L50,37 L44,39 L40,39 L40,37 L49,35 L50,34 L63,34 L63,31 L73,28 L73,16 L71,16 L71,13 L67,12 L59,10 L52,10 L50,17 L48,17 L47,30 L46,33 L43,33 L42,29 L42,4 L27,4 L27,19 L25,20 L23,15 L23,7 L24,4 L-4,3 L-4,1 Z " fill="#3FA4FC" transform="translate(832,162)"/>
<path d="M0,0 L5,0 L5,23 L4,26 L-5,26 L-10,25 L-12,26 L-12,24 L-17,25 L-18,22 L-23,20 L-25,11 L-25,4 L-12,2 L-11,1 Z " fill="#47ADFE" transform="translate(578,166)"/>
<path d="M0,0 L2,4 L5,15 L8,26 L7,35 L8,39 L8,62 L7,64 L1,64 L1,75 L0,75 L0,65 L-4,64 L-7,61 L-7,43 L-6,36 L-4,32 L-1,4 Z " fill="#105ABF" transform="translate(472,84)"/>
<path d="M0,0 L76,0 L76,8 L0,9 L-1,15 L-2,15 L-2,1 Z " fill="#1558C3" transform="translate(257,223)"/>
<path d="M0,0 L75,0 L74,2 L1,1 L1,10 L75,10 L76,15 L71,15 L69,13 L69,15 L71,16 L70,20 L68,17 L10,18 L6,22 L-16,22 L-16,21 L4,21 L4,15 L0,15 Z " fill="#0A45AF" transform="translate(80,222)"/>
<path d="M0,0 L76,0 L76,8 L0,8 Z " fill="#1358C4" transform="translate(756,223)"/>
<path d="M0,0 L1,0 L1,5 L-2,6 L-2,11 L18,12 L18,13 L-3,13 L-8,10 L-8,8 L-44,9 L-61,10 L-64,13 L-88,13 L-88,12 L-69,12 L-69,6 L-73,6 L-73,1 Z " fill="#0A47AC" transform="translate(419,231)"/>
<path d="M0,0 L2,0 L2,2 L15,3 L18,3 L21,2 L23,8 L20,18 L19,26 L18,30 L16,30 L15,35 L15,37 L14,42 L9,43 L5,36 L3,32 L5,32 L3,27 L2,14 L-1,6 Z " fill="#6ACCFD" transform="translate(502,88)"/>
<path d="M0,0 L1,2 L19,2 L28,3 L28,18 L26,24 L25,22 L19,24 L14,25 L1,25 L0,24 Z " fill="#47ADFE" transform="translate(917,167)"/>
<path d="M0,0 L1,0 L5,16 L6,27 L9,43 L7,43 L8,51 L6,51 L6,55 L1,56 L0,67 L-1,67 L-1,56 L-5,57 L-9,55 L-8,44 L-6,29 L-6,20 L-4,17 L-1,1 Z " fill="#125CC2" transform="translate(53,94)"/>
<path d="M0,0 L1,0 L6,18 L7,24 L7,55 L5,60 L2,60 L2,62 L-5,62 L-6,59 L-6,33 L-5,29 L-4,15 Z " fill="#1461C5" transform="translate(527,85)"/>
<path d="M0,0 L8,1 L6,5 L2,11 L5,11 L2,16 L5,16 L5,18 L7,19 L11,18 L11,21 L14,18 L17,19 L19,18 L20,20 L20,33 L-13,33 L-13,28 L-11,26 L-8,26 L-8,15 L-9,9 L-9,1 L-8,1 L-7,6 L-1,6 L0,4 L-1,1 Z " fill="#4AB0FB" transform="translate(391,126)"/>
<path d="M0,0 L1,0 L1,11 L100,10 L99,7 L92,5 L92,3 L106,5 L112,5 L118,7 L133,9 L137,10 L138,14 L0,14 Z " fill="#1669D0" transform="translate(0,192)"/>
<path d="M0,0 L73,0 L73,8 L1,8 L0,6 Z " fill="#1358C4" transform="translate(580,223)"/>
<path d="M0,0 L4,1 L4,6 L2,8 L-1,30 L-1,40 L2,40 L2,47 L-16,47 L-16,40 L-13,40 L-12,33 L-12,23 L-14,11 L-15,5 L-11,1 L-8,3 L-8,5 L-1,5 Z " fill="#6BCCFD" transform="translate(140,113)"/>
<path d="M0,0 L3,0 L4,6 L8,7 L8,4 L14,4 L13,14 L11,33 L10,36 L18,37 L18,49 L-5,49 L-5,37 L0,36 L3,34 L3,32 L5,32 L3,25 L2,11 L1,7 Z " fill="#36A0FB" transform="translate(34,113)"/>
<path d="M0,0 L1,0 L2,8 L2,23 L-129,23 L-132,21 L-122,17 L-116,15 L-108,15 L-111,17 L-121,18 L-121,20 L1,21 L1,10 L-6,10 L-10,11 L-12,10 L-25,10 L-25,8 L-28,10 L-64,10 L-68,11 L-81,11 L-80,8 L-66,8 L-56,6 L-56,8 L-52,6 L-47,7 L-28,8 L-27,1 L-25,5 L-20,5 L-20,7 L-10,6 L-7,7 L-6,4 L0,5 Z " fill="#1979E3" transform="translate(998,183)"/>
<path d="M0,0 L3,2 L8,2 L10,12 L12,12 L12,14 L15,14 L15,28 L-14,28 L-15,24 L-15,9 L-13,9 L-11,11 L2,11 L3,7 L0,2 Z " fill="#42A9FE" transform="translate(431,135)"/>
<path d="M0,0 L71,0 L71,1 L56,2 L53,3 L51,10 L49,11 L42,11 L37,16 L32,15 L32,13 L26,14 L23,16 L19,15 L14,13 L14,11 L12,11 L11,7 L14,4 L7,2 L0,1 Z " fill="#9AE0FE" transform="translate(718,160)"/>
<path d="M0,0 L1,0 L3,10 L5,15 L8,42 L6,42 L7,50 L5,50 L4,55 L-4,56 L-8,54 L-9,49 L-8,35 L-4,21 L-2,8 Z " fill="#196BD0" transform="translate(552,94)"/>
<path d="M0,0 L77,1 L77,2 L83,3 L83,4 L4,4 L4,20 L9,20 L9,25 L-11,25 L-11,20 L-6,20 L-6,4 L-84,4 L-84,19 L-80,20 L-85,20 L-85,3 L-6,3 L-6,1 Z " fill="#8A87E6" transform="translate(251,218)"/>
<path d="M0,0 L2,0 L2,12 L0,28 L3,31 L8,31 L8,42 L-17,42 L-17,32 L-14,32 L-12,25 L-11,7 L-6,12 L-2,11 L-1,7 L-4,6 L-1,3 Z " fill="#359EFA" transform="translate(518,118)"/>
<path d="M0,0 L49,0 L49,15 L44,15 L44,20 L42,17 L41,15 L-15,15 L-15,17 L-19,19 L-24,14 L-62,13 L-75,13 L-75,10 L48,10 L48,1 L0,1 Z " fill="#0A48B0" transform="translate(518,222)"/>
<path d="M0,0 Z M-5,1 L0,1 L2,6 L7,7 L11,8 L12,16 L11,19 L10,39 L13,40 L13,48 L-5,48 L-5,41 L1,40 L1,33 L0,32 L-2,14 L-5,5 Z " fill="#6ACBFD" transform="translate(628,112)"/>
<path d="M0,0 L66,0 L66,8 L0,8 Z " fill="#165CC9" transform="translate(933,223)"/>
<path d="M0,0 L130,0 L129,4 L0,4 Z " fill="#1860CF" transform="translate(434,224)"/>
<path d="M0,0 L10,0 L12,11 L13,24 L5,26 L-2,25 L-2,22 L-6,22 L-6,20 L-12,19 L-10,18 L-13,16 L-13,8 L-10,4 Z " fill="#55B3FE" transform="translate(108,171)"/>
<path d="M0,0 L26,0 L26,15 L25,19 L21,20 L20,22 L7,21 L6,16 L2,18 L0,13 Z " fill="#36A3FE" transform="translate(500,170)"/>
<path d="M0,0 L2,4 L6,20 L6,28 L7,35 L8,36 L9,46 L9,50 L7,55 L1,54 L1,67 L0,67 L-1,54 L-5,48 L-5,25 L-1,4 Z " fill="#196CD2" transform="translate(946,95)"/>
<path d="M0,0 L3,1 L3,3 L1,3 L1,8 L4,13 L6,14 L7,10 L8,11 L10,9 L8,27 L14,27 L14,33 L-17,33 L-18,17 L-15,20 L-11,19 L-10,21 L-9,20 L-3,20 L-3,18 L-3,16 L0,16 L-2,12 L0,10 L-7,2 L-5,1 Z " fill="#49AFFA" transform="translate(607,126)"/>
<path d="M0,0 L24,2 L27,1 L84,1 L84,2 L94,3 L94,4 L25,4 L25,20 L30,20 L30,25 L10,25 L10,20 L14,20 L14,4 L-6,4 L-2,1 Z " fill="#C2ACFB" transform="translate(906,217)"/>
<path d="M0,0 L1,3 L6,3 L2,4 L2,8 L21,8 L21,9 L1,10 L-8,8 L-54,8 L-63,10 L-64,11 L-92,11 L-99,8 L-140,8 L-150,9 L-155,12 L-179,12 L-187,9 L-237,9 L-239,11 L-267,11 L-273,7 L-271,6 L-266,8 L-266,3 L-265,3 L-265,8 L-245,8 L-244,9 L-240,7 L-183,7 L-183,9 L-177,9 L-177,8 L-158,8 L-158,4 L-162,3 L-157,3 L-156,6 L-152,5 L-153,8 L-151,6 L-96,6 L-91,8 L-91,10 L-65,10 L-64,6 L-6,5 L-6,4 L-1,4 L0,4 Z " fill="#2B68CA" transform="translate(828,234)"/>
<path d="M0,0 L4,2 L2,10 L1,13 L-1,38 L-4,45 L-5,47 L-8,47 L-9,36 L-11,26 L-13,24 L-14,15 L-16,5 L-14,5 L-13,3 L-9,4 Z " fill="#68C9FD" transform="translate(465,96)"/>
<path d="M0,0 L13,0 L18,2 L19,7 L21,7 L22,13 L21,14 L21,21 L14,23 L5,22 L4,24 L-1,22 L-2,21 L-2,6 Z " fill="#56B5FE" transform="translate(384,171)"/>
<path d="M0,0 L1,3 L9,4 L12,8 L12,10 L17,9 L17,13 L22,15 L25,19 L26,20 L30,20 L30,24 L39,24 L39,25 L7,27 L-3,26 L-3,19 L1,17 Z " fill="#54B9FE" transform="translate(646,134)"/>
<path d="M0,0 L11,0 L11,23 L2,23 L2,21 L-2,20 L-7,17 L-7,15 L-9,15 L-10,10 L-15,8 L-17,6 L-17,2 L-14,1 Z " fill="#3FA8FE" transform="translate(72,169)"/>
<path d="M0,0 L1,0 L4,15 L5,17 L7,45 L4,53 L-1,54 L-3,51 L-5,52 L-6,42 L-6,27 L-4,15 L-1,1 Z " fill="#1767CC" transform="translate(447,94)"/>
<path d="M0,0 L9,1 L17,4 L17,7 L19,7 L20,11 L20,19 L14,22 L1,23 L-4,21 L-4,5 L-2,1 Z " fill="#56B5FE" transform="translate(886,171)"/>
<path d="M0,0 L77,0 L76,2 L1,1 L1,10 L77,10 L78,16 L73,16 L73,21 L71,18 L71,16 L67,15 L14,15 L9,17 L6,18 L5,21 L5,15 L0,15 Z " fill="#0947B0" transform="translate(666,222)"/>
<path d="M0,0 L1,0 L2,11 L8,12 L9,16 L7,17 L-53,16 L-57,15 L-62,15 L-62,13 L-60,13 L-60,10 L-57,9 L-30,9 L-27,9 L-8,9 L-8,3 L-7,3 L-7,12 L0,11 Z " fill="#1361C5" transform="translate(590,186)"/>
<path d="M0,0 L1,0 L2,12 L9,26 L11,29 L8,29 L7,32 L11,38 L10,40 L7,38 L10,44 L7,43 L2,38 L-1,42 L-6,43 L-8,49 L-13,51 L-16,51 L-9,40 L-12,39 L-7,32 L-8,29 L-10,28 L-3,14 L-1,1 Z " fill="#13499B" transform="translate(413,23)"/>
<path d="M0,0 L2,4 L4,16 L5,17 L7,33 L4,35 L1,35 L1,41 L18,41 L16,43 L12,45 L12,46 L-28,46 L-28,44 L-10,41 L-1,41 L-1,34 L-5,34 L-5,22 L-2,4 Z " fill="#2F95F6" transform="translate(358,119)"/>
<path d="M0,0 L6,1 L10,0 L10,4 L7,6 L9,7 L14,6 L19,6 L20,8 L16,10 L15,12 L23,12 L24,6 L27,7 L27,17 L25,17 L21,30 L15,34 L10,31 L4,23 L8,24 L4,19 L5,17 L8,18 L3,13 L3,11 L6,11 L2,7 L1,3 Z " fill="#6BC9FA" transform="translate(921,82)"/>
<path d="M0,0 L2,4 L5,19 L6,25 L5,30 L5,45 L4,59 L1,61 L-3,61 L-5,53 L-5,32 L-2,9 Z " fill="#125CC1" transform="translate(28,83)"/>
<path d="M0,0 L72,0 L72,6 L0,6 Z " fill="#175DCC" transform="translate(846,223)"/>
<path d="M0,0 L9,0 L10,5 L10,24 L4,25 L4,23 L-2,22 L-13,19 L-13,14 L-13,10 L-10,7 L-7,6 L-5,2 Z " fill="#56B5FE" transform="translate(608,171)"/>
<path d="M0,0 L25,0 L25,11 L19,18 L16,21 L13,21 L11,21 L11,19 L5,19 L1,15 L0,11 Z " fill="#33A0FD" transform="translate(474,170)"/>
<path d="M0,0 L23,0 L23,15 L22,19 L14,20 L6,20 L6,18 L2,17 L0,14 Z " fill="#37A5FE" transform="translate(449,170)"/>
<path d="M0,0 L4,0 L5,4 L10,9 L12,14 L8,12 L15,24 L10,23 L14,31 L9,32 L11,37 L10,39 L7,39 L5,35 L2,34 L1,32 L-3,36 L-3,31 L-2,26 L0,26 L-2,22 L-1,19 L-3,19 L-5,13 L-3,11 L-4,5 L-1,2 L-1,4 L1,4 Z M-2,4 Z " fill="#0F4698" transform="translate(586,49)"/>
<path d="M0,0 L1,0 L1,15 L15,14 L16,16 L31,15 L32,14 L60,14 L61,18 L67,18 L66,20 L58,21 L-6,21 L-7,20 L-7,15 L0,15 Z " fill="#1461C5" transform="translate(417,181)"/>
<path d="M0,0 L5,2 L8,2 L15,3 L18,5 L21,2 L23,3 L22,7 L20,19 L18,25 L16,33 L14,32 L13,35 L10,34 L7,28 L8,24 L10,24 L10,22 L5,20 L1,17 L1,15 L5,15 L2,11 L2,8 L5,7 L0,2 Z " fill="#6BCBFC" transform="translate(600,105)"/>
<path d="M0,0 L3,1 L4,4 L10,2 L12,1 L12,7 L10,7 L9,9 L9,7 L6,7 L5,11 L2,20 L3,21 L3,28 L-1,38 L-3,37 L-4,40 L-2,40 L-2,51 L0,52 L0,55 L7,57 L7,60 L3,60 L2,62 L-1,61 L-2,61 L-7,60 L-8,58 L-10,57 L-7,54 L-7,51 L-9,50 L-4,42 L-8,43 L-9,40 L-7,37 L-9,36 L-2,28 L-7,28 L-2,20 L-6,21 L-3,15 L-6,15 L-1,9 L-3,9 L-5,8 L-2,7 Z " fill="#114DA3" transform="translate(574,86)"/>
<path d="M0,0 L7,2 L8,5 L13,5 L15,7 L20,9 L22,11 L24,14 L25,20 L23,21 L21,33 L18,36 L18,32 L12,32 L9,28 L8,23 L6,22 L9,21 L3,17 L3,14 L6,14 L4,9 L7,9 L2,4 Z " fill="#73D0FB" transform="translate(99,92)"/>
<path d="M0,0 L1,3 L3,2 L3,4 L8,2 L8,4 L12,2 L15,2 L17,1 L18,3 L18,16 L16,18 L-13,17 L-13,8 L-7,6 L-7,3 L-4,3 L-4,1 Z " fill="#3AA2F9" transform="translate(67,143)"/>
<path d="M0,0 L23,0 L23,17 L18,19 L14,17 L14,21 L12,21 L12,19 L7,20 L4,17 L4,15 L0,14 Z " fill="#309DFC" transform="translate(29,170)"/>
<path d="M0,0 L78,0 L78,16 L73,16 L73,20 L71,20 L71,15 L68,14 L11,13 L11,15 L6,17 L5,21 L5,15 L0,15 Z M1,1 L1,10 L76,10 L76,1 Z " fill="#0744B1" transform="translate(167,222)"/>
<path d="M0,0 L76,0 L76,10 L75,11 L2,11 L2,15 L5,16 L1,16 Z M2,2 L2,8 L74,8 L74,2 Z " fill="#1154BE" transform="translate(844,221)"/>
<path d="M0,0 L3,2 L9,2 L13,2 L18,1 L19,7 L17,15 L15,36 L12,39 L9,38 L4,31 L6,26 L4,22 L4,19 L4,17 L8,16 L1,9 L-1,5 L3,6 L0,2 Z " fill="#67C7FB" transform="translate(426,99)"/>
<path d="M0,0 L23,0 L23,18 L18,19 L7,18 L7,16 L1,16 L0,14 Z " fill="#37A5FE" transform="translate(528,170)"/>
<path d="M0,0 L9,0 L5,4 L-9,8 L-14,10 L-25,14 L-32,15 L-32,17 L-37,19 L-45,24 L-45,27 L-52,28 L-73,28 L-73,27 L-66,26 L-63,23 L-59,22 L-57,19 L-54,19 L-54,17 L-50,18 L-50,16 L-39,14 L-38,12 L-25,11 L-25,9 L-21,8 L-20,5 L-11,6 L-11,4 Z " fill="#69C9FE" transform="translate(841,131)"/>
<path d="M0,0 L12,1 L14,1 L16,0 L17,4 L13,14 L13,17 L12,21 L4,28 L2,28 L2,26 L0,26 L-1,18 L-3,15 L-5,5 L-4,2 Z " fill="#6CCDFE" transform="translate(980,92)"/>
<path d="M0,0 L10,2 L6,3 L6,8 L25,8 L25,9 L2,9 L0,8 L0,6 L-57,7 L-61,9 L-82,9 L-82,8 L-62,8 L-62,2 L-60,3 L-56,1 L-2,1 L0,1 Z " fill="#1356BD" transform="translate(645,235)"/>
<path d="M0,0 L2,3 L1,9 L-1,16 L-3,23 L-5,26 L-5,32 L-11,31 L-16,28 L-17,24 L-17,22 L-18,18 L-19,12 L-21,5 L-16,3 L-16,6 L-5,6 L-3,4 L-2,9 Z " fill="#6BCDFD" transform="translate(24,90)"/>
<path d="M0,0 L1,0 L1,62 L0,64 L-7,63 L-7,61 L-9,61 L-8,54 L-7,40 L-6,36 L-8,35 L-6,32 L-6,24 L-6,21 L-1,5 Z " fill="#0D54B5" transform="translate(999,83)"/>
<path d="M0,0 L2,0 L2,7 L8,5 L7,9 L5,10 L6,13 L16,13 L16,15 L22,16 L24,15 L25,19 L22,25 L23,27 L21,31 L19,35 L10,36 L7,34 L6,27 L0,4 Z M8,4 Z " fill="#6DCCFC" transform="translate(472,80)"/>
<path d="M0,0 L65,0 L65,5 L58,6 L0,6 Z " fill="#175ECD" transform="translate(1,223)"/>
<path d="M0,0 L1,2 L20,1 L35,1 L38,0 L52,1 L56,1 L61,1 L63,2 L84,3 L85,1 L92,1 L97,2 L104,1 L108,1 L124,1 L131,3 L133,2 L146,4 L146,5 L127,6 L124,6 L107,6 L104,4 L51,4 L49,5 L37,4 L35,4 L13,3 L0,5 L-12,7 L-18,6 L-18,3 L-1,1 Z " fill="#1B71D8" transform="translate(436,190)"/>
<path d="M0,0 L4,0 L4,13 L2,24 L8,25 L8,33 L-10,33 L-10,25 L-7,25 L-7,15 L-8,3 L-1,1 Z " fill="#46ABFB" transform="translate(868,127)"/>
<path d="M0,0 L1,0 L2,5 L3,37 L2,39 L3,46 L0,48 L-2,47 L-2,49 L-4,49 L-5,46 L-2,43 L-1,40 L-4,41 L-6,40 L-5,35 L-7,31 L-8,24 L-9,22 L-8,20 L-11,20 L-9,16 L-7,16 L-7,11 L-10,11 L-8,7 L-3,5 Z " fill="#0C459C" transform="translate(409,90)"/>
<path d="M0,0 L5,5 L2,5 L4,9 L9,15 L3,14 L6,18 L6,20 L4,21 L6,24 L6,27 L4,28 L10,36 L7,37 L9,42 L7,42 L8,46 L-1,47 L-8,45 L-10,46 L-10,41 L-4,41 L-4,39 L-2,39 L-3,33 L-5,32 L-4,28 L-2,28 L-3,24 L-1,22 L0,15 L-2,12 L-2,1 Z " fill="#1052AC" transform="translate(925,101)"/>
<path d="M0,0 L3,1 L5,7 L4,9 L9,7 L11,7 L13,0 L14,0 L13,14 L11,19 L12,27 L13,29 L19,30 L19,38 L-3,38 L-3,30 L3,30 L4,27 L6,27 L5,20 L2,10 L1,9 Z " fill="#43AAFB" transform="translate(951,121)"/>
<path d="M0,0 L3,1 L4,8 L5,11 L5,17 L6,20 L5,22 L8,22 L10,17 L11,21 L13,29 L19,30 L19,39 L-3,39 L-4,38 L-4,28 L1,28 L2,15 Z " fill="#3CA4FD" transform="translate(452,121)"/>
<path d="M0,0 L2,1 L-4,8 L0,8 L-2,13 L-6,18 L-1,17 L-6,22 L-1,23 L-1,26 L-10,36 L-13,36 L-14,38 L-16,37 L-18,22 L-19,16 L-18,13 L-9,12 L-8,9 L-6,9 L-6,3 L-2,1 Z " fill="#61C3FD" transform="translate(898,104)"/>
<path d="M0,0 L6,2 L10,5 L8,5 L8,8 L10,9 L9,13 L20,9 L23,10 L24,5 L30,5 L28,14 L35,13 L42,10 L46,10 L47,7 L49,7 L48,14 L47,16 L43,15 L34,19 L30,18 L27,19 L25,13 L23,20 L20,20 L13,21 L13,19 L8,18 L4,14 L4,12 L7,12 L0,5 Z " fill="#77D0FA" transform="translate(422,82)"/>
<path d="M0,0 L6,0 L7,1 L7,18 L8,25 L10,30 L-8,30 L-22,27 L-22,3 Z M-5,4 L-10,6 L-12,10 L-17,13 L-19,17 L-18,18 L-18,23 L-5,27 L-1,27 L-1,29 L5,28 L5,9 L4,4 Z " fill="#49AAFD" transform="translate(613,167)"/>
<path d="M0,0 L2,2 L5,17 L7,32 L7,40 L5,40 L5,42 L3,42 L1,51 L0,51 L0,43 L-6,42 L-4,16 Z " fill="#2079E0" transform="translate(876,109)"/>
<path d="M0,0 L67,0 L67,9 L66,11 L0,11 L0,8 L65,7 L65,2 L0,2 Z " fill="#1154BE" transform="translate(1,221)"/>
<path d="M0,0 L2,4 L1,13 L-1,20 L-3,25 L-8,24 L-8,27 L-13,26 L-15,19 L-17,13 L-18,6 L-15,3 L-15,5 L-10,3 L-4,3 Z " fill="#6ACCFD" transform="translate(50,93)"/>
<path d="M0,0 L1,0 L1,5 L26,5 L26,14 L21,18 L12,20 L10,21 L8,20 L8,18 L6,18 L5,14 L2,15 L1,26 L0,26 Z " fill="#37A3FD" transform="translate(0,166)"/>
<path d="M0,0 L1,0 L1,12 L0,10 L-74,10 L-74,1 L-1,1 Z M-73,2 L-72,7 L-3,7 L-1,6 L-1,2 Z " fill="#1355C0" transform="translate(155,222)"/>
<path d="M0,0 L5,0 L5,23 L4,23 L3,6 L-10,6 L-14,8 L-15,12 L-13,21 L4,25 L4,26 L-5,26 L-10,25 L-12,26 L-12,24 L-17,25 L-18,22 L-23,20 L-25,11 L-25,4 L-12,2 L-11,1 Z " fill="#37A1FC" transform="translate(578,166)"/>
<path d="M0,0 L2,1 L2,2 L7,3 L3,4 L3,8 L22,8 L25,11 L-3,11 L-3,9 L-54,9 L-60,11 L-79,11 L-79,10 L-63,9 L-59,5 L-1,4 L1,7 L2,4 L-1,3 Z " fill="#2866C8" transform="translate(149,234)"/>
<path d="M0,0 L1,0 L1,6 L-4,6 L-4,11 L-9,6 L-73,5 L-73,1 Z " fill="#0B49AE" transform="translate(919,231)"/>
<path d="M0,0 L5,0 L5,2 L8,2 L8,4 L5,5 L-262,5 L-264,3 L-257,2 L-254,1 L-254,3 L0,4 Z " fill="#1C80EC" transform="translate(627,201)"/>
<path d="M0,0 L3,1 L1,1 L1,3 L230,3 L242,2 L244,0 L250,1 L250,5 L-2,5 L-4,4 L-4,1 Z " fill="#1673DD" transform="translate(377,200)"/>
<path d="M0,0 L75,0 L75,9 L0,9 L0,6 L74,6 L74,1 L0,1 Z " fill="#1255C0" transform="translate(168,223)"/>
<path d="M0,0 L1,0 L0,16 L0,37 L1,45 L8,43 L8,14 L11,10 L12,14 L11,15 L12,28 L12,43 L10,48 L4,49 L4,62 L3,62 L3,49 L-5,48 L-6,45 L-5,40 L-4,19 L-2,15 L-2,5 Z " fill="#1564C8" transform="translate(24,99)"/>
<path d="M0,0 L1,0 L3,11 L7,23 L11,30 L9,30 L8,32 L4,33 L3,28 L0,27 L1,31 L-2,30 L-3,33 L-2,40 L-4,41 L-2,47 L-5,49 L-6,45 L-9,41 L-12,41 L-7,34 L-6,28 L-9,31 L-11,31 L-9,27 L-4,19 L-2,13 L-1,2 Z M-2,31 Z " fill="#1B4FA1" transform="translate(586,22)"/>
<path d="M0,0 L2,3 L3,5 L5,4 L8,5 L11,3 L13,0 L12,14 L12,26 L16,26 L16,33 L-1,33 L-1,27 L4,25 L2,9 L0,4 Z " fill="#57BBFD" transform="translate(360,127)"/>
<path d="M0,0 L73,0 L74,2 L73,4 L0,4 Z " fill="#185FCE" transform="translate(667,224)"/>
<path d="M0,0 L5,0 L2,4 L2,5 L-235,5 L-232,4 L-232,2 L-235,1 L-227,2 L-225,3 L-15,3 Z " fill="#3E9FFC" transform="translate(867,201)"/>
<path d="M0,0 L2,0 L5,16 L10,28 L11,31 L9,33 L10,36 L12,41 L8,41 L6,36 L3,35 L1,36 L1,34 L-2,34 L-3,32 L-6,31 L-10,32 L-8,28 L-2,18 Z " fill="#1B4FA2" transform="translate(86,21)"/>
<path d="M0,0 L70,0 L73,1 L72,4 L12,5 L-1,4 Z " fill="#185FCE" transform="translate(758,224)"/>
<path d="M0,0 L1,4 L0,9 L-2,12 L-1,14 L-3,32 L-5,35 L-10,36 L-11,31 L-14,22 L-13,14 L-14,12 L-12,8 L-3,7 Z " fill="#44AEFC" transform="translate(494,107)"/>
<path d="M0,0 L1,0 L3,8 L3,17 L3,21 L4,33 L5,36 L4,40 L4,48 L3,53 L1,53 L1,56 L-3,56 L-5,38 L-4,34 L-3,32 L-2,12 Z " fill="#0F57BA" transform="translate(527,85)"/>
<path d="M0,0 L70,0 L72,1 L71,4 L-1,4 Z " fill="#185FCE" transform="translate(259,224)"/>
<path d="M0,0 L2,0 L5,10 L7,25 L7,34 L6,36 L2,38 L1,44 L0,44 L0,36 L-4,36 L-4,23 L-3,22 L-2,4 Z " fill="#1C72DA" transform="translate(377,116)"/>
<path d="M0,0 L2,0 L5,12 L4,19 L4,37 L2,37 L2,43 L-4,42 L-4,13 L-3,4 Z " fill="#0F57BA" transform="translate(499,101)"/>
<path d="M0,0 L76,0 L76,16 L72,15 L75,15 L74,11 L1,11 L1,16 L0,16 Z M2,2 L2,10 L62,10 L74,9 L74,2 Z " fill="#2152BF" transform="translate(345,221)"/>
<path d="M0,0 L7,6 L8,8 L3,8 L5,11 L4,15 L6,18 L5,20 L3,20 L9,29 L6,29 L7,33 L8,35 L6,35 L6,38 L-8,39 L-9,36 L-11,36 L-11,34 L-5,33 L-2,33 L-3,29 L-2,26 L1,26 L1,22 L-2,22 L-3,16 L-2,16 L-2,3 Z " fill="#1459B4" transform="translate(427,108)"/>
<path d="M0,0 L69,0 L69,4 L-2,4 L-2,1 Z " fill="#185FCE" transform="translate(584,224)"/>
<path d="M0,0 L1,0 L2,11 L5,11 L5,18 L-9,19 L-31,17 L-31,16 L-24,15 L-24,14 L-17,13 L-15,9 L-11,6 L-5,5 L-2,5 Z " fill="#54B9FE" transform="translate(851,142)"/>
<path d="M0,0 L69,0 L67,4 L0,4 L-2,3 L-2,1 Z " fill="#1860CF" transform="translate(350,224)"/>
<path d="M0,0 L1,0 L2,8 L2,23 L-21,23 L-21,22 L1,22 L1,10 L-6,10 L-10,11 L-12,10 L-25,10 L-25,8 L-28,10 L-64,10 L-68,11 L-81,11 L-80,8 L-66,8 L-56,6 L-56,8 L-52,6 L-47,7 L-28,8 L-27,1 L-25,5 L-20,5 L-20,7 L-10,6 L-7,7 L-6,4 L0,5 Z " fill="#2685E9" transform="translate(998,183)"/>
<path d="M0,0 L3,1 L2,2 L8,7 L9,5 L11,5 L15,9 L18,7 L20,11 L24,10 L28,14 L29,11 L33,14 L33,16 L38,14 L41,19 L39,23 L27,21 L22,18 L15,17 L13,15 L8,14 L2,7 L0,4 Z " fill="#87DBFC" transform="translate(99,83)"/>
<path d="M0,0 L7,0 L8,7 L8,26 L6,27 L0,27 L0,29 L-4,29 L-2,4 Z " fill="#59B6FE" transform="translate(364,173)"/>
<path d="M0,0 L53,0 L55,1 L55,3 L60,4 L59,8 L59,6 L56,6 L56,4 L1,5 L1,7 L-1,8 L-23,8 L-23,7 L-3,6 Z " fill="#1054BD" transform="translate(939,236)"/>
<path d="M0,0 L69,0 L69,31 L68,29 L57,29 L53,28 L38,27 L33,28 L14,28 L15,25 L19,24 L56,24 L65,25 L68,27 L68,1 L0,1 Z " fill="#306DD4" transform="translate(931,221)"/>
<path d="M0,0 L21,0 L29,1 L30,4 L30,19 L29,24 L26,25 L22,24 L22,26 L18,26 L11,27 L1,27 L1,25 L14,23 L20,22 L22,23 L23,10 L25,10 L23,5 L27,6 L25,16 L25,20 L29,5 L1,4 L1,15 L0,15 Z " fill="#359DFA" transform="translate(417,166)"/>
<path d="M0,0 L1,0 L0,20 L0,22 L3,22 L3,29 L-15,29 L-15,22 L-12,22 L-10,6 L-6,9 L-2,10 L-1,4 Z " fill="#45AAFA" transform="translate(139,131)"/>
<path d="M0,0 L5,5 L8,2 L14,3 L12,7 L13,8 L13,14 L15,14 L13,18 L8,25 L11,24 L9,30 L4,30 L2,28 L3,24 L0,9 Z " fill="#49B2FA" transform="translate(58,112)"/>
<path d="M0,0 L2,2 L0,14 L-2,16 L-4,16 L-6,17 L-6,15 L-18,15 L-22,16 L-23,19 L-26,10 L-27,2 L-25,2 L-24,7 L-8,5 L-4,2 L-1,2 Z " fill="#76D1FC" transform="translate(998,78)"/>
<path d="M0,0 L3,1 L2,4 L4,5 L3,15 L6,27 L10,33 L10,35 L12,35 L11,37 L9,36 L11,47 L10,52 L6,48 L4,45 L4,38 L3,32 L6,34 L3,29 L3,23 L1,23 L1,21 L-2,24 L-4,28 L-8,29 L-12,30 L-10,25 L-8,22 L-5,22 L-4,17 L-1,12 Z M9,27 L12,28 L12,30 L9,31 Z " fill="#094196" transform="translate(911,60)"/>
<path d="M0,0 L2,0 L4,4 L-1,3 L2,10 L4,14 L0,13 L7,21 L5,22 L3,21 L7,28 L2,26 L3,29 L7,33 L3,33 L7,41 L1,41 L-1,40 L-3,31 L-1,31 L-3,22 L-3,18 L-1,18 L-5,14 L-5,16 L-7,17 L-7,22 L-8,20 L-10,19 L-8,14 L-9,9 L-10,3 L-7,4 L-6,8 L-2,6 L-4,1 Z " fill="#134DA1" transform="translate(599,80)"/>
<path d="M0,0 L5,0 L2,3 L-3,4 L-3,5 L-230,5 L-229,3 L-11,3 L-10,2 Z " fill="#3E9FFD" transform="translate(368,201)"/>
<path d="M0,0 L1,2 L19,2 L28,3 L28,18 L26,24 L25,22 L19,24 L14,25 L1,25 L0,21 L3,19 L11,19 L17,21 L17,19 L19,19 L19,21 L21,21 L20,16 L21,8 L20,5 L0,3 Z " fill="#3EA4FD" transform="translate(917,167)"/>
<path d="M0,0 L2,1 L2,6 L0,9 L1,14 L-1,14 L-1,25 L-3,28 L-5,28 L-6,32 L-10,27 L-13,22 L-13,13 L-14,5 L-14,1 L-12,1 L-11,5 L-12,9 L-10,9 L-10,11 L-4,7 L0,3 Z " fill="#45ADFA" transform="translate(992,109)"/>
<path d="M0,0 L1,0 L3,13 L7,22 L11,29 L8,29 L7,33 L-3,32 L-7,33 L-8,29 L-11,29 L-5,20 L-2,13 L-1,2 Z " fill="#184DA1" transform="translate(912,23)"/>
<path d="M0,0 L25,0 L25,8 L19,9 L18,13 L15,13 L15,11 L11,11 L11,13 L5,12 L4,8 L1,8 Z " fill="#36A4FE" transform="translate(973,171)"/>
<path d="M0,0 L4,2 L4,9 L2,10 L-2,25 L-4,27 L-4,25 L-13,29 L-16,20 L-18,17 L-18,12 L-15,11 L-15,15 L-4,11 L0,10 L-1,2 Z " fill="#75D0FD" transform="translate(874,102)"/>
<path d="M0,0 L2,4 L1,13 L-3,14 L-6,17 L-15,19 L-19,20 L-20,19 L-20,9 L-17,9 L-17,6 L-11,6 L-10,5 L-5,5 L-4,2 Z " fill="#7BD5FD" transform="translate(969,81)"/>
<path d="M0,0 L2,4 L5,15 L8,26 L7,35 L8,39 L8,62 L7,64 L1,64 L1,75 L0,75 L0,65 L-4,64 L-7,61 L-7,43 L-6,36 L-4,35 L-4,60 L4,61 L5,57 L4,21 L3,14 L0,13 L1,9 L-1,9 Z " fill="#1769CF" transform="translate(472,84)"/>
<path d="M0,0 L6,4 L9,7 L8,9 L6,8 L6,17 L4,19 L7,22 L5,27 L3,26 L0,18 L-2,18 L-3,20 L-6,20 L-6,22 L-8,22 L-8,13 L-10,12 L-7,5 L-1,3 Z " fill="#073F91" transform="translate(414,60)"/>
<path d="M0,0 L10,0 L10,15 L15,15 L15,20 L-5,20 L-5,15 L0,15 Z " fill="#D1B8F7" transform="translate(744,223)"/>
<path d="M0,0 L10,0 L10,15 L15,15 L15,20 L-5,20 L-5,15 L0,15 Z " fill="#D7BDFB" transform="translate(245,223)"/>
<path d="M0,0 L1,0 L5,16 L6,27 L7,30 L7,38 L2,33 L2,24 L-3,23 L-5,39 L-5,52 L-1,54 L-1,56 L-5,57 L-9,55 L-8,44 L-6,29 L-6,20 L-4,17 L-1,1 Z " fill="#1D71D5" transform="translate(53,94)"/>
<path d="M0,0 L54,0 L56,3 L56,6 L52,5 L0,5 L-4,7 L-8,6 L-4,3 L-2,3 L-2,1 Z " fill="#145BC2" transform="translate(505,236)"/>
<path d="M0,0 L38,0 L43,1 L42,3 L37,4 L-14,5 L-18,9 L-40,9 L-40,8 L-20,8 L-20,2 L-16,1 Z " fill="#0F50B9" transform="translate(104,235)"/>
<path d="M0,0 L2,2 L6,22 L7,34 L6,35 L1,35 L1,42 L0,42 L0,36 L-3,36 L-4,34 L-4,26 L-1,4 Z " fill="#2480E6" transform="translate(142,117)"/>
<path d="M0,0 L2,1 L2,2 L4,3 L8,2 L8,5 L11,2 L14,3 L16,2 L17,4 L17,17 L-9,17 L-4,13 L5,10 L5,7 L-2,6 L-2,1 Z " fill="#41A6F8" transform="translate(394,142)"/>
<path d="M0,0 L1,0 L1,16 L4,17 L4,25 L-14,25 L-14,18 L-8,17 L-8,10 L-9,9 L-9,2 L-7,4 L-7,8 L-2,5 L-1,3 L-3,2 L0,2 Z " fill="#4AB1FC" transform="translate(637,135)"/>
<path d="M0,0 L10,0 L11,14 L15,14 L15,19 L-5,19 L-5,14 L0,14 Z " fill="#E4CBFC" transform="translate(568,223)"/>
<path d="M0,0 L10,0 L11,14 L15,14 L15,19 L-5,19 L-5,14 L0,14 Z " fill="#E4CBFC" transform="translate(69,223)"/>
<path d="M0,0 L22,1 L24,0 L24,2 L37,2 L39,1 L91,1 L92,3 L67,5 L53,5 L47,4 L34,5 L25,4 L0,4 L-5,5 L-16,6 L-17,3 Z " fill="#1769CF" transform="translate(449,192)"/>
<path d="M0,0 L22,0 L22,7 L13,13 L10,12 L9,15 L5,13 L2,11 L0,6 Z " fill="#37A4FE" transform="translate(948,171)"/>
<path d="M0,0 L10,0 L10,14 L15,14 L15,19 L-5,19 L-5,14 L-1,13 Z " fill="#E4CCFC" transform="translate(921,223)"/>
<path d="M0,0 L10,0 L10,14 L14,14 L14,19 L-6,19 L-6,14 L-1,13 Z " fill="#E3CBFC" transform="translate(422,223)"/>
<path d="M0,0 L3,1 L3,3 L5,3 L6,9 L6,27 L8,27 L8,29 L0,29 L0,26 L-3,26 L-4,24 L-4,9 Z " fill="#5AB6FE" transform="translate(133,172)"/>
<path d="M0,0 L5,0 L5,6 L-14,7 L-17,9 L-40,9 L-42,9 L-63,9 L-63,7 L-65,7 L-65,9 L-78,10 L-81,11 L-86,10 L-83,8 L-81,7 L-66,6 L-65,5 L-36,5 L-15,6 L-15,1 L-14,5 L4,5 L4,1 Z " fill="#1D6BD0" transform="translate(345,237)"/>
<path d="M0,0 L1,0 L1,7 L-8,8 L-8,10 L-12,10 L-10,11 L1,12 L91,13 L91,14 L-27,14 L-31,13 L-31,11 L-13,7 L-8,7 L-8,5 L-1,4 Z " fill="#176BD2" transform="translate(908,190)"/>
<path d="M0,0 L1,0 L2,13 L9,15 L28,14 L31,15 L31,18 L35,19 L35,20 L-6,20 L-8,19 L-7,12 L-1,12 Z " fill="#1362C7" transform="translate(916,182)"/>
<path d="M0,0 L2,3 L5,18 L6,38 L4,38 L3,41 L-2,41 L-3,38 L-3,25 Z " fill="#176CD6" transform="translate(621,109)"/>
<path d="M0,0 L1,4 L-1,23 L-3,27 L-4,34 L-4,54 L2,56 L2,70 L-22,70 L-21,66 L1,67 L1,58 L-5,58 L-8,51 L-5,16 L-2,7 Z " fill="#2889E9" transform="translate(470,93)"/>
<path d="M0,0 L1,0 L1,25 L-1,22 L-7,22 L-8,24 L-21,24 L-22,18 L-25,18 L-26,8 L-25,8 L-25,13 L-22,13 L-22,15 L-17,17 L-15,18 L-15,16 L-11,16 L-11,18 L-8,18 L-7,14 L-1,13 L-1,5 L-26,5 L-26,4 L0,4 Z " fill="#319BFB" transform="translate(999,166)"/>
<path d="M0,0 L2,1 L4,11 L4,21 L6,27 L5,38 L6,50 L5,53 L3,53 L3,55 L0,56 Z " fill="#105CC2" transform="translate(1,92)"/>
<path d="M0,0 L2,1 L3,26 L5,26 L5,36 L3,43 L-3,42 L-4,40 L-3,16 L-2,14 L-1,3 Z " fill="#125CC2" transform="translate(946,102)"/>
<path d="M0,0 L13,0 L12,2 L2,1 L1,5 L43,6 L46,9 L-24,9 L-24,6 L-4,5 L-1,4 Z " fill="#BDA8FC" transform="translate(499,212)"/>
<path d="M0,0 L2,0 L2,2 L7,1 L16,1 L19,2 L25,1 L28,2 L27,10 L26,8 L22,7 L22,5 L16,5 L13,5 L13,3 L-5,4 L-19,3 L-19,5 L-46,7 L-53,5 L-54,3 L-41,2 L-35,1 L-1,1 Z M24,5 Z M23,6 Z " fill="#1A6DD2" transform="translate(971,191)"/>
<path d="M0,0 L10,0 L11,14 L15,15 L15,19 L-4,19 L-4,15 L0,15 Z " fill="#DEC5FB" transform="translate(655,223)"/>
<path d="M0,0 L10,0 L10,15 L15,15 L15,19 L-4,19 L-4,15 L0,15 Z " fill="#D3BBF8" transform="translate(834,223)"/>
<path d="M0,0 L10,0 L10,15 L15,15 L15,19 L-4,19 L-4,15 L0,15 Z " fill="#DEC5FC" transform="translate(156,223)"/>
<path d="M0,0 L2,2 L0,3 L0,5 L2,6 L3,10 L8,11 L11,11 L12,18 L10,24 L7,29 L5,29 L-2,21 L-5,16 L-1,17 L-1,13 L-5,10 L-5,8 L-1,8 L-5,3 L-5,1 Z " fill="#57BBF9" transform="translate(107,112)"/>
<path d="M0,0 L7,0 L12,1 L34,1 L42,2 L42,3 L47,4 L47,5 L36,6 L-8,6 L-7,1 Z " fill="#BCA9FC" transform="translate(8,215)"/>
<path d="M0,0 L30,0 L30,20 L29,20 L29,3 L1,5 L3,10 L8,13 L10,22 L12,23 L8,24 L4,22 L4,19 L1,19 L0,16 Z " fill="#2F9BFA" transform="translate(54,166)"/>
<path d="M0,0 L1,2 L3,2 L1,11 L5,9 L5,18 L3,18 L3,26 L5,27 L5,29 L5,33 L1,39 L-5,39 L-7,37 L-2,33 L-6,33 L-4,29 L0,23 L-5,24 L1,16 L-5,19 L-3,15 L-2,12 L-4,11 L0,5 L-4,7 L-2,3 Z " fill="#1658B0" transform="translate(898,89)"/>
<path d="M0,0 L2,3 L5,19 L5,34 L3,41 L-2,41 L-2,13 Z " fill="#186CD6" transform="translate(122,109)"/>
<path d="M0,0 L2,3 L5,1 L59,1 L62,5 L65,7 L60,6 L57,5 L5,5 L5,7 L-19,6 L-19,5 L0,5 Z " fill="#2261C5" transform="translate(436,237)"/>
<path d="M0,0 L1,0 L1,6 L-1,10 L-4,31 L-11,32 L-12,27 L-14,27 L-14,15 L-14,12 L-14,10 L-9,12 L-7,11 L-6,13 L-3,14 L-4,7 L-1,2 Z " fill="#48B3FC" transform="translate(22,108)"/>
<path d="M0,0 L1,0 L0,10 L-3,19 L-4,26 L-9,27 L-11,22 L-13,14 L-15,10 L-15,2 L-11,4 L-8,6 L-4,5 L-2,6 Z " fill="#4BB4FB" transform="translate(548,110)"/>
<path d="M0,0 L1,0 L1,13 L114,12 L124,10 L122,8 L133,9 L137,10 L138,14 L0,14 Z " fill="#1F80EA" transform="translate(0,192)"/>
<path d="M0,0 L9,0 L10,15 L14,15 L14,19 L-4,19 L-4,15 L0,15 Z " fill="#D9C0FB" transform="translate(335,223)"/>
<path d="M0,0 L26,0 L26,15 L25,19 L21,20 L20,22 L7,21 L6,16 L2,18 L0,13 L0,7 L4,9 L8,15 L10,17 L13,16 L13,14 L19,13 L24,8 L25,1 L0,1 Z " fill="#2D99FA" transform="translate(500,170)"/>
<path d="M0,0 L2,1 L2,16 L4,26 L5,31 L4,41 L3,43 L-1,43 L-1,41 L-3,41 L-3,25 L-1,4 Z " fill="#115BC2" transform="translate(447,102)"/>
<path d="M0,0 L4,4 L4,2 L15,2 L13,6 L10,10 L10,13 L10,16 L14,15 L12,19 L8,25 L5,26 L5,22 L2,21 L0,7 Z " fill="#4FB6F9" transform="translate(557,112)"/>
<path d="M0,0 L23,0 L23,15 L22,19 L14,20 L6,20 L6,18 L2,17 L0,14 L0,7 L1,10 L3,10 L4,13 L7,14 L8,12 L15,11 L18,8 L21,8 L22,1 L0,1 Z " fill="#309BFB" transform="translate(449,170)"/>
<path d="M0,0 L1,3 L6,3 L2,4 L2,8 L21,8 L21,9 L1,10 L-8,8 L-54,8 L-63,10 L-64,11 L-92,11 L-99,8 L-125,7 L-125,6 L-96,6 L-91,8 L-91,10 L-65,10 L-64,6 L-6,5 L-6,4 L-1,4 L0,4 Z " fill="#2362C7" transform="translate(828,234)"/>
<path d="M0,0 L1,0 L1,12 L0,22 L0,45 L7,45 L7,43 L10,43 L11,38 L11,20 L14,22 L14,41 L12,46 L6,47 L6,60 L4,59 L4,47 L-2,48 L-5,44 L-3,25 L-2,8 Z " fill="#1C73D7" transform="translate(522,102)"/>
<path d="M0,0 L52,0 L52,3 L26,3 L27,17 L30,17 L31,21 L26,21 L24,17 L24,3 L1,3 Z " fill="#2591F4" transform="translate(947,167)"/>
<path d="M0,0 L3,3 L7,2 L8,4 L9,3 L15,3 L16,5 L13,8 L19,10 L19,14 L24,15 L24,16 L1,16 Z " fill="#40A8FB" transform="translate(589,143)"/>
<path d="M0,0 L2,4 L4,16 L4,33 L-4,33 L-4,15 L-1,1 Z " fill="#1E76DF" transform="translate(358,119)"/>
<path d="M0,0 L8,1 L11,1 L11,15 L9,17 L1,17 L-1,13 L-3,13 L-3,3 Z " fill="#4AAFFE" transform="translate(72,172)"/>
<path d="M0,0 L2,4 L4,8 L8,10 L13,11 L16,11 L15,15 L13,15 L12,20 L12,22 L11,27 L6,28 L2,21 L0,17 L2,17 L0,12 L-1,1 Z " fill="#52BBFC" transform="translate(505,103)"/>
<path d="M0,0 L1,0 L5,25 L5,33 L4,35 L1,35 L0,37 L-3,34 L-3,12 Z " fill="#1E76DF" transform="translate(857,117)"/>
<path d="M0,0 L2,2 L0,3 L3,10 L12,9 L14,8 L13,13 L10,26 L8,25 L7,28 L4,27 L1,21 L2,17 L4,17 L4,15 L-1,13 L-5,10 L-5,8 L-1,8 L-4,4 L-4,1 Z " fill="#5ABEF9" transform="translate(606,112)"/>
<path d="M0,0 L6,1 L10,0 L14,1 L29,1 L32,2 L35,1 L34,5 L-29,5 L-29,2 L-16,2 Z " fill="#1A71D8" transform="translate(31,190)"/>
<path d="M0,0 L26,0 L26,11 L24,17 L21,17 L19,20 L11,21 L1,21 L0,20 L0,9 L4,10 L5,14 L7,14 L7,16 L11,15 L20,13 L23,10 L25,10 L25,1 L0,1 Z " fill="#2D98F9" transform="translate(1,170)"/>
<path d="M0,0 Z M-5,1 L0,1 L1,4 L0,7 L5,5 L7,4 L7,6 L14,4 L12,9 L12,10 L14,10 L12,14 L7,19 L3,18 L3,20 L0,19 L-5,5 Z " fill="#63C6FB" transform="translate(558,96)"/>
<path d="M0,0 L2,1 L1,8 L0,15 L-3,20 L-7,22 L-10,22 L-13,19 L-15,12 L-15,8 L-6,7 L-4,6 L-2,7 L-2,2 L0,2 Z " fill="#71CFFD" transform="translate(374,111)"/>
<path d="M0,0 L11,2 L14,2 L12,9 L10,12 L10,18 L4,17 L-1,14 L-2,10 L-2,8 L-3,4 L-3,1 Z " fill="#5DC3FD" transform="translate(9,104)"/>
<path d="M0,0 L4,2 L5,6 L5,24 L4,26 L-1,26 L-2,20 L-4,20 L-4,8 L-1,1 Z " fill="#5AB7FE" transform="translate(633,172)"/>
<path d="M0,0 L2,0 L3,4 L1,7 L2,9 L0,13 L-2,17 L-11,18 L-14,16 L-15,5 L-5,5 L-3,2 L0,2 Z " fill="#62C5FD" transform="translate(493,98)"/>
<path d="M0,0 L23,0 L23,18 L18,19 L7,18 L7,16 L1,16 L0,14 Z M1,1 L1,10 L4,10 L6,14 L11,14 L18,11 L19,7 L22,6 L22,1 Z M17,9 Z " fill="#2F9CFC" transform="translate(528,170)"/>
<path d="M0,0 L1,3 L1,9 L2,15 L1,24 L1,33 L3,39 L3,43 L-3,44 L-4,40 L-4,17 L-3,3 Z " fill="#0F57BC" transform="translate(973,95)"/>
<path d="M0,0 L2,1 L3,4 L9,5 L10,2 L12,2 L13,0 L12,20 L8,28 L5,28 L4,17 L2,7 L0,5 Z " fill="#50B8FD" transform="translate(452,115)"/>
<path d="M0,0 L1,3 L-1,6 L4,4 L1,9 L-6,14 L-9,15 L-9,18 L-13,20 L-18,19 L-17,9 L-15,9 L-14,7 L-14,10 L-12,9 L-11,6 L-7,3 L-5,4 L-4,1 Z " fill="#71CDFA" transform="translate(397,100)"/>
<path d="M0,0 L3,0 L4,6 L8,7 L8,4 L14,4 L13,14 L11,15 L9,27 L6,29 L5,28 L4,20 L3,19 L2,11 L1,7 Z " fill="#4BB5FC" transform="translate(34,113)"/>
<path d="M0,0 L1,0 L2,10 L0,19 L-5,19 L-5,34 L10,34 L10,35 L-36,35 L-37,39 L-37,29 L-36,33 L-7,33 L-7,19 L-10,19 L-10,17 L-12,17 L-14,7 L-12,5 L-11,6 L-10,14 L-7,17 L-2,16 L0,7 Z " fill="#1A76DB" transform="translate(453,130)"/>
<path d="M0,0 L4,0 L3,10 L2,17 L0,24 L-5,22 L-7,15 L-8,3 L-1,1 Z " fill="#5ABEFD" transform="translate(868,127)"/>
<path d="M0,0 L1,3 L-3,7 L-4,13 L-6,13 L-7,17 L-16,17 L-17,20 L-18,13 L-16,8 L-12,4 L-9,4 L-8,2 Z " fill="#77D2FD" transform="translate(896,100)"/>
<path d="M0,0 L4,0 L5,4 L7,5 L7,8 L5,8 L8,23 L6,24 L3,21 L1,24 L-2,23 L-1,19 L-3,19 L-5,13 L-3,11 L-4,5 L-1,2 L-1,4 L1,4 Z M-2,4 Z " fill="#084092" transform="translate(586,49)"/>
<path d="M0,0 L1,0 L2,8 L2,63 L4,63 L4,61 L6,61 L5,44 L6,33 L4,29 L4,19 L6,18 L7,24 L8,28 L9,30 L7,30 L9,37 L9,40 L8,63 L4,65 L1,65 L1,82 L0,82 Z " fill="#2E7FD8" transform="translate(0,84)"/>
<path d="M0,0 L1,4 L-1,14 L-4,19 L-6,26 L-12,26 L-15,23 L-14,21 L-13,18 L-15,14 L-12,15 L-15,11 L-15,9 L-7,9 L-2,6 Z " fill="#52B5F7" transform="translate(943,106)"/>
<path d="M0,0 L3,2 L8,2 L10,12 L12,12 L12,14 L15,14 L15,28 L-14,28 L-14,24 L14,24 L13,17 L10,17 L7,12 L8,5 L5,6 L2,6 Z " fill="#2991F1" transform="translate(431,135)"/>
<path d="M0,0 L2,0 L2,6 L0,6 L-1,21 L-2,30 L-8,28 L-10,22 L-11,17 L-11,7 L-6,12 L-2,11 L-1,7 L-4,6 L-1,3 Z " fill="#41ADFD" transform="translate(518,118)"/>
<path d="M0,0 L6,1 L10,0 L10,4 L7,6 L9,7 L14,6 L19,6 L20,8 L16,10 L15,12 L23,12 L23,14 L16,15 L15,18 L9,19 L3,13 L3,11 L6,11 L2,7 L1,3 Z " fill="#7AD0F8" transform="translate(921,82)"/>
<path d="M0,0 L1,2 L20,1 L35,1 L38,0 L51,1 L50,5 L37,4 L35,4 L13,3 L0,5 L-12,7 L-18,6 L-18,3 L-1,1 Z " fill="#2178DD" transform="translate(436,190)"/>
<path d="M0,0 L2,1 L4,7 L10,8 L10,16 L-12,16 L-12,8 L-6,8 L-5,6 L-5,9 L1,10 Z " fill="#3BA3FE" transform="translate(960,143)"/>
<path d="M0,0 L47,0 L54,2 L56,6 L53,4 L0,4 L-5,6 L-3,2 Z " fill="#1055BD" transform="translate(6,236)"/>
<path d="M0,0 L23,0 L23,15 L20,17 L16,17 L15,20 L6,20 L6,18 L1,17 L0,16 L0,7 L2,9 L3,12 L7,15 L9,15 L10,13 L15,12 L20,8 L22,8 L22,1 L0,1 Z " fill="#309BFC" transform="translate(948,170)"/>
<path d="M0,0 L4,4 L2,4 L2,6 L-1,6 L5,14 L3,15 L6,21 L2,20 L2,24 L-4,24 L-7,24 L-7,22 L-10,22 L-11,24 L-13,20 L-2,19 L-8,10 L-5,9 L-5,6 L-3,6 L-3,4 L0,4 Z " fill="#145BB5" transform="translate(104,123)"/>
<path d="M0,0 L54,0 L50,2 L3,4 L0,7 L-24,7 L-24,6 L-5,5 L-3,1 Z " fill="#1054BD" transform="translate(355,237)"/>
<path d="M0,0 L3,1 L4,4 L4,16 L6,18 L5,21 L3,24 L3,31 L-2,31 L-3,29 L-3,14 L-2,6 Z " fill="#115BC1" transform="translate(552,113)"/>
<path d="M0,0 L4,1 L13,3 L14,7 L12,11 L11,14 L6,13 L6,16 L1,15 L-1,8 L-3,2 Z " fill="#5EC4FD" transform="translate(36,104)"/>
<path d="M0,0 L2,2 L3,6 L4,4 L4,15 L-4,15 L-4,24 L-7,27 L-13,27 L-7,17 L-12,18 L-10,14 Z " fill="#1B519F" transform="translate(83,58)"/>
<path d="M0,0 L76,0 L76,2 L2,2 L2,15 L5,16 L1,16 Z " fill="#2852C3" transform="translate(844,221)"/>
<path d="M0,0 L0,3 L-1,6 L2,5 L0,9 L-4,14 L-8,15 L-8,17 L-6,18 L-10,17 L-13,15 L-16,5 L-15,3 L-8,2 L-5,2 Z " fill="#63C7FB" transform="translate(72,100)"/>
<path d="M0,0 L4,1 L1,1 L1,8 L11,8 L21,10 L27,11 L26,13 L-8,13 L-8,10 L-15,10 L-19,8 L-1,7 Z " fill="#2C94F6" transform="translate(143,152)"/>
<path d="M0,0 L1,0 L1,12 L-1,14 L-3,20 L-10,22 L-11,17 L-13,13 L-14,4 L-12,5 L-11,8 L-8,5 L-6,5 L-6,7 L-3,6 L-2,7 Z " fill="#56BBFC" transform="translate(965,108)"/>
<path d="M0,0 L56,0 L58,1 L58,7 L80,8 L80,9 L59,9 L54,6 L54,4 L48,4 L48,3 L0,2 Z " fill="#0D4DB5" transform="translate(357,235)"/>
<path d="M0,0 L2,2 L3,34 L0,37 L-2,37 L-4,26 L-3,19 L-4,16 L-2,16 L-2,3 Z " fill="#0F55B7" transform="translate(28,104)"/>
<path d="M0,0 L4,2 L8,4 L8,6 L11,7 L11,13 L10,18 L10,19 L11,22 L10,27 L11,29 L7,27 L2,19 L2,17 L4,16 L0,10 L1,8 L3,8 L1,3 Z " fill="#D4F1F7" transform="translate(93,44)"/>
<path d="M0,0 L1,0 L1,16 L-4,16 L-4,20 L-6,20 L-6,15 L-9,14 L-39,13 L-39,10 L-1,10 Z " fill="#124AAE" transform="translate(244,222)"/>
<path d="M0,0 L1,0 L1,7 L11,7 L17,9 L17,11 L4,12 L-18,12 L-19,7 L-1,6 Z " fill="#2990F4" transform="translate(642,153)"/>
<path d="M0,0 L2,3 L2,5 L5,5 L8,8 L16,9 L16,15 L-2,15 L-3,10 L-1,10 L-1,8 L-5,6 L-3,2 Z " fill="#40A9FD" transform="translate(67,143)"/>
<path d="M0,0 L1,0 L1,6 L3,6 L3,17 L5,18 L5,21 L12,23 L12,26 L8,26 L7,28 L4,27 L3,27 L-2,26 L-3,24 L-5,23 L-2,20 L-2,17 L-4,16 L1,8 L-3,9 L-4,6 L-2,3 L-4,2 Z " fill="#1761BC" transform="translate(569,120)"/>
<path d="M0,0 L27,0 L66,1 L67,3 L1,3 Z " fill="#CFC5FE" transform="translate(0,206)"/>
<path d="M0,0 L1,0 L3,14 L1,14 L2,17 L0,17 L0,19 L-2,19 L-2,21 L-5,21 L-6,28 L15,28 L15,21 L11,22 L8,19 L9,15 L9,17 L16,19 L16,31 L-6,31 L-7,30 L-7,18 L-1,17 L0,10 Z " fill="#2B93F2" transform="translate(535,131)"/>
<path d="M0,0 L1,0 L3,9 L3,15 L-2,19 L-6,18 L-6,26 L16,26 L16,18 L10,18 L7,11 L8,3 L9,3 L11,13 L17,16 L17,28 L-7,28 L-7,16 L-1,17 L0,12 L-1,8 L0,7 Z " fill="#2D93F1" transform="translate(954,133)"/>
<path d="M0,0 L1,2 L6,0 L6,3 L9,0 L12,2 L14,0 L15,2 L15,15 L14,16 L-18,16 L-18,10 L-17,10 L-17,15 L13,15 L13,7 L3,9 L-2,8 L-1,4 L-3,3 L-2,1 Z " fill="#3CA2F5" transform="translate(895,144)"/>
<path d="M0,0 L2,1 L-4,8 L0,8 L-2,13 L-6,18 L-1,17 L-6,22 L-1,23 L-1,26 L-5,30 L-5,28 L-7,27 L-9,22 L-11,21 L-12,23 L-11,19 L-8,18 L-7,15 L-14,15 L-18,16 L-18,13 L-9,12 L-8,9 L-6,9 L-6,3 L-2,1 Z " fill="#5EBDF5" transform="translate(898,104)"/>
<path d="M0,0 L4,1 L2,5 L-3,12 L1,11 L-1,16 L-4,19 L-11,19 L-12,20 L-19,20 L-17,16 L-12,15 L-10,14 L-10,7 L-9,5 L-7,5 L-6,9 L-2,5 L-1,3 L-3,3 L-2,1 Z " fill="#89D5F6" transform="translate(399,82)"/>
<path d="M0,0 L7,3 L7,4 L-6,6 L-119,6 L-119,5 L-22,4 L0,3 Z " fill="#1571DB" transform="translate(120,199)"/>
<path d="M0,0 L1,3 L0,6 L-1,20 L-4,23 L-7,22 L-12,15 L-10,10 L-12,6 L-9,5 L-8,9 L-6,9 L-5,5 L-1,5 Z " fill="#4CB1F9" transform="translate(442,115)"/>
<path d="M0,0 L4,4 L10,4 L11,1 L17,3 L15,7 L15,10 L7,17 L5,17 L5,15 L3,15 L2,7 L0,4 Z " fill="#5EC3FD" transform="translate(977,103)"/>
<path d="M0,0 L1,2 L3,2 L6,5 L5,12 L7,6 L8,9 L14,10 L16,12 L16,16 L18,16 L18,18 L15,19 L13,15 L10,15 L8,14 L5,17 L5,14 L1,15 L-2,15 L-2,12 L-6,13 L-2,9 L-1,6 L-4,7 L-2,3 Z " fill="#145CB8" transform="translate(895,131)"/>
<path d="M0,0 L1,4 L0,9 L-2,12 L-1,14 L-4,20 L-9,22 L-11,18 L-13,17 L-14,12 L-12,8 L-3,7 Z " fill="#50B8FC" transform="translate(494,107)"/>
<path d="M0,0 L2,0 L1,4 L1,26 L2,28 L7,29 L7,23 L9,23 L10,16 L12,20 L10,20 L11,28 L9,28 L9,32 L4,33 L3,44 L2,44 L2,31 L-3,29 L-3,16 L-1,2 Z " fill="#1566CC" transform="translate(50,117)"/>
<path d="M0,0 L1,0 L0,16 L-1,23 L-2,24 L-2,45 L4,47 L9,47 L10,36 L10,26 L12,24 L12,43 L10,48 L4,49 L4,62 L3,62 L3,49 L-5,48 L-6,45 L-5,40 L-4,19 L-2,15 L-2,5 Z " fill="#1B71D5" transform="translate(24,99)"/>
<path d="M0,0 L21,0 L21,5 L16,8 L7,8 L3,6 L0,7 Z " fill="#38A6FE" transform="translate(30,171)"/>
<path d="M0,0 L3,1 L4,8 L5,11 L4,24 L5,26 L4,31 L1,31 L2,37 L19,38 L19,39 L-3,39 L-4,38 L-4,28 L1,28 L2,15 Z M2,34 Z " fill="#3499F5" transform="translate(452,121)"/>
<path d="M0,0 L4,1 L4,6 L2,6 L3,10 L-1,13 L-4,15 L-7,14 L-7,11 L-14,10 L-15,15 L-17,13 L-18,20 L-19,20 L-19,5 L-17,5 L-15,7 L-2,7 L-2,4 L0,4 Z M-8,15 Z " fill="#3B9FF3" transform="translate(435,139)"/>
<path d="M0,0 L1,0 L1,5 L21,5 L21,6 L7,7 L26,7 L32,5 L43,5 L48,6 L48,9 L30,9 L23,11 L17,10 L-1,9 L-3,7 L-2,4 L0,5 Z " fill="#2D6DCE" transform="translate(63,237)"/>
<path d="M0,0 L1,0 L2,9 L6,9 L6,16 L-11,16 L-11,10 L-6,8 L-4,6 L-4,9 L-1,5 Z " fill="#4BB1FD" transform="translate(370,144)"/>
<path d="M0,0 L67,0 L67,3 L0,2 Z " fill="#204FC2" transform="translate(1,221)"/>
<path d="M0,0 L11,0 L12,4 L10,13 L7,16 L2,12 L0,9 Z " fill="#5EC3FE" transform="translate(128,127)"/>
<path d="M0,0 L1,0 L1,62 L0,62 L-1,22 L-4,31 L-6,27 L-7,22 L-3,13 Z " fill="#276EC6" transform="translate(999,83)"/>
<path d="M0,0 L1,0 L3,11 L1,11 L1,13 L-3,14 L-3,16 L-6,16 L-6,24 L18,24 L17,16 L12,16 L9,11 L10,9 L11,12 L19,13 L19,26 L-7,26 L-7,14 L0,12 L-1,8 Z " fill="#2B92F2" transform="translate(8,135)"/>
<path d="M0,0 L2,0 L3,10 L6,10 L6,15 L-11,15 L-11,10 L-10,12 L-6,11 L-5,8 L-5,1 L-3,5 L-1,5 Z " fill="#4DB3FE" transform="translate(135,144)"/>
<path d="M0,0 L53,0 L54,4 L46,3 L1,2 L1,4 L-5,5 L-5,3 Z " fill="#1861C7" transform="translate(6,239)"/>
<path d="M0,0 L27,0 L27,3 L-24,3 L-24,1 Z " fill="#6F60DD" transform="translate(535,274)"/>
<path d="M0,0 L1,0 L2,12 L4,18 L1,21 L-1,23 L-5,31 L-8,30 L-10,28 L-3,14 L-1,1 Z " fill="#1D50A6" transform="translate(413,23)"/>
<path d="M0,0 L56,0 L59,4 L55,3 L1,3 L-4,5 L-2,1 Z " fill="#155EC5" transform="translate(90,239)"/>
<path d="M0,0 L3,1 L4,5 L2,11 L-1,11 L-6,12 L-9,10 L-12,4 L-11,1 L-3,1 L0,2 Z " fill="#5FC5FE" transform="translate(545,105)"/>
<path d="M0,0 L26,0 L26,3 L-24,3 L-24,1 Z " fill="#7262DE" transform="translate(619,274)"/>
<path d="M0,0 L4,5 L7,10 L1,8 L3,12 L3,17 L0,17 L-1,24 L-4,21 L-4,19 L-6,19 L-7,8 L-2,8 Z " fill="#114899" transform="translate(96,64)"/>
<path d="M0,0 L36,0 L38,3 L41,4 L62,5 L62,6 L39,6 L34,4 L34,2 L-17,2 L-17,1 Z " fill="#1760C6" transform="translate(375,239)"/>
<path d="M0,0 L10,0 L10,8 L9,8 L8,2 L4,2 L5,10 L4,17 L-1,17 L-1,19 L15,19 L15,20 L-5,20 L-5,15 L0,15 Z " fill="#CAB3F3" transform="translate(245,223)"/>
<path d="M0,0 L5,5 L1,4 L5,11 L0,9 L1,12 L5,16 L1,16 L5,24 L-1,24 L-3,23 L-5,14 L-3,14 L-3,5 Z " fill="#1457AD" transform="translate(601,97)"/>
<path d="M0,0 L54,0 L56,5 L53,4 L53,2 L0,3 L-4,4 L-2,3 L-2,1 Z " fill="#1053BB" transform="translate(505,236)"/>
<path d="M0,0 L5,5 L8,2 L14,3 L12,7 L13,8 L13,14 L15,14 L13,18 L7,18 L7,14 L11,10 L6,11 L6,9 L3,10 L1,12 L0,9 Z " fill="#45A6ED" transform="translate(58,112)"/>
<path d="M0,0 L4,5 L1,6 L3,11 L1,11 L2,15 L-7,16 L-14,14 L-16,15 L-16,10 L-11,10 L-11,12 L-5,10 L-4,5 L-2,4 L-2,2 L0,2 Z " fill="#155EBB" transform="translate(931,132)"/>
<path d="M0,0 L4,1 L8,2 L12,2 L10,10 L8,15 L3,16 L0,9 Z " fill="#5DC2FE" transform="translate(627,127)"/>
<path d="M0,0 L8,1 L12,6 L13,10 L10,16 L9,12 L3,12 L0,8 L-1,3 L-3,2 Z " fill="#68CAFD" transform="translate(108,112)"/>
<path d="M0,0 L1,0 L2,13 L10,17 L9,20 L-6,20 L-8,19 L-7,12 L-1,12 Z " fill="#125CBD" transform="translate(916,182)"/>
<path d="M0,0 L4,2 L6,6 L4,7 L6,11 L2,10 L4,16 L-4,14 L-5,16 L-6,13 L-9,13 L-10,15 L-12,10 L-3,9 L-3,3 L-1,3 Z " fill="#1258B3" transform="translate(602,132)"/>
<path d="M0,0 L1,0 L1,14 L3,12 L66,13 L70,16 L70,19 L66,17 L65,15 L12,15 L8,16 L6,20 L5,20 L5,15 L0,15 Z " fill="#1851B7" transform="translate(844,223)"/>
<path d="M0,0 L5,0 L9,3 L11,3 L11,6 L13,7 L12,9 L9,9 L9,11 L7,11 L7,15 L5,15 L4,18 L0,12 L0,10 L3,10 L-1,4 Z " fill="#D2EDF5" transform="translate(420,51)"/>
<path d="M0,0 L55,0 L57,3 L-1,2 Z " fill="#165EC5" transform="translate(855,239)"/>
<path d="M0,0 L1,0 L2,9 L0,12 L-3,40 L-6,41 L-6,27 L-4,15 L-1,1 Z " fill="#1D72D6" transform="translate(447,94)"/>
<path d="M0,0 L3,0 L2,6 L-3,13 L1,11 L2,15 L-2,19 L-3,16 L-7,15 L-8,11 L-7,6 L-8,1 Z " fill="#D6F2F8" transform="translate(80,39)"/>
<path d="M0,0 L3,0 L5,0 L7,4 L7,11 L3,21 L0,20 L-1,18 L-3,17 L2,11 L-3,11 L2,3 L-2,4 Z " fill="#1154AD" transform="translate(570,103)"/>
<path d="M0,0 L2,0 L3,4 L2,8 L4,8 L4,10 L8,8 L12,9 L11,19 L9,21 L6,21 L3,18 L2,13 L0,8 Z " fill="#4EB6FC" transform="translate(978,110)"/>
<path d="M0,0 L1,0 L1,12 L8,12 L8,1 L9,1 L9,16 L-11,16 L-11,13 L-11,11 L-1,11 Z " fill="#135EC0" transform="translate(83,186)"/>
<path d="M0,0 L4,1 L5,4 L5,19 L3,22 L-1,22 L-1,12 Z " fill="#176CD7" transform="translate(141,127)"/>
<path d="M0,0 L52,0 L52,2 L55,2 L56,6 L49,2 L6,2 L-4,5 L-24,5 L-24,4 L-3,3 L-3,1 Z " fill="#1962C9" transform="translate(943,240)"/>
<path d="M0,0 L4,0 L5,3 L6,4 L8,6 L8,9 L10,8 L16,8 L18,9 L17,12 L15,12 L12,12 L8,13 L6,13 L2,12 L0,13 L1,9 L-1,8 L0,4 L-2,3 Z " fill="#145EBA" transform="translate(67,134)"/>
<path d="M0,0 L2,0 L4,3 L6,7 L1,14 L4,13 L2,18 L-1,22 L-2,19 L-5,20 L-5,18 L-3,18 L-3,16 L-1,16 L-1,14 L-4,13 L-4,8 L-8,6 L-6,5 L-1,6 Z " fill="#D6F1F7" transform="translate(401,48)"/>
<path d="M0,0 L8,0 L9,14 L14,14 L14,18 L2,18 L2,17 L8,16 L3,14 L4,11 L7,10 L7,6 L2,7 L1,14 L0,14 Z " fill="#DCC2FC" transform="translate(835,224)"/>
<path d="M0,0 L8,1 L6,5 L-3,15 L-7,13 L-9,9 L-9,1 L-8,1 L-7,6 L-1,6 L0,4 L-1,1 Z " fill="#56BAFA" transform="translate(391,126)"/>
<path d="M0,0 L2,4 L3,12 L3,20 L5,26 L4,35 L2,37 L2,35 L0,35 Z " fill="#1563C7" transform="translate(2,93)"/>
<path d="M0,0 L4,0 L4,24 L0,25 L-1,23 L-1,13 L0,5 Z " fill="#1567D2" transform="translate(875,123)"/>
<path d="M0,0 L4,1 L4,4 L6,5 L7,16 L5,17 L6,13 L1,15 L-2,15 L-2,12 L-6,13 L-3,10 L-2,6 L-4,7 L-2,3 Z " fill="#145CB9" transform="translate(396,131)"/>
<path d="M0,0 L2,1 L3,27 L6,32 L-1,31 L-1,29 L-3,29 L-2,22 L-1,8 L0,4 L-2,3 Z " fill="#1769CD" transform="translate(993,115)"/>
<path d="M0,0 L4,1 L5,6 L3,11 L5,14 L5,18 L0,19 L-5,18 L0,12 L-4,13 L-2,9 L1,4 L-5,5 Z " fill="#165CB4" transform="translate(397,109)"/>
<path d="M0,0 L1,4 L-1,7 L-3,14 L-7,12 L-7,10 L-12,14 L-14,10 L-16,6 L-15,4 L-13,4 L-13,6 L-5,4 L-3,2 Z " fill="#64C6FD" transform="translate(966,103)"/>
<path d="M0,0 L5,0 L5,6 L-14,7 L-17,9 L-40,9 L-39,5 L-15,6 L-15,1 L-14,5 L4,5 L4,1 Z " fill="#3E72D1" transform="translate(345,237)"/>
</svg>
