<svg version="1.2" xmlns="http://www.w3.org/2000/svg" viewBox="0 0 750 299" width="750" height="299">
	<title>44654751_9058421</title>
	<style>
		.s0 { fill: #000000 } 
	</style>
	<g id="BACKGROUND">
	</g>
	<g id="OBJECTS">
		<g>
			<path class="s0" d="m53.5 281.1c-3.5-1.2-6.5-3.2-9.5-5.7 0.4 1.8 0.4 1.8 2.8 3.8 1.2 1.1 2.4 2.1 3.6 3.2-3.1 1.2-3.1 1.2-5.3-0.8-0.9-0.9-1.7-1.9-2.7-2.7-0.9-0.8-1.5-0.5-1.6 0.7q-0.2 2 0 4.1 0.4 4.9-0.1 9.7c0 0.6 0 1.3-0.2 1.9-0.4 0.9-0.8 1.8-1.9 1.9-1.1 0.1-1.3-0.8-1.4-1.7 0-0.3-0.2-0.8-0.5-0.7-2.4 0.7-1.6-1.3-1.6-2.2q0-3.3 0.5-6.6c0.1-1.2 0-2.2-0.5-3.3-1.3 0-1.5 1.4-2.5 2-0.1-1.2 0.2-2.1 0.7-3 0.4-0.8 0-1.4-0.7-1.9l0.1 0.1c0.9-1.4 2.2-2.5 2.5-4.6-2.7 2.6-5.4 4.7-7 7.7h0.1c-0.4 0.1-0.9 0.1-1.2 0.3-1 0.5-1.9 1.8-3 0.1-0.1-0.3-0.9 0.3-1.4-0.1-0.1-0.9 0.8-1.1 1.2-1.6 1.4-1.6 3.3-2.8 3.7-5.2 0.2-1.2 1.9-1.9 2.6-3.9-3 2.1-4.3 5.2-7.2 6.6 0.4-2.7 2.2-4.7 3.1-7.8-4 1.7-5.6 5.5-9 7.2 2.7-3.4 5.8-6.4 8.4-10-2.4-0.8-3.1 1.6-4.8 1.7 0 0 0 0.1 0 0.1q1.1-1.7 2.1-3.4c0.6-1 1.2-2.1-0.2-2.9 1.8-4.5 5.9-7.3 8.7-11 0.5-0.8 1.4-1.3 1.4-2.4-0.8-0.5-1.1 0.3-1.5 0.7q-2 2.1-3.9 4.4c-1.1 1.3-2.4 2.1-4.1 1.9v0.1c1.8-2.3 3.4-4.7 4.9-7.2 0.4-0.7 0.6-1.3-0.5-1.6h0.1c1.2-1.8 2.9-3.5 2-6.1-0.2-0.5 0.4-0.9 0.7-1.3 0.6-1.1 1.1-2.2 1-3.5-1.4 0.3-1.8 1.9-3.2 1.9v0.1c2.8-4.2 6.1-7.9 8.3-13 2.2 3.7 5.4 6.2 6.8 9.9-0.5-0.4-1.1-0.9-2-1.6 0.5 2.8 1.4 5 2.5 7.2 1 2.1 3.3 3.6 3.6 6.8-2.6-1.9-3.5-4.7-5.6-6.3-0.3-0.7-0.5-1.5-1.5-1.7-0.1 1 0.5 1.5 1 2.1 1.2 2.8 3.6 5 4.6 8 0 0 0 0 0 0q-0.3 0-0.6 0c-0.1 1.1 0.7 2 0.8 3q-0.2 0.1-0.3 0.3c-2.6-3.8-5.1-7.6-7.8-11.7-0.7 1.7 0 2.6 0.6 3.5 2.5 4.3 5.2 8.6 7.8 12.9 0.9 1.4 2.2 2.5 3.5 3.6 0.8 0.8 1.7 1.6 1.7 2.9v-0.1c-2-0.5-3.1-2.3-5.3-3.2 0.3 1.5 1.2 2.2 1.9 3 1.3 1.6 3 2.8 4 4.7-1.3 0.9-0.8 1.9-0.1 2.9 0.9 1.4 2.4 2.3 3.2 4-1.4 0.3-2.1-0.6-2.8-1.2-0.6-0.5-1-0.5-1.6 0h0.1c-2.3-1.1-3.8-3.3-6-4.4-0.4-0.2-0.6-0.6-1.3-0.2 2.6 3.9 6.7 6.3 9.7 9.6zm-25.2-15.7c0 0 0-0.1 0-0.1zm10.7-25.9v0.1c0 0 0-0.1 0-0.1zm-12.2 27.7q0.1-0.1 0.1-0.3-0.2 0-0.5 0c0 0 0 0.2 0 0.2q0.2 0.1 0.4 0.1z"/>
			<path class="s0" d="m724.8 252.8c0.7 1.9 2.4 3.2 3.4 4.9 0.3 0.5 1 1.3 0.4 1.5-3.4 1.1-0.5 2.6-0.3 3.9q-0.2 0.2-0.4 0.3-0.6-0.1-1.2-0.3c-0.2-0.4-0.5-0.9-0.9-0.5-0.5 0.4 0.1 0.7 0.5 0.8 0.7 1.9 2.4 3.1 3.3 4.8-1.3 1.9 0.2 3.3 1.4 4.6 1.1 1.2 2.8 2.1 4.2 3.2v-0.1c-0.4 0.5-0.8 1-0.3 1.6 0.4 0.7 1.3 1.4 0.4 2.2-0.9 0.7-1.7-0.1-2.6-0.3-1.8-0.4-3.9 0.3-5.4-2.1-0.4 2.1 0.8 2.6 1.5 3.3 1.9 1.9 1.1 4.6-1.6 5.3-0.6 0.2-1-0.1-1.4-0.4-1.1-1-2.7-1.1-4.2-1.4-0.9 1.9 0 3.8 0.1 5.6q0.1 2.9-0.3 5.7c-0.2 1.5-0.9 2.9-2.5 3.8-1.9 1-3.1 0.5-3-1.5 0.2-2.4-0.5-4.9 0-7.4 0.4-1.7-0.2-3.4-0.5-4.9-1.6-0.4-1.4 1.2-2.5 1-0.8-1.4 0.1-2.9 0-4.7-2.9 1.2-3.5 4.2-5.9 5.5-0.8-1.2 1.2-1.9 0.5-3.1-1.5 0.1-2 1.6-3.5 1.8-0.4-0.7 1.2-1.3 0.2-1.9-0.7-0.5-1.4 0.5-2.4 0.2-1.6-4.1 2.4-6.4 4.3-9.7-3.4-0.1-3.9 3.6-7 3.7 0.7-2.6 4.4-3.2 4.6-5.2 0.2-2.2 1.3-3.8 2.8-6.2-3.2 1.1-4.3 3.7-6.9 4.2q2.5-2.9 4.9-5.9c0.5-0.6 1.1-1.2 0.6-1.9-0.6-0.8-1.4-0.3-2.2-0.1-0.7 0.2-1.1 1-2.1 0.7 2.3-3.5 5.6-6.3 7.3-10.6-3 0.6-4 3.5-6.9 3l0.1 0.1c3-2.5 5.5-5.2 7.4-8.4 0.4-0.6 0.7-1 0.2-1.8-2 0.3-3.3 2.1-5.4 2.3h0.1c0.9-1 1.9-1.9 2.7-3 0.8-0.9 1.6-1.9 0.8-3.2-1.5 0.1-2.3 1.4-4 2.1 2.2-3.3 5.5-5.6 7-8.9-1.3-0.8-2.3 0.2-3.4 0.3h0.1c0.5-0.5 0.8-1.2 1.5-1.6 3-1.9 4.9-4.5 6.2-7.5 0.1-0.4 0.3-0.9 0.6-1.2 1.1-1.2 3.3-0.8 3.6 0.6 0.4 1.8 1.4 3.3 2.3 4.9 1.6 2.8 3.3 5.6 3.4 8.9 0 0.7 0.2 1.4 0.5 2.1 1.4 3 1.4 3-2.4 2.6 0.4 1.6 1.7 2.7 2.9 3.8 1.1 1.1 2.6 1.9 3.3 3.4-0.9 0.8-1.4 0-2-0.3-1.7-0.9-1.1 0.8-1.6 1.1q-0.2 0-0.4 0.1 0 0.1 0.1 0.2zm1.4 30.4q0.1-0.1 0.3-0.2-0.2-0.2-0.4-0.4c0 0-0.1 0.1-0.2 0.1q0.1 0.3 0.3 0.5z"/>
			<path class="s0" d="m687.6 276.2c-0.6 0.8-1.5 1-2.4 1.3-1.7 0.6-1.7 1.1-0.4 2.4 1.2 1.1 2.9 1.3 4.3 2.3-1.2 1.3-3.7 0.4-4.2 2.7-0.1 0.3-0.8 0-1.2-0.2-1-0.5-1.9-0.9-3-0.9-0.2 1.1 1 1.5 1.2 2.3 0 0 0 0 0 0-1 0-1.9-1-3-0.7-0.7 0.7 0.7 1.2 0.1 1.9-0.3 0.1-0.6 0.2-0.9 0.2-3.6-0.4-4.1-0.1-4.1 3.5 0 2.6 0.1 5.2 0.1 7.8 0 1.8 0 3.6-1.8 4.7-0.5 0.2-0.9 0.8-1.6 0.5-0.5-0.4-0.6-1-0.6-1.6 0.5-3.9 0-7.7 0-11.6 0-1.2 0.3-2.4-0.4-3.5-1.1-0.3-1.1 1.1-1.9 1.3-1.3-0.2-0.5-2.5-2.1-2.3-1 0.1-2 0.6-3 1-1.6 0.6-3.3 1.1-5.1 0.9-0.8-0.1-1.4-0.3-1.7-1.1-0.3-0.8 0-1.3 0.7-1.8 0.5-0.3 1-0.6 1.3-1.1 0.7-1 1.1-2.1-0.8-2-1 0-1.3-0.3-1.3-1.2-0.1-0.8-0.1-1.6-0.2-2.4-0.2-1.4 0.1-2.3 1.5-2.8 0.8-0.3 1.4-0.8 2.1-1.2 1.3-0.7 1.7-1.6 0.8-2.9-0.8-1.1-0.5-2 0.2-3.2 1.1-1.6 1.4-3.4 1-5.5-0.4-1.5 0.9-3.5 1.7-5.1 0.8-1.4 1.6-3 3.2-4 1.1-0.7 1.1-1.9-0.6-2.1-1.4-0.3-1.3-1.1-0.6-1.8 1.6-1.4 0.9-3.8 2.5-5.3 1.3-1.2 2.4-2.7 3-4.6 0.5-1.6 3.2-1.4 4.3 0.3 1.4 2.1 2.9 4.2 5.7 5.1-0.6 0.9-2.2 0.9-1.7 2.5 0.3 1-0.7 2.3 0.3 3.3 0.3 0.3 0.6 0.5 0.8 0.8 0.6 1.1 1.2 2.2 1.8 3.4-1.4 0.4-1 2.2-1.5 2.5-2 1.4-0.7 2.1 0.3 2.9 1.4 1.1 3 2.2 4.5 3.3 0.5 0.3 1 0.6 1.1 1.3-0.5 0.9-1.2 0.3-1.8 0.3-1.3-0.2-2.3-0.2-1.4 1.5 0.1 0.1 0.1 0.2 0.2 0.4 0.2 1-1.7 1.8-0.2 3 1 0.8 2.2 0.7 3.4 0.8 0.3 0 0.6 0.2 0.9 0.3-0.6 2.1-3.1 0.8-4 2.6 0.9 1.8 3.1 1 4.5 1.8zm-29.3 1.3q0.2-0.4-0.3-0.4c-0.1-0.1-0.2-0.1-0.3 0-0.2 0.1-0.2 0.4 0 0.5 0.1 0.1 0.4 0 0.6-0.1z"/>
			<path class="s0" d="m410.7 277c-0.4 0.6-1.1 0.8-1.7 1-1.3 0.4-1.3 0.8-0.3 1.8 0.9 0.8 2.1 1 3.2 1.7-1 1-2.8 0.3-3.2 2 0 0.3-0.6 0-0.9-0.1-0.7-0.4-1.4-0.7-2.2-0.7-0.2 0.8 0.7 1.1 0.9 1.7-0.8 0-1.4-0.7-2.3-0.5-0.5 0.5 0.5 0.9 0.1 1.4-0.2 0.1-0.4 0.2-0.7 0.1-2.7-0.3-3 0-3 2.7 0 1.9 0.1 3.9 0.1 5.8 0 1.3 0 2.7-1.4 3.5-0.3 0.2-0.7 0.6-1.2 0.4-0.4-0.3-0.5-0.8-0.4-1.2 0.4-2.9 0-5.8 0-8.7 0-0.8 0.2-1.7-0.3-2.6-0.9-0.2-0.9 0.8-1.5 1-1-0.2-0.3-1.9-1.5-1.8-0.8 0.1-1.5 0.5-2.2 0.8-1.3 0.4-2.6 0.8-3.9 0.7-0.6-0.1-1-0.2-1.2-0.8-0.3-0.6 0-1 0.5-1.4 0.3-0.2 0.7-0.5 1-0.8 0.4-0.8 0.8-1.6-0.7-1.5-0.7 0-0.9-0.3-0.9-0.9-0.1-0.6-0.1-1.2-0.2-1.8-0.1-1 0.1-1.7 1.2-2.1 0.5-0.2 1-0.6 1.5-0.9 1-0.5 1.3-1.1 0.6-2.1-0.6-0.8-0.4-1.5 0.2-2.4 0.8-1.2 1-2.5 0.7-4.2-0.2-1.1 0.7-2.5 1.3-3.7 0.6-1.1 1.2-2.3 2.4-3.1 0.8-0.5 0.8-1.3-0.5-1.5-1-0.2-0.9-0.8-0.4-1.3 1.1-1.1 0.6-2.9 1.8-4 1-0.9 1.9-2 2.3-3.5 0.4-1.1 2.4-1 3.2 0.3 1.1 1.6 2.1 3.1 4.3 3.8-0.5 0.7-1.7 0.7-1.3 1.9 0.2 0.7-0.5 1.7 0.2 2.4 0.2 0.2 0.5 0.4 0.6 0.6q0.7 1.3 1.3 2.5c-1 0.3-0.7 1.7-1.1 2-1.4 0.9-0.5 1.5 0.2 2.1 1.1 0.8 2.3 1.6 3.4 2.5 0.4 0.2 0.8 0.4 0.8 0.9-0.3 0.7-0.9 0.3-1.3 0.2-1-0.1-1.7-0.1-1.1 1.2 0.1 0.1 0.2 0.2 0.2 0.2 0.1 0.8-1.3 1.4-0.2 2.3 0.8 0.6 1.7 0.5 2.6 0.6 0.2 0 0.4 0.1 0.7 0.2-0.5 1.6-2.4 0.7-3 2 0.7 1.3 2.3 0.7 3.4 1.3zm-22 1q0.2-0.3-0.1-0.3-0.2-0.1-0.3 0c-0.2 0.1-0.2 0.3 0 0.4 0.1 0 0.3-0.1 0.4-0.1z"/>
			<path class="s0" d="m469.9 280.4c-0.4 0.5-1 0.7-1.6 0.9-1.1 0.4-1.1 0.8-0.2 1.6 0.8 0.8 2 1 2.9 1.7-0.9 0.9-2.6 0.2-2.9 1.8 0 0.2-0.6 0-0.9-0.2-0.6-0.3-1.3-0.6-2-0.6-0.1 0.8 0.7 1 0.8 1.6 0 0 0 0 0 0-0.7 0-1.3-0.7-2-0.5-0.6 0.5 0.4 0.9 0 1.4-0.2 0-0.4 0.1-0.6 0.1-2.5-0.3-2.8-0.1-2.8 2.4 0 1.8 0.1 3.6 0.1 5.4 0 1.2 0 2.5-1.3 3.2-0.3 0.2-0.6 0.6-1.1 0.4-0.4-0.3-0.4-0.7-0.4-1.1 0.3-2.7 0-5.4 0-8 0-0.8 0.2-1.7-0.3-2.4-0.8-0.2-0.8 0.7-1.3 0.9-0.9-0.2-0.4-1.8-1.5-1.7-0.7 0.1-1.3 0.5-2 0.7-1.2 0.5-2.3 0.8-3.6 0.7-0.5-0.1-0.9-0.2-1.1-0.8-0.2-0.5 0-0.9 0.5-1.2 0.3-0.2 0.7-0.5 0.9-0.8 0.4-0.7 0.7-1.5-0.6-1.4-0.7 0.1-0.9-0.2-0.9-0.8 0-0.6 0-1.1-0.1-1.7-0.2-0.9 0.1-1.5 1-1.9 0.5-0.2 1-0.6 1.5-0.8 0.8-0.5 1.1-1.1 0.5-2-0.6-0.8-0.4-1.4 0.1-2.2 0.8-1.1 1-2.4 0.7-3.9-0.2-1 0.6-2.3 1.2-3.4 0.6-1.1 1.1-2.1 2.2-2.8 0.8-0.5 0.8-1.3-0.4-1.5-0.9-0.1-0.9-0.7-0.4-1.2 1.1-1 0.6-2.6 1.7-3.7 0.9-0.8 1.7-1.8 2.1-3.2 0.4-1 2.2-0.9 3 0.2 0.9 1.5 1.9 3 3.9 3.6-0.4 0.6-1.5 0.6-1.2 1.7 0.2 0.7-0.5 1.6 0.3 2.3 0.1 0.2 0.3 0.3 0.4 0.6q0.7 1.1 1.3 2.3c-1 0.3-0.6 1.5-1 1.7-1.4 1-0.5 1.5 0.2 2 1 0.8 2 1.6 3.1 2.3 0.3 0.2 0.7 0.4 0.8 0.9-0.4 0.6-0.9 0.2-1.3 0.2-0.9-0.2-1.6-0.1-1 1.1q0.1 0.1 0.2 0.2c0.1 0.7-1.2 1.3-0.2 2.1 0.8 0.5 1.6 0.4 2.4 0.5 0.2 0 0.4 0.2 0.6 0.3-0.4 1.4-2.2 0.5-2.8 1.7 0.7 1.3 2.2 0.8 3.2 1.3zm-20.3 0.9q0.2-0.3-0.1-0.3-0.2 0-0.3 0c-0.1 0.1-0.2 0.3 0 0.3 0.1 0.1 0.3 0 0.4 0z"/>
			<path class="s0" d="m81.7 273.5c-0.5 0.7-1.2 0.9-2 1.1-1.3 0.5-1.4 0.9-0.3 2 1 0.9 2.4 1.1 3.6 1.9-1.1 1.1-3.1 0.3-3.5 2.2-0.1 0.3-0.7 0-1.1-0.2-0.7-0.3-1.5-0.7-2.4-0.7-0.2 0.9 0.8 1.2 1 1.9 0 0 0 0 0 0-0.9 0-1.5-0.8-2.5-0.6-0.6 0.6 0.6 1 0.1 1.6-0.2 0-0.5 0.2-0.8 0.1-2.9-0.3-3.3 0-3.3 3 0 2.1 0.1 4.2 0.1 6.3 0 1.5 0 3-1.5 3.9-0.4 0.2-0.7 0.7-1.3 0.4-0.5-0.3-0.5-0.8-0.5-1.3 0.4-3.2 0-6.4 0-9.5 0-1 0.2-2-0.3-2.9-0.9-0.2-0.9 0.9-1.6 1.1-1.1-0.2-0.4-2.1-1.7-2-0.8 0.1-1.6 0.6-2.5 0.9-1.3 0.5-2.7 0.9-4.2 0.7-0.6 0-1.2-0.2-1.4-0.9-0.2-0.6 0.1-1.1 0.6-1.4 0.4-0.3 0.9-0.6 1.1-1 0.5-0.8 0.9-1.7-0.7-1.6-0.8 0-1.1-0.3-1.1-1 0-0.7 0-1.3-0.1-2-0.2-1.1 0.1-1.8 1.2-2.3 0.6-0.2 1.2-0.7 1.8-1 1-0.6 1.4-1.2 0.6-2.3-0.7-0.9-0.4-1.7 0.2-2.6 0.8-1.4 1.1-2.8 0.7-4.6-0.2-1.3 0.8-2.8 1.5-4.1 0.7-1.3 1.3-2.5 2.6-3.4 0.9-0.6 0.9-1.5-0.5-1.7-1.1-0.2-1-0.9-0.5-1.5 1.3-1.2 0.7-3.1 2.1-4.3 1.1-1.1 2-2.3 2.5-3.8 0.4-1.3 2.6-1.2 3.5 0.2 1.2 1.8 2.3 3.5 4.7 4.2-0.5 0.8-1.9 0.8-1.5 2.1 0.3 0.8-0.5 1.9 0.3 2.7 0.3 0.2 0.5 0.4 0.6 0.7q0.8 1.3 1.5 2.7c-1.1 0.4-0.7 1.9-1.2 2.1-1.6 1.1-0.5 1.7 0.2 2.4 1.2 0.9 2.5 1.8 3.8 2.7 0.4 0.3 0.8 0.5 0.9 1.1-0.4 0.7-1 0.3-1.5 0.2-1.1-0.2-1.9-0.2-1.2 1.3 0.1 0.1 0.1 0.1 0.2 0.2 0.1 0.9-1.4 1.6-0.2 2.5 0.9 0.7 1.8 0.6 2.8 0.7 0.3 0 0.5 0.1 0.8 0.3-0.5 1.6-2.6 0.6-3.3 2.1 0.8 1.5 2.5 0.8 3.7 1.5zm-24.1 1.1q0.2-0.4-0.2-0.4-0.2-0.1-0.3 0c-0.2 0.1-0.2 0.3 0 0.4 0.1 0.1 0.3 0 0.5 0z"/>
		</g>
		<g>
			<g>
				<path class="s0" d="m348.4 47.5q0 0-0.1 0 0.1 0 0.1 0z"/>
				<path class="s0" d="m716.4 262c-3.2-1.6-6-4-9.4-5.5-4.1-1.8-8.5-3.5-11.6-7.1-0.7-0.8-1.6-1.3-2.4-2q-6.3-4.6-11.8-10.1c-3-2.9-6.1-5.7-9.1-8.6-2.9-2.7-6.1-5.1-8.9-8-4.1-4.2-7.8-8.8-12.3-12.6-3.8-3.4-6.7-7.5-9.1-11.9-0.3-0.6-0.6-1.2-0.6-1.8 0.7-0.2 1.1 0.1 1.3 0.4 3.8 4.2 8 8 11.2 12.7 2.4 3.6 5.1 7 8.7 9.5 9.7 6.9 19.5 13.6 29 20.7 5.1 3.8 10.8 6.9 16 10.6 1.3 1 2.9 1.7 4.3 2.4 0.3 0.2 0.7 0.2 1 0 0.4-0.4 0.2-0.8 0-1.2-1.1-1.7-2.4-3.2-4.1-4.3-8.4-5.3-16.3-11.4-24.3-17.3-5.2-3.9-10.5-7.7-15.9-11.3-4.3-2.9-8.3-6.2-11.4-10.4-4-5.4-8.9-9.9-14.3-13.9-1.4-1.1-3.1-1.9-4.2-3.4-3.3-5-7.7-8.9-12.1-12.9-2.3-2-4.7-3.8-6.8-6-6.6-7-13.7-13.5-19.1-21.5-1.4-2.1-3.3-3.8-5.1-5.5-4.1-3.9-7.6-8-10.5-12.9-2-3.3-5.4-3.1-7.4 0.1-0.3 0.5-0.7 1.1-1 1.5-1.1 1.3-1.5 1.4-2.8 0.3-3.1-2.7-5.9-5.9-8.7-8.9-1-1-1.7-2.4-2.2-3.8-2.4-6.9-5.8-13.2-10.2-18.9-5.1-6.6-10.4-13.1-15.3-20-3.3-4.6-7.5-8.4-11.9-11.9-1.5-1.3-3.4-1.3-4.9-2.2-2.7-1.7-5.3-1.2-7.8 0.2-4.9 2.7-9 6.3-12.3 10.7-6.1 8.3-13.8 15.3-20.8 22.9-1.5 1.7-2.2 1.6-3.1-0.2-1.9-4.4-4.9-8.2-7.4-12.2-2.9-4.7-6.1-9.2-9.9-13.3-2.6-2.7-4.4-6-5.9-9.4-1.3-2.8-3-5.2-5.4-7.2-4.2-3.4-8.2-7-11.4-11.4-1.9-2.7-3.9-5.3-6.2-7.6-1.5-1.5-2.7-3.1-3.9-4.9-1.6-2.2-3.2-4.6-5.4-6.3-2.2-1.8-4.4-3.6-6.4-5.7-2.6-2.6-5-6.5-8.7-6.2-0.6 0.1-1.2 0-1.8-0.1-1.1-0.1-2-0.5-2.6-1.5-1.3-2.3-3.3-2.8-5.8-2.6-2 0.2-5.6-4.6-7.6-5.4-2.5-1-12.5 14.1-15.6 17.2-4.1 4-8 8.3-11.9 12.6-1.7 1.8-3.8 3.4-5 5.6-2.7 5.1-4.7 10.4-6.6 15.8-2.9 8.5-7.2 16.3-12.7 23.5-1 1.2-2.1 2.4-3.6 3.2-0.6 0.3-1.2 0.4-1.7-0.1-0.5-0.5-0.6-1.2-0.2-1.7 0.5-0.8 1.1-1.6 1.7-2.3 2.4-3 5.1-5.9 7.2-9.2 4.4-7.2 6.7-15.1 8.6-23.2-0.6 0.1-1.1 0.3-1.6 0.6-5 3.1-9.2 7-12.3 12-1.9 3-3.8 5.9-6.8 7.8-4.1 2.7-7.2 6.4-10.3 10.2-2.3 2.9-5.1 5.4-8.6 6.9-1.4 0.6-2.1 1.6-2.5 3.1-0.6 2.4-1.4 4.8-2.6 7-4 7.4-8.6 14.5-13.6 21.2-4.7 6.2-9.9 11.8-15.8 16.9-5.5 4.7-11.1 9.3-16.3 14.5-1.5 1.5-3 3.1-4.6 4.5-1.5 1.4-2.3 1.4-3.3-0.3-2.3-3.7-6.1-6.1-8.9-9.4-0.8-1.1-2.1-1.8-3.4-2.3-1.7-0.6-3.4-1.3-5.1-1.9-3.3-1.1-6.3-2.7-8.2-5.7-2.9-4.5-7.1-7.7-10.9-11.3-1.4-1.4-3-2.4-4.7-3.3-3.2-1.7-6.6-3.1-9.7-4.9-3.3-2-6.6-1.7-9.6 0.9-1.5 1.3-2.9 2.5-4.2 3.9-8.2 8.6-16.5 17-25.4 24.9-6.8 6.1-13.6 12.1-20.1 18.5-8.2 7.9-16.3 16-24.9 23.5-1.8 1.5-3.2 3.2-4.4 5.1-1.8 2.9-3.8 5.6-6.3 7.9-8.6 8.1-16.3 17-25 24.9-8 7.4-15.6 15.3-24 22.2-4.4 3.6-8.7 7.1-13.4 10.3-2.7 1.9-29.3 17.7-28.3 17.9 1.7 0.3 11.8-3.1 13.5-3.3 4.5-0.2 13.1-9.1 17.4-9.9 1.2-0.2 1.8-3.4 2.9-3.9 4-1.6 11.6-5.7 15.7-7.2 2-0.7 7.2-3.7 9.1-4.7 4.4-2.3 12.7-7.2 17.7-6.4 4.6 0.7 6.5 13.9 9.6 10.2 3.5-4.2 8.3-6 13.7-6.3 4.4-0.2 8.9-0.6 13.3 0 3.5 0.5 6.4-0.6 9.2-2.6 4.9-3.6 9-8 12.1-13.1 2.4-4 5.6-7 9.4-9.5 2.4-1.7 3.8-1.3 5.1 1.4 0.4 0.8 1.6 6.6 1 7.3-4.5 5.4-80.9 58.4-83.5 59.5-0.4 0.2-1 0.4-0.9 1 0.1 0.7 0.6 1.1 1.2 1.2 1.1 0 2.1 0.1 3.2 0 3.8-0.4 36.4-12.8 40.2-12.8 3.2 0.1 10.9-4.9 14-5.2 4.1-0.4 19-1.8 23.1-1.4 0.5 0.1-24.8 15.2-24.6 15.9-0.2 0.7-9.9 7.1-10.1 8 0.7 0 1.3 0 1.9 0q1-0.1 2-0.2c11.3-1.5 46.4-21.8 57.6-19.9 2.1 0.3 4.3 0.9 6.4 0.4 1-0.3 2.1-0.3 3.1-0.4 3.3-0.2 6.3 1 9.5 1.4 1.5 0.2 3 0.5 4.3-0.3 3.8-2.3 7.6-4.5 11.3-6.9 2.5-1.7 4.3-4.3 6.1-6.8 1.8-2.6 3.7-5.2 6.1-7.3 1.9-1.6 2.3-1.7 3.4 0.7 1.8 3.9 5 5.5 8.9 6.2q2.2 0.5 4-0.6c4.2-2.5 7.9-5.4 10.1-9.9q0.6-1.1 1.4-2.2c2.4-3.4 3.1-3.6 6.6-1.1 3.6 2.6 7.5 4.7 11.3 6.9 1 0.6 2.2 0.5 3.2 0.9 0.6 0.2 1.5 0.3 1.5 1.2-0.1 0.7-0.8 0.8-1.4 1-1.3 0.4-2.7 0.8-4 1.3-3.6 1.3-6.7 3.4-9.7 5.8-3.5 2.7-6.9 5.6-10.1 8.7-0.5 0.5-1.5 1-0.8 2.1 0.7 1.2 1.6 0.9 2.7 0.5 1.2-0.5 2.4-1 3.6-1.5 4.3-1.9 8.6-4.1 13.2-5.2 2.1-0.5 4.3-0.9 6.3-1.6q3.9-1.4 7.9-1.2c2.3 0.1 3.8-0.9 4.9-2.7 0.4-0.7 0.8-1.4 1.2-2 3.8-5.6 6.3-11.8 9.5-17.6 1.3-2.2 2-2.5 4.1-1.1 0.4 0.2 0.7 0.5 1 0.8 4.9 3.9 9.9 7.6 15.1 11.1 1.6 1.1 3.3 2.1 5.3 2.6 0.4 0.2 0.9 0.2 1.1-0.3 0.2-0.4-0.1-0.7-0.3-0.9-0.2-0.2-0.4-0.3-0.6-0.5-2.3-2.7-5.4-4.4-8.1-6.5-3.7-3-7.4-5.9-11.3-8.7-3.1-2.2-6.6-2-9.5 0.4q-1.1 0.8-2 1.7c-3.4 3.1-6.2 6.6-10.4 8.8-2.3 1.2-3.9 1.4-6 0.2-0.9-0.6-1.9-1.1-2.8-1.8-5.1-4-9.5-8.8-14.6-12.9-1-0.8-1.8-2-2.4-3.3-1.4-3-1.3-6.1-0.4-9.1 0.8-2.8 0.3-4.9-1.6-7-1.2-1.3-2.5-2.7-3.4-4.2-1.6-2.6-3.8-4.7-5.8-6.9-2.2-2.4-5.6-2.7-7.9-0.6-2.6 2.4-5.9 2.7-9 3.8-0.4 0.1-0.7 0-0.8-0.4-0.1-0.3 0-0.5 0.3-0.7q0.6-0.4 1.3-0.7c3.4-1.7 6.2-4 8.3-7.2 1.2-1.9 3.5-2.2 5.4-0.8 2.1 1.7 4 3.6 5.8 5.5 1.3 1.3 1.5 1.3 2.6-0.1 2.2-3.3 4.4-6.6 6.3-10.1 1.4-2.5 1.4-2.5 3.3-0.3 2.2 2.5 4.5 4.8 7.2 6.7 4.6 3.3 8.4 7.2 11.5 11.9 1.3 1.9 2.6 3.9 4.4 5.5 0.7 0.6 0.8 1.2 0.2 2-3 3.7-5.1 8-8.3 11.6-0.3 0.4-0.6 0.8-0.9 1.2-0.7 0.9-0.5 1.6 0.2 2.4 0.7 0.8 1.4 0.7 2.3 0.1 1.6-1.2 3.2-2.3 4.7-3.6 2.7-2.3 4.9-5.1 8-7.1 1-0.6 1.8-0.8 2.8-0.1 0.6 0.4 1.3 0.7 1.7 1.3 3 3.5 7.1 5.2 11.3 6.4 6.2 1.7 11.7 4.8 16.9 8.5 2.1 1.5 4.3 2.9 6.5 4.2 0.6 0.3 1.3 0.9 2.4 0.4-0.7-1.4-1.7-2.4-2.8-3.4-2.8-2.5-6-4.4-9.2-6.4-3.6-2.2-7.3-4.5-11.5-5.9-4.3-1.4-8.3-3.1-11.6-6.5-3-3-5.7-3-9.4-0.6-0.5 0.3-0.9 1-1.7 0.9 0.1-0.4 0.1-0.6 0.2-0.7q0.6-0.7 1.2-1.3c2-2 2.2-3.8 0.4-5.9-1.3-1.7-2.5-3.5-3.7-5.3-2.8-4.3-6.2-7.9-10.3-10.9-2.5-1.9-5.3-3.2-7.6-5.4-3.3-3.2-6.7-6.3-10.1-9.4-1.1-1-1.9-2.2-2.8-3.4-2.6-3.5-4-7.6-6.2-11.3-0.4-0.7-0.7-1.5-0.2-2.2 0.6-0.8 1.5-0.7 2.4-0.6 0.6 0.1 1.1 0.4 1.5 0.9 2.2 2.1 4.5 4.1 6.5 6.3 4.4 4.7 8.5 9.6 13.7 13.4 0.3 0.2 0.5 0.5 0.7 0.8 4 4.9 9.3 8.6 13.6 13.2 0.7 0.9 1.6 1.5 2.5 2.3 3 2.8 6.8 4.4 10.1 6.8 3.7 2.8 6.9 6.1 9.2 10.1 1.1 1.9 2.4 3.3 4.4 4 1.1 0.4 1.8 0.9 2.6 1.7 0.9 0.9 1.8 2.3 3.5 1.3 0.4-0.2 0.8 0.1 1.1 0.4 0.7 0.7 1.5 1.2 2.2 1.9 4 3.9 8.6 6.9 13 10.2 2 1.5 2 1.4 1.5 3.7-0.1 0.6-0.4 1-0.6 1.5-1.3 2.7-3.3 5.1-4.4 7.9-1.4 3.9-4.5 6.8-5.9 10.6-0.1 0.4-0.5 0.8-0.8 1-3.3 2-6.3 4.4-9.8 5.9-5 2.2-10.1 4.2-15.1 6.3-0.8 0.4-2.1 0.7-1.7 1.9 0.4 1.3 1.6 1 2.7 0.8 0.2 0 0.5-0.1 0.7-0.1 3-0.3 5.8-1.1 8.8-1.3 4.2-0.2 8.4-0.5 12.5-1.9 2.8-0.9 5.3-2.1 7.4-4.2 1.6-1.7 3.4-3.1 5.6-4 3.2-1.4 6.7-2 9.9-3.3 1.5-0.7 3.2-1.2 4.8-1.8 4.6-1.4 9.2-2.5 14-2.3 0.9 0 1.8-0.3 2.6-0.4 1.9-0.4 3.7-0.2 5.6 0.3 4.3 1.2 8.4 2.5 13 2.4 4-0.2 8.1 0.5 12.1 1.5 2.9 0.8 5.7 2.1 8.7 2.4-0.3-0.7-1-0.8-1.7-1-1-0.4-2.1-0.8-3.1-1.4-4-2.4-8.2-4.4-12.4-6.4-3.6-1.7-7.3-3.2-11-4.7-5.4-2.2-10.7-4.9-16.4-6.6-4.5-1.4-9-2.9-13.4-4.9q-3.5-1.6-6.6-4c-0.6-0.4-1.2-1-0.9-1.9 1.1 0 1.8 0.6 2.6 0.9 2.7 0.9 4.9 2.6 7.7 3.4 3.7 1.1 7.4 2.5 11.2 3.4 2.2 0.5 4.2 1.4 6.3 2.2 3.6 1.5 7 3.6 10.5 5.3 3.3 1.7 6.6 3.3 9.9 5.2 5.3 3.1 11 4.8 17.1 5.7 4.1 0.6 8.2 1 12.4 1.5 3.9 0.4 7.9 0.8 11.8 1.1 0.5 0.1 1.1 0.3 1.2-0.7-1.6-1.1-3.5-1.6-5.4-2.2-5.2-1.5-10.6-1.5-15.9-2.1-5.1-0.5-10.2-1.1-15-3.1-2.6-1-5.2-2.3-7.7-3.7-3.4-2-7.2-3.4-10.6-5.4-5.1-2.7-10.2-5.2-15.9-6.2-2-0.3-3.9-1-5.8-1.4-0.7-0.2-1.4-0.3-1.8-1.2 1.8-0.9 3.7-1.2 5.4-2 4.5-2.2 9.1-4.1 13.7-6.2 5.4-2.4 10.8-4.8 15.5-8.4 2.1-1.7 4.4-3.2 7-3.9 4.1-1.1 7.5-3.5 10.7-6.1 4.7-3.9 8.6-8.6 12.1-13.5 3.1-4.4 5.3-9.2 8.1-13.7 0.6-0.9 1.2-2.3 2.5-1.6 1.2 0.6 0.4 1.9 0 3-2.3 5.1-5.4 9.8-8.5 14.5-1.6 2.3-3.1 4.5-4.4 7.1 1.3 0.4 2.2-0.2 3.2-0.4 1.2-0.2 2.3-0.1 2.9 1.4 0.7 1.7 2.1 2.9 3.9 3.6 1.9 0.9 1.9 1 1.6 2.9-0.4 2-1.1 3.8-2.2 5.6-1.1 1.7-2.2 3.5-3.2 5.3-1.9 3.8-4.6 7-7.7 9.7-3.8 3.2-7.3 6.7-10.7 10.2-1.5 1.6-2.9 3.3-4.2 5-0.9 1.3-0.6 3 0.5 4.1 1.2 1.1 2.2 0.3 3.2-0.4 4.6-3.4 9.8-5.7 15-7.7 9.3-3.7 17.4-9.3 25.1-15.4 2.8-2.2 5.5-4.5 8.5-6.5 5-3.3 7.6-7.6 6-13.9-0.8-3.3-1-6.8 1.1-10 3.8-6 3.8-12.7 3.5-19.4 0-1.4-0.6-2.9-1.8-3.8-0.8-0.7-1.6-0.7-2.3 0.2-0.2 0.4-0.4 0.8-0.6 1.2-2 3.6-4.5 7-7.1 10.2-2 2.3-4 4.6-6.3 6.5-0.6 0.4-1.3 0.9-1.9 0.2-0.7-0.6-0.2-1.3 0.2-1.8 0.9-1.2 2-2.2 2.9-3.4 3.1-3.8 4.9-8.3 6.9-12.7 1-2.1 1.7-4.4 3.4-6.1 0.8-0.8 1.1-1.4 0.9-2.5-0.2-0.9-0.3-1.9-0.5-2.8-0.8-2.5-0.8-5.1-0.9-7.7-0.1-1.1 0-2.2 0.7-3.2 1.2 0.4 1.2 1.5 1.5 2.3 2.9 7.3 6.7 14.3 9.9 21.5 2.3 5.4 5.6 10.3 8.2 15.6 2.6 5.5 6.8 9.8 11.7 13.3 3.5 2.5 7 4.9 9.8 8.1 0.8 0.8 1.1 1.5 0.6 2.5-0.2 0.6-0.4 1.2-0.6 1.7-2.5 5.6-6.4 10.1-10.8 14.2-1.1 1.1-2.6 2-4.1 2.7-4.1 1.6-8.3 3.1-12 5.4-1.1 0.7-2.3 1.2-3.5 1.8-7.6 3.6-14.5 8.4-21 13.8-2.3 2-4.4 4.4-7.2 5.9-2.1 1.1-3.9 2.5-5.8 3.8-1.4 1-2.5 2.2-3.4 3.6-0.8 1-0.6 2 0.3 3 0.8 0.8 1.6 0.4 2.3-0.2q0.4-0.3 0.9-0.6c6.5-4.7 13.7-7.9 21.5-10 4.4-1.1 8.8-1.6 13.2-2.8 2.2-0.6 4.6-0.8 6.8-1.7 0.6-0.2 1.4-0.2 2.1-0.2 0.4-0.1 0.9-0.1 1 0.4 0.2 0.4 0 0.6-0.3 0.9-4 4.2-6.8 9.4-11.2 13.3-1.4 1.2-3 2-4.4 3.2-0.4 0.4-1 0.7-0.6 1.5 0.3 0.7 1.1 0.7 1.5 0.4 1.8-1.6 4-1.4 6.1-1.6 0.9-0.1 1.8-0.7 2.6-1.2 3-2 5.8-4.4 8.4-6.9 1.4-1.4 2.9-2.2 4.7-2.5 2.4-0.4 4.8-0.7 7.2-0.7 4.4-0.1 8.7 0.4 13 0.7 4.5 0.3 5.6-0.5 7.5-4.4 1.3-2.6 2.4-5.2 4-7.6 1.5-2.1 3.6-2.6 5.7-1.3 1.2 0.7 2.3 1.4 3.2 2.3 4.6 4 9.7 7.3 15.2 9.9 3.6 1.7 7.1 3.6 11.1 4.2 2.8 0.5 5.6 1 8.5 1.4 4.4 0.7 8.6 1.7 12.7 3.4 2.7 1.2 5.7 1.6 8.6 2.2 0.4 0.2 1.1 0.3 1.3-0.4 0.1-0.5-0.3-0.8-0.7-1-2.1-1.5-4.5-2.6-6.9-3.5-3.4-1.2-6.7-2.5-9.8-4.2-2.4-1.3-4.8-2.4-7.3-3.3-2-0.7-3.9-1.4-5.8-2.4-8-4.2-14.9-10.1-21.3-16.5-3.8-3.8-7.5-7.6-11.9-10.7-3.2-2.2-6.1-4.8-9.8-6.2-0.6-0.3-0.9-0.8-1.2-1.4-1.7-2.8-2-6.2-3.7-9.5 1.9 1 3.3 1.9 4.5 2.9q6.7 5.2 14.2 9.2c7.1 3.9 13.8 8.5 20.1 13.7 3 2.5 6 5 9.3 7 5.7 3.4 11.3 6.8 17 10 1.8 1 3.4 2.2 5.4 2.5-0.3-0.4-0.6-0.8-1-1.1-5-3.3-9.9-6.7-15-9.8-6-3.5-11.6-7.6-16.8-12.2-4-3.6-8.3-7-12.8-10.1-5.6-3.7-11.3-7.1-16.9-10.7-1.5-1-3.3-1.7-4.2-3.4-2.8-5.6-7.1-9.9-11.7-14.1-5.5-5.2-10.1-11.2-13.5-18-2.6-5-5.2-10-8.3-14.7q-1.7-2.6-3.2-5.3c-3.6-6.6-7.2-13.2-10.8-19.8-1.6-2.8-2.9-3.4-6-2.9-1.4 0.2-2.7 0.6-4 1.2-1.8 1-3.8 1.7-5.6 2.7-3.4 1.9-7.2 3.4-10.1 6.3-0.9 0.9-4.6 1-5.7 0.2-2.6-1.9-5.4-3.7-7.8-5.9-4.2-3.9-7.8-8.2-11.6-12.3-1.1-1.1-2.2-2.2-3.5-3.1-4.6-3.4-8.3-7.5-9.7-13.4-0.2-0.9-0.3-1.7-0.1-2.7 0.3-1.8 0.5-3.6 0.3-5.5q-0.1-2.1-2.2-2.4c-0.8-0.2-1.7-0.4-2.6-0.3-2.7 0.3-5.5 0.7-8.2 1-1.1 0.1-2 0.5-2.9 1-3.2 2-6.4 3.9-9.9 5.2-2.9 1-5.8 1.8-8.5 3.1q-1.4 0.6-2.9 1.2c-0.7 0.2-1.5 0.4-1.8-0.5-0.3-0.8 0.4-1 0.9-1.3 4.1-2.2 8.2-4.1 12.5-5.8 2.9-1.1 6-2 8.6-3.6 1-0.6 1.9-1.5 2.9-1.7 1.8-0.4 2.7-1.5 3.5-2.9 3.1-5.2 7.1-9.6 11.6-13.6 2.2-2.1 3.7-4.7 5.4-7.2 0.6-0.8 0.2-1.4-0.7-1.4-1.1-0.1-2.3 0-3.3 0.4-1.8 0.8-3.5 1.5-5.3 2.3-0.5 0.2-1.1 0.5-1.7 0.7-0.5 0.1-1 0-1.2-0.6-0.3-0.6-0.2-1.1 0.3-1.4 0.7-0.4 1.3-0.9 2.1-1.2 1.8-0.7 3.5-1.7 5.3-2.6 2.8-1.5 5.7-2.4 9-1.5 1 0.3 2.1 0.3 3.1 0 2.1-0.5 4.2-1 6.3-1.7 2.8-0.9 3.5-3.4 1.4-5.6-2.1-2.3-4.5-4.4-6.6-6.6-3.7-3.9-7.3-8-9.4-13-1.7-4.1-3-8.3-4.3-12.5-1.1-3.3-1.5-6.8-1.6-10.5 1.6 0.7 2.2 2 3 3.1 4.7 6.9 8 14.6 13.4 21q0.1 0.1 0.2 0.2 2.8 4.7 7.7 7.1c4.8 2.4 8.2 6.3 11.2 10.6 0.6 0.9 0.6 1.6 0.2 2.6-1.6 3.5-2.1 7.2-1.6 11 0.2 1.9-0.3 3.4-1.4 5-6.9 9.5-14.6 18.4-21.3 28.2-1.5 2.2-1.6 4.7-0.3 7 0.3 0.4 0.5 0.9 1.1 1 0.8 0 1-0.7 1.3-1.2 0.1-0.2 0.2-0.5 0.2-0.7 1.2-5.3 4.6-8.9 8.5-12.2 5.1-4.3 10.6-8.3 14.5-14 0.6-1 1.2-0.9 2-0.1 5 5.2 9.3 11 13.4 16.8 3.6 5.1 7.5 9.7 12.2 13.8 3.6 3.1 7 6.3 9.1 10.8 1.9 4.3 5.2 7.6 9 10.3 2 1.5 4 3 5.7 4.9q2.9 3.4 6.1 6.4c1 0.9 1.5 2 1.9 3.3 1.9 5.7 3.3 11.7 6.5 16.9 0.3 0.5 0.4 1 0.6 1.5 1.3 5.1 4.4 9.1 8 12.8 3.6 3.8 7.7 7.2 11.2 11.2 1.4 1.6 2.6 3.3 5.2 3.4-3.5-4.6-6.3-9.6-10.3-13.8-0.6-0.7-1.3-1.4-1.4-2.4-0.1-1.6-1.1-2.4-2.5-3-1.5-0.7-2.5-1.9-3.1-3.6-0.9-2.3-1.8-4.5-3-6.6-2-3.5-3.9-7.2-5.8-10.7-0.4-0.8-0.9-1.7-0.8-2.8 2.3 1.4 4.4 2.8 6.6 3.9 3.8 1.8 6.4 4.7 8.2 8.4 1.9 3.7 3.7 7.4 5 11.4 1.5 4.8 2.9 9.6 5.7 13.9 1 1.4 2.1 2.7 3.6 3.7 3.3 2.2 6.2 4.9 8.6 8.1 2.4 3.2 4.7 6.3 7.6 8.9 4.1 3.7 7.5 7.9 10.9 12.2 1.8 2.4 3.3 4.9 5.3 7.1 4.6 5.2 9.8 10 15.1 14.5 4.9 4.2 10.5 7.4 16.4 10 1.6 0.8 3.4 1.1 5.2 0.5-1.4-0.8-3-1.2-4.4-2-4.5-2.5-8.5-5.7-12.3-9-4.1-3.6-7.8-7.6-11.9-11.2-3.5-3.1-6.4-6.6-9-10.4-3-4.5-6.3-8.7-10.1-12.5-3.1-3-6.3-6-9.1-9.3-2.9-3.6-6.2-6.8-10.2-9.1-1.6-1-2.9-2.5-3.7-4.2-1.5-3-2.5-6.1-3.2-9.4-1.2-5.6-2.9-11-5.3-16.2-2-4.4-4.8-8.1-9.5-10.3-5-2.3-9.1-5.8-13.1-9.6-3.7-3.6-6.8-7.9-10.9-11.1-5.2-4.1-8.5-9.6-11.2-15.4-2.4-5.3-5.2-10.4-8.7-15-2.3-3.1-4.3-6.3-6-9.7-2.1-4.4-4.4-8.7-7.3-12.6-2.5-3.4-4.4-7.2-7-10.6-0.6-0.7-1.6-1.1-1.6-2-0.1-1 1.1-1.2 1.7-1.8 1.4-1.6 2-1.6 3.3 0 4.3 5.6 8.8 11 12.3 17.1 2.4 4.2 5.4 8 7.3 12.6q1.6 3.8 3.4 7.5c2.1 4.4 4.4 8.7 8.1 12 1.4 1.3 2.9 2.4 4 4 1.1 1.8 2.4 3.4 3.7 5.1 2.6 3.5 5.5 6.6 8.4 9.8 2.1 2.2 4.9 3.2 7.1 5.1 1.5 1.3 3 2.8 4.8 3.7 3.5 1.8 7 3.7 10.3 6 2.8 1.9 6.2 2.5 9.3 3.9 0.6 0.3 1.1 0.6 1.6 1.1 2.9 3.1 5.4 6.4 8 9.6 0.6 0.6 1 1.4 1.4 2.1 0.3 0.6 0.2 1.2-0.3 1.7-0.6 0.5-1.2 0.2-1.7-0.2-0.3-0.2-0.6-0.6-0.9-0.9-1.7-1.6-2.8-3.7-4.4-5.4-1.5-1.7-2.8-3.7-5-4.5-1.8-0.6-3.8-1.2-5.6-1.8-0.5-0.2-0.9-0.4-1.3-0.1-0.5 0.4-0.1 0.9 0 1.4 0.9 2.9 2.5 5.5 3.8 8.3 1 2.1 1.7 4.3 1.6 6.7-0.2 2.1 0.5 3.9 1.4 5.8 2.9 5.8 7.6 10 12.8 13.7 1.2 0.8 2.1 1.7 2.8 3 1.4 2.2 3.2 4.2 5.2 5.7 4.2 3 7.6 6.8 10.7 10.9 3.9 5 7.8 10 12.2 14.5 1.9 2 3.3 4.1 4.4 6.6 1.6 3.7 3.4 7.3 6.2 10.2 4 4.3 8.4 8.3 13.3 11.6 4.7 3.1 10 5.2 14.8 8.1 0.7 0.5 1.6 0.7 2.4 0 0.5-0.5 1-0.6 1.6-0.3 2 0.8 4.2 0.4 6.2 0.6 1.9 0.1 2.7-0.8 2.7-2.7 0-1.2-0.7-1.9-1.6-2.5-3.6-2.6-7.4-4.7-11.2-7-4.5-2.5-9-4.9-13-8.1-3-2.5-5.9-5.2-9.1-7.3-2.4-1.6-4.1-3.7-5.6-6.1-2.2-3.5-4.4-7.2-6.7-10.8-1.2-1.8-1.7-3.8-2.3-5.9 0.9-0.4 1.4 0.2 2 0.5 3 1.5 5.4 3.7 8.1 5.6 4.2 3.1 8.3 6.6 12.9 9.2 5.4 3 10.5 6.6 15.9 9.8 3.8 2.2 7.5 4.4 11.7 6.1 3.1 1.2 6.2 2.7 9 4.5 1.2 0.8 2.6 1.6 4.7 1.6-1.2-1.2-2.2-1.8-3.2-2.4-2.4-1.1-4.5-2.6-6.7-4-10.5-6.8-20.6-14-29.9-22.3-5.3-4.8-11.2-8.5-17.3-12-7.1-4.1-14.6-7.5-21.7-11.6-1.1-0.6-2.1-1.2-2.5-2.6 2.3-0.9 4.7-1.2 7-1.2 8.3 0.1 16.3 2 23.4 6.6 8 5.1 16.4 9.4 24.8 13.7 5.6 2.8 10.9 6 15.6 10.1 3.9 3.4 8.2 6.1 12.5 8.8 0.7 0.4 1.4 1 2.6 0.4-1-1.1-2-1.9-3-2.7-3.5-2.6-7.3-4.7-10.3-7.8-2.7-2.7-5.4-5.4-8.2-7.9-3.6-3.2-7.1-6.5-11-9.2-5.2-3.6-10-7.7-14.2-12.5-1-1.1-2-2.1-3.2-3-3.4-2.4-7.3-3.6-11.2-4.8-5.8-1.7-11.3-4.2-16.8-6.8-5.8-2.7-10.4-7.1-15.4-11-1.5-1.2-2.7-2.6-3.9-4.1-0.4-0.6-0.8-1.2-0.5-1.9 2.1 0 4.2 0.1 6.3 0 2.1-0.1 2.9-0.9 3.2-2.9 0.3-1.8 0.1-3.5-1.1-5-2.5-3.2-4.8-6.5-7.4-9.7-3.6-4.4-5.6-9.2-4.9-15.1 0.3-2.8-0.9-5.2-2.5-7.4-1-1.4-2.3-2.6-3.7-3.6-2.5-1.9-4.4-4.1-5.6-7-0.9-2.2-2.3-4.1-4.2-5.6-1-0.7-1.6-1.7-2.1-2.9q-1.4-3.5-2.9-6.9c-0.9-2.2-4.6-4.5-6.8-3.9-2.4 0.7-4.9 1-7.2 2.1-3 1.5-6.1 2.8-9.3 3.9-1.8 0.5-3.4 1.3-5.1 1.9-0.4 0.2-0.9 0.2-1.2-0.2-0.3-0.5 0-1 0.4-1.3 1.2-1 2.6-1.6 4.2-2.1 3.9-1 7.7-2.7 11-5 3.2-2.2 6.4-4.2 10.5-4 1.7 0.1 2-0.3 2.1-1.9 0.1-2.6 0.1-5.2-0.2-7.8q-0.7-4.9-0.5-9.9c0.1-1.3 0.7-1.6 1.8-0.9 0.4 0.3 0.7 0.6 1 0.9 1.5 1.6 2.7 3.5 3.3 5.5 1.6 5.2 4.3 9.8 6.7 14.7 1.4 2.9 3.1 5.6 5 8.2 2.5 3.4 5 6.7 6.4 10.9 1.9 6.1 6.6 10.2 11.1 14.5 5.3 5.2 11.3 9.7 16.8 14.7 1.2 1.1 2 2.2 2.6 3.8 1.9 5.2 3.1 10.6 5 15.8 1.6 4.3 3.4 8.5 5.2 12.7 0.5 1 1.2 2 1.9 2.8 0.8 0.9 1.5 0.7 2.1-0.3 0.6-1 0.7-2.1 0.8-3.2 0.5-5.2-0.6-10.1-3.1-14.6-1.7-3.1-2.6-6.5-3.7-9.9-0.3-0.8-0.7-1.7 0.2-2.7 2.1 2.1 4 4 6 6 5.2 5.3 10.2 11.1 15.9 15.9 5.2 4.4 10.3 8.8 14.8 13.9 2.6 2.9 5.8 5.1 9.1 7.3 3 2 5.6 4.4 7.3 7.9 2.6 5.6 6.1 10.8 11 14.9 1.3 1.1 2.3 2.3 3.5 3.5 3.6 3.4 6.7 7.4 10.6 10.7q4.1 3.4 8.1 6.9c0.8 0.8 1.8 1.6 2.2 2.8 1.3 3.9 2.8 7.7 4.1 11.5 0.7 2 0.8 4.1-0.1 6.1-0.6 1.3-1.5 2.5-1.3 4.1 0 0.6-0.5 1.1-1.1 1.4-0.7 0.4-1.5 0.7-2.3 1.1-1.3 0.7-1.5 1.2-0.6 2.4 0.7 1 1.6 1.7 2.9 1.5 5.4-0.9 10.9-0.5 16.3-1.6 0.7-0.1 1.5-0.1 2.3 0 2.5 0.4 5 0.7 7.4 1.4 3.7 1.1 7.6 1.6 11.4 2.7 1 0.3 2.2 0.3 3.3 0.4 1.4 0.1 1.8-0.9 2.1-1.9 0.4-1.1 0.4-2.2-0.7-2.8zm-593.5-50.9c-0.5 0.9-0.8 1.9-1.9 2.6 0-2.7 0.3-5.3-0.1-7.7-0.6-3.4 0.8-5.8 3-8.1 2.7-2.7 4.6-6 5.7-9.7 0.6-2 0.9-4.1 1.3-6.1 0.1-0.7 0.1-1.5 0.7-1.9 2.2-1.4 2.7-3.7 3.7-5.8 0.2-0.5 0.3-1.3 1.1-1.2 0.6 0.1 0.9 0.7 1.1 1.3 0.2 0.7 0.1 1.5-0.1 2.3-0.6 1.8-0.8 3.8-0.2 5.6 0.8 2.4 0.1 4.5-0.8 6.6-2.2 4.7-4.6 9.3-8 13.3-2.2 2.7-4 5.6-5.5 8.8zm41.8-30.5c-1.3 3.7-3.8 6.6-6.7 9.1-0.9-0.2-0.8-0.8-0.8-1.3-0.2-1-0.9-1.3-1.7-1.4-1.9-0.1-3.6 0.1-5.1 1.4q-4 3.3-7.5 7.2c-2.9 3.3-5.9 6.5-9.4 9.2q-0.3 0.3-0.6 0.5c0 0-0.2 0-0.2 0l0.1-0.1q0.2-0.3 0.5-0.6c2.7-4.6 5.2-9.3 9.3-12.9 2.4-2.1 4.7-4.3 7-6.6 1.3-1.4 2.9-2 4.6-2.8 2.4-1 4.6-2.2 7.2-2.7 2.2-0.4 3.6-2.1 4.6-4 2.5-4.9 3.4-10.1 2.1-15.6-0.4-1.5-0.4-2.9 0.3-4.5 1-2.2 1.4-4.5 0.9-7-0.4-2 0.3-4.1 1-6 0.6-1.5 0.9-2.9-0.9-3.9-0.5-0.2-0.5-0.6-0.1-1q0.8-1 1.7-1.9c2.1-2.1 2.6-2.1 3.8 0.6 0.9 1.9 1.1 3.8 0.1 5.7-1.3 2.7-1.2 5.2 0.1 7.9 0.6 1.4 1.1 2.9 1.2 4.5 0.1 1.5-0.4 2.8-1.6 3.6-3 2.1-4.1 5.1-4.4 8.5-0.2 3.4-1.2 6.4-3.2 9.1-1.1 1.5-1.7 3.2-2.3 5zm80.2-15.8c-0.8 2.5-0.7 5.2-1.3 7.7-0.5 2.4-1.4 4.6-2.7 6.7-1.9 2.9-3.1 6-3.2 9.5-0.1 2.9-1.4 5.1-3.6 6.9-2.4 2-4.5 4.3-6.4 6.8-3.3 4.1-7.2 7.7-11.4 11-3.2 2.5-6.3 5.1-9 8.2-2.6 2.8-5.9 4.8-8.6 7.5-6.3 5.9-12.9 11.5-19 17.8-2.2 2.3-4.4 4.6-6.6 7-1.4 1.5-2.9 2.9-4.7 4.1-0.5-1.1 0.1-1.6 0.3-2.2 2.6-6 5.3-12.1 7.9-18.1 1-2.5 1.5-5.1 0.8-7.9-0.6-2.5-0.7-5 0-7.5 0.6-1.9-0.1-3.8-0.7-5.5-1.1-2.8 0.2-5.3 0.5-7.9 0.1-0.7 1.1-1.3 1.7-1.9q2.8-2.3 5.7-4.6c2.1-1.7 4.1-3.7 5.6-6 0.8-1.4 2.1-2.4 3.4-3.3 2.9-2 6.4-2 9.4 0 4.4 2.9 8.8 5.6 12.9 8.8 0.7 0.6 1.5 1.5 2.4 0.7 0.9-0.8 0.4-1.9-0.3-2.8-1.4-1.9-2.9-3.7-4.5-5.4-1.3-1.2-2.6-2.5-3.7-4-2.8-4-6.7-6.6-11.2-8.6-1.6-0.7-3.1-1.8-4.8-2.4-1.1-0.4-1.8-1.4-2.4-2.3q-2-2.9-5.3-4.6c-3.8-1.9-3.8-3.9-4-8 0-0.5 0.3-0.9 0.8-1.2 0.8-0.6 1.5-1.1 2.5-1.4 2.1-0.7 4.2-1.5 6.4-2.1 1.6-0.5 2.7-1.5 2.9-3.3 0.3-1.5 0.9-2.9 2-4.1 1-1.1 1.3-2.4 1.3-3.8-0.1-1.9-0.2-3.7-0.7-5.5-1-3.7-0.9-7.5-0.8-11.3 0-0.4 0.1-0.7 0.5-1 0.9 0.3 1 1 1.1 1.8 0.3 2.4 0.7 4.7 1 7.1 0.4 3.3 1.2 6.3 4.1 8.4 1.1 0.8 1.6 2.2 2.1 3.5 2.3 6.2 5.5 11.9 10.1 16.8 1 1.2 2 2.3 3.1 3.5 0.5 0.4 1.1 0.9 1.9 0.6 0.8-0.4 1.1-1.2 0.9-2-0.5-3-0.6-6.2-1.9-9.1-1.9-4.2-3.6-8.4-5.4-12.7-0.5-1.3-0.6-2.6 0.4-3.9 1.1-1.4 1.2-3.1 1-4.9-0.1-1.4-0.8-3.3 0.5-3.8 1.3-0.5 2.2 1.3 3.1 2.3 1.2 1.1 2.3 2.4 3.4 3.6 3 3.6 6.9 5.9 10.6 8.7 4.5 3.4 8.8 7.2 11.6 12.4 0.3 0.6 0.5 1.1 0.3 1.7zm-7 46.7c0.4 0.3 0.7 0.7 0.5 1.2-0.7 1.5-0.2 2.8 0.3 4.1q1.5 3.6 2.4 7.4c0.6 2.4 2.1 4.5 2.6 7 0.4 2.3-0.5 4.4-1.1 6.6 0 0.1-0.4 0.3-0.6 0.3-0.2-0.1-0.5-0.3-0.5-0.5-0.3-2.5-1.5-4.6-2.1-7-0.8-3.4-3-4.7-6.5-4.8-3.3-0.1-6.1 0.9-8.7 2.7-0.4 0.3-0.8 0.4-1.2 0.6-0.6 0.3-1.2 0.1-1.6-0.5-0.5-0.6 0.1-1.1 0.5-1.5 1.8-1.7 3.7-3.4 5.5-5.1 2.9-2.8 5.6-5.6 7.7-9.1 0.3-0.5 0.5-1.1 1.1-1.4 0.5-0.4 1.1-0.4 1.7 0zm11.1-52.5c-0.3 0.2-0.8 0.4-1.1 0.6-0.9 0.6-1.7 0.5-2.2-0.5-2.2-4.3-6.2-6.9-9.4-10.3-0.9-0.9-2.1-1.4-3.3-2.1-4.6-2.4-8.4-6-12.3-9.4-1.2-1.1-2.4-2.3-4-2.9-0.4-0.2-1.1-0.3-1-1 0.1-0.6 0.8-0.6 1.3-0.6 0.2-0.1 0.5 0 0.3 0 2.5-0.1 4.2 0.9 5.5 2.3 1.2 1.4 2.6 2.5 4.2 3.3 1.3 0.7 2.5 1.5 3.6 2.6 1.2 1.2 2.7 2 4.5 2.5 3 0.8 5.9 1.9 7.6 4.9 0.5 0.9 1.6 1.6 2.4 2.3 1.9 1.7 3.4 3.7 4.7 5.9 0.8 1.3 0.6 1.7-0.8 2.4zm213.6 96.6c-0.1 0-0.1-0.1-0.2-0.1q0.1-0.1 0.2-0.3 0.1 0.1 0.2 0.1-0.1 0.2-0.2 0.3zm2.2-105.2c0.2-1.1-0.1-2.6 1.2-2.8 1.1-0.2 1.4 1.4 1.9 2.2 2.6 3.7 4.6 7.8 6.4 11.9q2.8 6.3 6.2 12.3c2.2 3.6 3.6 7.6 5.5 11.4 4 8.2 9.3 15.4 15.9 21.6 1.9 1.8 3.6 3.6 5.4 5.4 0.1 0.2 0.2 0.4 0.4 0.6-0.1 0.2-0.2 0.4-0.3 0.5-0.1 0-0.3 0.1-0.4 0-0.4-0.3-0.9-0.6-1.2-1-2.1-2.9-4.9-4.8-7.7-6.9-5.1-3.7-9.2-8.2-12.2-13.9-4-7.5-7.7-15.1-11.3-22.8-0.1-0.3-0.2-0.7-0.4-0.9-3.7-4.5-6-9.7-9.2-14.5-0.8-1.1-0.4-2.1-0.2-3.1zm-126.3-43.2q2.5-3.9 5-7.8c1-1.6 2.8-1 4.2-1.5 0.5 0 0.9 0.1 1.1 0.6 0.2 0.4 0 0.8-0.3 1.2-1.2 1.1-2.3 2.2-3.4 3.5-1.6 1.8-3.5 3.3-5 5.2-0.4 0.4-0.8 1.1-1.5 0.7-0.7-0.5-0.5-1.3-0.1-1.9zm31.9 77.2c1.5-1.5 2.9-3 5.3-2.6 0.4 0 0.9-0.2 1.2-0.4 2.6-1.5 5-6.8 4.6-9.7-1.1-6.4-2.7-12.7-4.4-19-0.6-2.4-0.8-4.9-0.7-7.4 0-2.6-1.2-4.7-3.1-6-1.2-0.9-2.8-1.3-4.1-2.1-0.4-0.2-0.9-0.4-1.4-1.5 2.9 0.1 5.4 0 7.2 2.3 0.5 0.6 0.9 1.1 1.4 1.6 1.1 1 2.5 0.7 3.3-0.6 0.3-0.6 0.7-1.2 0.7-1.9 0.2-2 1.3-3.5 2.5-5.1 0.8-1.1 1.4-2.3 2.2-3.5 1.2-2 2.6-2.6 4.8-2 0.7 0.2 1.5 0.5 2.1 0.9 4.9 3 10.2 5.2 15 8.4 5.9 3.8 11.8 7.4 17.3 11.8 3.4 2.7 7.2 4.9 10.7 7.4 2.5 1.7 2.6 2 1.6 4.9-0.5 1.3-1.2 2.5-2 3.6q-10.1 15.1-23.7 27.2c-4.1 3.7-7.9 7.6-11.8 11.6-5.6 5.8-11.5 11.2-18.1 16-2.1 1.6-4 3.6-6.1 5.1-4.2 3.1-8.5 6.1-12.7 9.1q-1.7 1.3-3.2 2.7c-0.6 0.6-1.2 0.8-2.1 0.4-2.3-1-4.7-1.6-7-2.7-1.9-1-3.4-2.2-4.5-4.1-1.1-2.3-2.3-4.5-3.4-6.7-0.6-1.2-0.8-2.3-0.1-3.5 1.4-2.5 0.7-5.2 0.5-7.8-0.3-4.7-1.3-9.3-1.4-13.9 0-2.2-2-3.4-3.5-3.8-3.7-1-6.6-3.4-9.8-5.2-2-1.1-3.9-2.2-5.8-3.4-2.3-1.3-4.5-1.4-7-0.3-3.1 1.5-6.6 2-9.9 3-0.6 0.2-1.2 0.2-1.8-0.1-0.6-0.3-1-0.8-1-1.4 0-0.6 0.5-0.9 1-1 1-0.4 2-0.6 3-1q4.6-1.5 9.1-3c1.1-0.4 1.9-1.2 2.8-1.8 1.6-1.2 2.7-1.3 3.9 0 2.9 2.8 6.4 4.4 9.8 6.3 2.9 1.7 5.5 3.9 7.8 6.4 3.9 4.1 3.8 4.2 9.2 5.5q1.8 0.5 3.6 0.7c3 0.2 4.5-0.8 5.4-3.7 0.4-1.3 0.7-2.7 1.1-4 0.3-0.8 0.5-1.7 0.9-2.4 1.1-2.2 2.1-2.6 4.4-2.2q0.6 0.1 1.3 0.3c1.9 0.6 3.6 0.1 4.9-1.4zm-79.8-36.6c-4.1 4-7.1 8.8-9.1 14.3q-1.1 3.1 0.4 6c0.5 1 1 2 1.4 3.1 0.2 0.4 0.2 1-0.4 1.3-0.4 0.3-0.8 0.1-1.2-0.2-1.4-1.3-2.9-2.4-4.4-3.6-3.4-2.5-6.5-5.7-11-6.6-0.8-0.2-1.7-0.5-2.3-1.1-1.2-1.2-0.9-2.5 0.8-2.8 1.1-0.3 2.3-0.5 3.3-0.4 2.8 0.3 5-0.9 7.1-2.3q2.6-1.7 5.3-3.3 1-0.6 1.8-1.3c5.8-5 11.4-10.2 16.2-16.1 1.4-1.7 2.8-3.3 4.2-4.9 0.6-0.8 1.3-1.5 2.4-1.5 0.7 0.1 1.1 0.3 1.2 1.1 0 0.7-0.4 1.1-0.9 1.6-4.9 5.6-9.5 11.4-14.8 16.7zm40.1 18.3c0.7-0.6 1.5-1.1 2.3-1.7q3.7-3.1 6.5-7c0.9-1.4 1.8-2.8 3.2-3.7 0.4-0.3 0.7-0.8 1.3-0.5 0.6 0.3 0.5 0.9 0.5 1.5-1.2 3.6-0.6 7.5-1.4 11.2-0.5 2.2-0.3 4.6-0.4 7 0 0.5 0.1 1 0 1.5-0.1 0.7-0.4 1.4-1.2 1.6-0.8 0.3-1.2-0.2-1.7-0.8-1.5-1.7-2.8-3.5-3.6-5.6-1-2.7-1.4-2.9-3.8-1.3-0.8 0.4-1.4 0.8-2.1 0-0.7-0.8-0.3-1.6 0.4-2.2zm47.2-98.7c-2.4 3.2-5.2 6.1-8.4 8.4q-2.9 2.1-4.9 5c-2.8 4.1-6.6 7.4-9.6 11.2-1 1.2-2.4 0.8-3.6 1.2-0.7 0.2-1.1-1-0.5-1.8 0.6-1 1.3-1.9 2.2-2.6 1.1-1 1.8-2.2 2.5-3.4 1.7-3.1 3.8-5.8 5.9-8.6 1.7-2.3 3.4-4.6 5.1-6.9 2.1-3.1 3.4-6.6 4-10.4 0.2-1.3 0.4-2.7 0.6-4 0.1-0.5 0.2-1 0.5-1.2 1.2-1.1 1.7-2.6 2.2-4q0.3-0.6 0.7-1.2c0.4-0.6 1.1-0.8 1.8-0.6 0.8 0.2 0.9 0.8 0.9 1.5 0 0.9-0.1 1.9-0.2 3.3-0.4 1.6-0.1 3.6 1 5.5 0.4 0.6 0.6 1.3 0.8 1.9 0.6 2.4 0.5 4.6-1 6.7zm63.8-6.5c-0.5 0.3-0.6 0.1-0.8-0.1-2.3-3.6-5.7-6-9.4-7.9-3.4-1.8-6.1-4.2-8.1-7.5-0.8-1.4-1.9-2.7-3-3.9-1.5-1.6-2.8-3.3-3.8-5.2-2.9-5-6.3-9.5-10.6-13.9 2.1-0.5 3.2 0.6 4.1 1.7 4.3 5.2 9.9 9.3 13.3 15.2 5.3 5.1 9.8 10.9 15.6 15.5 0.2 0.3 0.4 0.6 0.7 0.7 2.5 1.2 2.2 3.4 2 5.4zm8.3 19c2.2 4.5 4.7 8.9 7.2 13.2 1.8 3.1 2.9 6.5 4.3 9.8 1.9 4.5 5 8.5 7.5 12.7 1.1 1.9 2 4 3.1 6 0.2 0.5 0.5 0.9-0.1 1.6-5.3-4.6-10.7-9.1-13.6-15.5-2.6-5.9-6.7-10.9-9.3-16.8-1.1-2.6-2.3-5.2-2.8-8.1-0.3-1.6-0.5-3.2 0.3-4.8q0.9-1.6 2-0.3 0.8 1 1.4 2.2zm47.2 39.2c0.3-0.6 1-0.6 1.6-0.5 0.2 0 0.3 0 0.9 0.1 1.1 0.1 2.3-0.5 3.5-1.1 0.8-0.4 1.5-0.7 2.2-0.1 0.6 0.6 0.2 1.3 0 2-0.9 2.2 0.2 4 1.5 5.7 1.3 1.5 2.6 3 3.9 4.5q0.4 0.5 0.8 1c0.3 0.5 0.9 1 0.3 1.6-0.5 0.4-1 0-1.4-0.4-0.8-0.6-1.7-1.2-2.4-1.9-2.9-3-6.4-5.3-9.5-8.1-0.3-0.3-0.6-0.6-0.9-0.9-0.5-0.5-0.8-1.1-0.5-1.9zm62.9 5.1c-1.2-1-2.3-2.1-3.5-3-4.6-3.7-7.5-8.5-9.8-13.8-1.5-3.4-4.3-6-6.4-9.1-3.7-5.4-6.6-11.2-9.6-16.9-0.3-0.6-0.5-1.1-0.2-2.1 1.8 1.5 3 3.2 4.1 4.9 3.8 5.7 8 11.1 12.4 16.3 5 6 9.3 12.5 12.2 19.8 0.6 1.6 1.6 3.1 2.4 4.6-0.9 0.4-1.2-0.3-1.6-0.7z"/>
			</g>
		</g>
	</g>
</svg>